<svg id="Layer_1" data-name="Layer 1" xmlns="http://www.w3.org/2000/svg" viewBox="0 0 24 24"><defs><style>.cls-1{fill:none;}.cls-2{fill:#202020;}</style></defs><path class="cls-1" d="M20.08,6.56c-.69,0-1.37-.08-2,0-.42,0-.84,0-1.26,0h0l-.27-.47c0-.08-.09-.15-.14-.23C15.77,5,15.2,4.15,14.6,3.3l-.7-1a2.74,2.74,0,0,1-.32-.54,4.36,4.36,0,0,0-.48-.65c-.41-.35-1.75.31-1.79.51l-.14.26c-.32.31-.45.65-.75,1l-.59.63-.22.25L8.75,4.83c-.35.45-.64.91-1,1.36l0,.09c0,.12-.2.22-.22.33h0a5.23,5.23,0,0,1-1.31,0,9.62,9.62,0,0,0-2.14.12s0,0-.08.06H4l0,0H4l0,0,0,.06v.19a.65.65,0,0,1,0,.39c-.15,3.44-.24,6.89-.23,10.34a28.63,28.63,0,0,0,.25,3.7.89.89,0,0,1,0,.43,2.72,2.72,0,0,1,.09.56s0,0,0,0,0,0,0,.06A2.8,2.8,0,0,0,5.44,23h.89a.15.15,0,0,1,.13,0H7.58a10.94,10.94,0,0,1,1.28,0c1.56,0,3.11,0,4.67,0h.21a4,4,0,0,1,.69,0c.5,0,1,0,1.51,0,0,0,.1,0,.15,0H19l.13,0h.19l.27,0c.65-.08.7-.14.66-.79v0c0-.87,0-1.73,0-2.59a.36.36,0,0,1,0-.25V18.6a.28.28,0,0,1,0-.25c0-.66-.08-1.31-.08-2l0-2c0-.49,0-1,0-1.48,0-1.51.05-3,.07-4.52a4.44,4.44,0,0,1,0-1c0-.18,0-.36,0-.54S20.25,6.55,20.08,6.56Zm-8.32.07c-.86,0-1.72,0-2.58,0L9,6.66l-.05,0h0a7.42,7.42,0,0,1,.75-1.45l.06-.1s0,0,0,0l0,0s0,0,0-.07c.2-.35.39-.7.58-1s.37-.73.57-1.09a6.49,6.49,0,0,0,.43-.88.21.21,0,0,1,.13-.16s.72-.41.83-.36c.27,0,.65.11.69.25a10.73,10.73,0,0,1,.88,2c.39,1,.87,1.94,1.21,2.92h0Z"/><path class="cls-2" d="M9.8,4.08Z"/><path class="cls-2" d="M14.22,2.9h0Z"/><path class="cls-2" d="M14.52,3.85Z"/><path class="cls-2" d="M12.47,1h0Z"/><path class="cls-2" d="M9,5.67Z"/><path class="cls-2" d="M9,5.65s0,0,0,0a.08.08,0,0,0,0-.06S9,5.64,9,5.65Z"/><path class="cls-2" d="M11.38,7h0Z"/><path class="cls-2" d="M12.48,1.88h0Z"/><path class="cls-2" d="M10.86,6.93V7A0,0,0,0,0,10.86,6.93Z"/><path class="cls-2" d="M14.26,2.91h0Z"/><path class="cls-2" d="M14.86,4.71h0Z"/><path class="cls-2" d="M12.36,6.58h0v0Z"/><path class="cls-2" d="M15.27,6h0a1,1,0,0,0-.07-.21h0Z"/><path class="cls-2" d="M14.32,6l0,.07H14a2.64,2.64,0,0,0-.47,0h0c-.06,0-.08.14-.68,0h0s0,0-.06,0l.1,0a.53.53,0,0,1-.19.06l0,0h-.2l-.06,0c-.06,0,0,.12-.2.07.07.07-.08,0-.06.08l0,0a1,1,0,0,0-.33.07,3.36,3.36,0,0,1,.49.2c-.13,0,0,0,0,0v0c.09,0,.09.06.13.07h0v0s0,0,0,0h0a.47.47,0,0,1,.12,0v0c.05-.07.41.09.49.09s.18,0,.29,0,.08,0,.16.07,0,0,0,0l.13,0c-.07,0,0,0,0,0s.27.06.3,0,.15.06.21.06-.06,0-.06,0,0,0,0,0a.6.6,0,0,1,.27,0c.11,0,.31,0,.3,0h0c0-.06,0-.11,0-.14l.06,0,.07,0c.07,0,.05,0,.06,0l.41-.06L15,6.61c.12,0,.42.06.3,0l0,0c.07-.16-.07-.16-.06-.23a.14.14,0,0,0,0-.06v0l0,0a.31.31,0,0,1,0,.08s0-.05,0-.07a1.48,1.48,0,0,1,0-.21h0s0,0,0,0V6a.39.39,0,0,1-.13-.18c-.05-.15-.12-.2-.12-.38H15l0-.13.05,0,.23.52h0a2.72,2.72,0,0,0-.14-.29s0-.12.07-.08l-.07,0a2.64,2.64,0,0,1-.2-.6v0c0-.06-.07-.11,0-.14a1.35,1.35,0,0,1-.11-.52h-.06s0-.13,0-.12L14.57,4s-.06-.07-.05-.14h0v0h0c0-.13,0,0-.08-.13s-.08,0-.1-.09l.05-.09c0-.14-.09-.13-.15-.3s0-.15.12-.12c-.1,0-.06,0-.13-.1s0,0,.07,0-.05,0-.07-.11-.16,0-.17,0v0A.36.36,0,0,1,14,2.7h0l-.05-.09,0,0-.06-.12v0a.57.57,0,0,1-.08-.19h0c0-.19-.15-.29-.25-.46h.05c0-.08-.07,0-.09-.07l0,0c-.09,0,0-.09,0-.15l0,.06,0-.09h0c0-.13,0-.11.08-.1a.39.39,0,0,0-.1-.08l0-.06c-.11,0,0-.09-.19-.17s0,0,0,0A.86.86,0,0,0,13,1.06l.16,0-.07.07c-.16,0-.19-.1-.27-.1h.06A.37.37,0,0,1,12.7,1s.05.05,0,.06,0,0-.06-.05-.11.07-.2,0,0,0,0,0a.08.08,0,0,1-.09,0l0-.06-.1.06c-.06,0-.15.06-.15,0l0,0a2.45,2.45,0,0,0-.37.13l0,0c0,.08-.17.05-.12.13s-.18.13-.2,0a.91.91,0,0,0-.16.11l0,0a.73.73,0,0,0-.34.4c0,.08,0,.08-.08.16s-.18.24-.25.36-.14.43-.26.72c-.19.1-.18.42-.33.56l0,.07c-.13.08-.14.3-.29.42s0,.07,0,.08h0s-.07.14-.12.11v0s-.05.15-.12.18h.07l-.06.08v0a1.1,1.1,0,0,1-.13.34l.09-.11-.1.09a.46.46,0,0,0-.06.41V4.84l0,0,.25-.22a.55.55,0,0,0-.19.1.44.44,0,0,0-.13.35.43.43,0,0,0,.08.2l0-.42a1.15,1.15,0,0,0-.19.4c0-.08,0,.08-.07,0s-.08.17-.11.26H9L9,5.75c0-.13,0,.13,0,0a2.07,2.07,0,0,0-.37.76l-.11.41.4.08h0L8.77,7l.06,0,.1,0L9,7l.18,0h.25l0,0a1,1,0,0,1,.34,0C9.87,7.05,10,7,10,7s.18,0,.14,0,.19-.1.33-.06.37-.08.38,0h0c.18.07.34,0,.53,0V7l.38-.28-.11-.3-.34-.25-.89.06-.71-.09h-.6l-.2,0,.29,0h0L9,6.11h0l.39.67A3.84,3.84,0,0,1,9.81,6V5.86a1.44,1.44,0,0,0,.37-.55l.22-.48-.61.22c-.08,0,0,0,0,.14l.13.73.27-.67,0,0,.19-.45L9.83,5a1.33,1.33,0,0,1,.31.32l0,0,.09-.17a1.27,1.27,0,0,1,.18-.27l0,0c0-.09.08-.07.1-.08.47-.88.84-1.75,1.33-2.59A.38.38,0,0,0,11.9,2l-.27-.09-.05,0s0,0,0,0a.51.51,0,0,1,.11.18l.05.13.06,0,.08,0a1.32,1.32,0,0,1,.52-.31h.08v0a.25.25,0,0,1,.17,0,.11.11,0,0,1,0,.05h0a7.92,7.92,0,0,1,.64,1.31c.19.47.39.92.55,1.4a3.45,3.45,0,0,0,.28.75l.17.38c.07.18.06.18,0,.19h0S14.34,6,14.32,6Z"/><path class="cls-2" d="M12.64,6.16h0S12.64,6.14,12.64,6.16Z"/><polygon class="cls-2" points="15.23 6.71 15.22 6.71 15.28 6.72 15.23 6.71"/><path class="cls-2" d="M13.52,6.84c.06,0,.07,0,.06,0Z"/><path class="cls-2" d="M12.08,6.22s0,0,0,0h.06Z"/><path class="cls-2" d="M12.24,6.55l0,0S12.24,6.56,12.24,6.55Z"/><path class="cls-2" d="M5.15,7Z"/><path class="cls-2" d="M10,22.42h0l0,0Z"/><path class="cls-2" d="M13.66,22.49h0Z"/><path class="cls-2" d="M4.24,20a.35.35,0,0,0,0-.06Z"/><path class="cls-2" d="M10.43,3.37h0l0,0Z"/><path class="cls-2" d="M10.39,3.44c-.06.05,0,0,0-.06a.9.9,0,0,0-.19.2S10.36,3.46,10.39,3.44Z"/><path class="cls-2" d="M18.63,6.83h0Z"/><path class="cls-2" d="M3.37,20.46V20.4A.18.18,0,0,1,3.37,20.46Z"/><path class="cls-2" d="M16.53,6.79h0S16.53,6.8,16.53,6.79Z"/><path class="cls-2" d="M10,22.39h0Z"/><path class="cls-2" d="M17.1,22.5a0,0,0,0,0,0,0h0Z"/><path class="cls-2" d="M20.34,8.65h0l0,.07S20.34,8.67,20.34,8.65Z"/><path class="cls-2" d="M20,21.21v0a3.75,3.75,0,0,0,0,.57h0Z"/><path class="cls-2" d="M20.75,16.08l-.06.5c-.07-1.61,0-2.36,0-3.72l0,.08a10,10,0,0,1,.09-2.53h0a.84.84,0,0,1,0-.23l-.05.38c0-.23,0-.43,0-.74,0-.06,0-.08,0-.09V9l.05-.23c0-.16-.07-.16-.08-.36V8.34a1.61,1.61,0,0,1,0-.35c-.07.22,0-.28-.08-.21l0-.14a1.93,1.93,0,0,1,0-.25v0c0-.17,0-.36,0-.56a.53.53,0,0,0-.28-.49.51.51,0,0,0-.31,0l.14,0a.47.47,0,0,1,.37.36,1.06,1.06,0,0,1,0,.38l0,.34v0c0,.33-.08.67-.11.83,0-.5,0-.13,0,0v0c0,.06,0,.11,0,.18h0a1.77,1.77,0,0,0-.06.28h0v0s0,0,0,0,0,0,0,.1v0c0,.13,0,.35,0,.45h0A17.8,17.8,0,0,1,20.16,11c-.05.3,0,.68,0,1.07,0,.61-.06.3-.1.61s0-.08,0,.08l-.06.46c0-.27,0-.13,0-.08a5.26,5.26,0,0,0,0,1.16c0,.53-.06.53-.06.76,0-.07,0-.23,0-.23,0,.22,0,.1,0,0,0,.32-.11,1.69,0,1.76h0c.06.08.11,0,.15.19l0,.15,0,.23c0,.15,0,.08,0,.08,0,.3,0,.69,0,1.07l0-.09a.5.5,0,0,0,0,.43l0-.09v0l0,.09a.46.46,0,0,1,.07-.4v.06l.06-.21v.17a.37.37,0,0,0,0,.34v0a2.71,2.71,0,0,0,0,.68s-.08.19-.05.29v0l0-.08c-.1.73,0,.51,0,.81l-.06.39v-.38a8.45,8.45,0,0,1-.1.84h0v0a1.79,1.79,0,0,1,0,.51,5.66,5.66,0,0,0,0,.58c0,.13,0,.3-.18.31l-.07.07h-.43v-.05l.37,0a.34.34,0,0,0,.22-.09c0-.09,0-.11,0-.27s0-.34,0-.49l0,0c0,.16,0,.38,0,.54s0,.16,0,.21-.16,0-.11,0a.21.21,0,0,1,0,.06,2,2,0,0,1-.3,0l-.29,0s-.17,0-.22,0h-.22l-1.2,0,.11,0a1.45,1.45,0,0,1-.54,0h-1a.66.66,0,0,0-.45.15l.3-.12c-.27,0-.52,0-.71-.07l-.1.05c-.15,0-.36-.09-.44,0l-.33,0c-.22,0-.36,0-.62,0h0c-.44,0,0,.05-.52,0-.17,0-.19.07-.45.06l-.26-.08a11.42,11.42,0,0,0-1.25,0c-.33,0-.49-.09-.27-.15a2.12,2.12,0,0,1-.53.08c-.07,0,0,0,.07-.07-.36,0-.22,0-.49,0-.08.06-.17.15-.25.15l.1,0a4.66,4.66,0,0,1-.92,0v0l-.36,0,0,0-.52,0H8.1l-.56,0H7.4v0a4.48,4.48,0,0,0-1,0l.16,0a.6.6,0,0,0-.45,0l.19,0-.77,0,.1,0c-.25-.05,0,.07-.34,0v-.05c-.26,0-.31-.06-.46-.12l.06.09-.27-.09c-.16-.07-.15-.1-.14-.11s0,0,.05,0l-.07,0,0,0h0v0A.87.87,0,0,0,4.46,22s0,0,0-.05l0-.06,0,.22a1,1,0,0,0,0-.63,1.16,1.16,0,0,1,.06.46l-.08-.09a4.25,4.25,0,0,1-.06-.45,1.66,1.66,0,0,0,0-.31l0,.16a2.46,2.46,0,0,1,0-.62c0,.06,0,.17,0,0s0-.06,0-.17a1,1,0,0,1-.09-.55s0,0,0,0a1,1,0,0,1,0-.21l.07.06L4.2,19.6c0-.14,0-.35,0-.33l0,.08-.06-1.08,0,0c-.08-.1,0-.59-.09-.55,0-.21,0-.82.08-.7,0-.72-.06-1.1,0-2a11.75,11.75,0,0,0,.1-1.73c0-1.1,0-1.86,0-2.93.13-.67,0-1.69.08-2.41l0-.2c0-.08,0-.21,0-.28a.94.94,0,0,0-.1-.62l.07.23V6.9l-.08.26,0-.06-.08.08c.11-.08.07-.07.11-.08a4.39,4.39,0,0,1,.58,0l.28,0s-.07,0-.09,0c.19,0,.56,0,.53,0h0c0,.06.57,0,.76.05L6.21,7l.35,0h.77l.14,0h.14l.3-.49h0l-.23.13.09,0s.16.1.13.07l0-.05a1,1,0,0,0,.18-.26l.6-.82.69-1c-.06.2.16-.26.23-.23A.91.91,0,0,0,10,3.93c.12-.08.15-.23.27-.35s0,0,0,0l.38-.39c-.16.31.21-.35.06-.07a3.52,3.52,0,0,0,.47-.58,2.73,2.73,0,0,1,.2-.25l.15-.17.13-.24a.17.17,0,0,1,.08-.09L12,1.61a2.74,2.74,0,0,1,.59-.2.72.72,0,0,1,.24,0,.13.13,0,0,1,.1,0,4.72,4.72,0,0,1,.35.5,2.46,2.46,0,0,0,.31.53l0-.07c.22.33.55.75.69,1a4.17,4.17,0,0,0,.51.63c.23.26.34.57.26.44a9.6,9.6,0,0,1,.73,1c.06.2.79,1.06.81,1.32h0a.33.33,0,0,0,0,.06c.57,0,.8,0,1.13,0a4.49,4.49,0,0,1,1,0h0c.47-.07,1-.12,1.45-.23-.14-.09-.28-.2-.41-.3-.4-.09-.8-.21-1.24-.3l-.87,0H17l0,0,0-.09c-.08-.13-.17-.25-.25-.37l-.48-.7L14.77,2.58,14.38,2l-.2-.28-.06-.11a.49.49,0,0,1-.06-.14l-.13-.19-.1-.15a2.4,2.4,0,0,0-.29-.38,1,1,0,0,0-.62-.3,1.79,1.79,0,0,0-.53,0,3.52,3.52,0,0,0-.81.28A2.4,2.4,0,0,0,11.2,1a.92.92,0,0,0-.41.51l-.07.08a2.88,2.88,0,0,0-.22.27l-.32.47c-.08.11-.21.23-.34.39l-.4.42c-.1.15-.21.31-.28.44A16.78,16.78,0,0,0,7.33,6.06l0,.05a.88.88,0,0,0-.23.44l0,.09,0,.11h0l.38-.62H7.09a2,2,0,0,1-.41-.05l0,.06a1.47,1.47,0,0,1-.47-.08c-.35,0-.69,0-1,0l-.53,0-.26,0L4,6.22c-.07.08-.15.06-.24.12l-.1.08-.06,0,0,0,0,0,0,.06-.09.14v.65l.21-.15s0,0-.06,0-.09,0-.11,0V9.16c0,.7,0,1.39,0,2.07,0,1.36-.06,2.68-.11,3.94,0,.32,0,1.28-.09,1.53,0,1.06.12,2.2.18,3.28v0l.05.51s0,0,0,0a4.75,4.75,0,0,1,.07.72l0,.43c0,.09,0,.15,0,.18a0,0,0,0,1,0,0h.08l-.1.18c0,.24.07.34.08.44s0,.15.07.23l0,0c0,.05,0,.05,0,.07s-.05,0,0-.08c0,.36.61.52.74.59a3.73,3.73,0,0,0,.69.15,8.1,8.1,0,0,0,1.28.06h.24l-.17-.37s0,0,0,.09l-.11.28h.22l1.1,0h0c1.26-.05,2.64-.05,4-.05h2l1,0,1.07,0,.26,0,.63,0L16,23.05s0,0,0,.08v.31H18.8a1.1,1.1,0,0,1,.36,0l.44,0c.17,0,.84,0,1.06-.46a1.23,1.23,0,0,0,.14-.67v-.37c0-.24,0-.49,0-.77s0-.82.05-1.63v-.27l-.24.11c-.11.05-.11,0,0,.05l.23.11v-1.2l-.21.1c-.13.06-.13,0,0,.06l.24.1,0-.27C20.82,17.3,20.76,16.34,20.75,16.08Z"/><path class="cls-2" d="M20.74,9.73v0S20.75,9.72,20.74,9.73Z"/><polygon class="cls-2" points="20.08 18.64 20.08 18.61 20.05 18.72 20.08 18.64"/><path class="cls-2" d="M20,12.93c0,.26,0,.27,0,.23A1.55,1.55,0,0,0,20,12.93Z"/><path class="cls-2" d="M20.72,7.64c0-.12,0-.07,0,0v.21S20.71,7.7,20.72,7.64Z"/><path class="cls-2" d="M20.38,8.17l0,0C20.36,8.21,20.37,8.2,20.38,8.17Z"/><path d="M5.3,15.26h.19a1.13,1.13,0,0,1-.68-.12.43.43,0,0,1-.21-.29.42.42,0,0,1,.08-.28.38.38,0,0,0-.1.34.55.55,0,0,0,.23.3.79.79,0,0,0,.32.13,1.68,1.68,0,0,0,.62,0l.63-.09.34-.07a3.67,3.67,0,0,0,.59-.21,2.39,2.39,0,0,0,1,0l.57-.13-.39.08.39-.08a22.19,22.19,0,0,1,3.94-.44c.76-.09,2.85-.1,3.64-.1h0c.48,0,.92-.1,1.34-.12a1,1,0,0,0-.26-.06h.21a2,2,0,0,1,.41,0h.24a.79.79,0,0,0,.29-.05c-.06.05.21,0,.35-.22l-.07.06a.58.58,0,0,0,.09-.72,1.34,1.34,0,0,0-.45-.35l-.78-.35a.68.68,0,0,1-.14-.09l-.46-.19c.05,0-.36-.16-.14-.11-.36-.08-.69-.22-1-.29l-.8-.27a.14.14,0,0,1-.12-.13L15,11c-.07-.25-.13-.5-.2-.76a.49.49,0,0,0-.31-.35,1,1,0,0,0-.46,0c-.29.05-.49.11-.74.17h0a11.33,11.33,0,0,1-1.34.34,8.41,8.41,0,0,0-1,.36c-.42.12-.65.12-.89.37.08-.06-.19.32-.05.18s.15-.17.33-.21h0l3.37-.59.28-.06.2,0c.09,0,.09,0,.13.13a5.42,5.42,0,0,0,.36,1.24A.61.61,0,0,0,15,12l1.22.39a9.54,9.54,0,0,1,1.07.36,2.08,2.08,0,0,1,.39.22l.48.21.26.12.17.12s0,0,0,0,.05,0,0,0,0,0-.08,0a.11.11,0,0,1-.09,0H18.2c-.44,0-.75,0-1.15,0l-.09,0c-.07-.05-2.37.18-2.51.16h-.13c-.85,0-1.74,0-2.47.09l-.47.11c-.13,0-.15,0-.3,0-.41-.06-.64,0-.43,0l-.93.13-.4.07a.46.46,0,0,1-.23,0c-.29,0-.21,0-.52,0a6.86,6.86,0,0,0-.84.16l0,0c-.35.05-.59,0-.94.06l-.79.1a.22.22,0,0,1-.16,0c-.07,0,0-.09,0-.11L6,14.32c-.06,0,0,0-.12,0a1.67,1.67,0,0,1,.27-.14c.23-.11.47-.24.71-.34a1.22,1.22,0,0,1,.25-.07c.16-.06.08-.06.19-.11l0,0c.15-.1.26-.08.4-.16s.06-.05.11-.07S8,13.4,8,13.43H8l.09,0,.66-.45h0c.08,0,.11-.08.06-.06L9,12.8l0,0,.17-.11s.07,0,0,0,.14-.2.18-.24a1.15,1.15,0,0,1-.34.29,1.43,1.43,0,0,1-.34.11c.08-.05.18-.07.32-.15a.73.73,0,0,0,.26-.2l.18-.21s0-.08.06-.14.05-.08.11-.12a1.13,1.13,0,0,1-.13.2s.13-.15.17-.2.11-.15.16-.24.06-.05.11-.09.05-.1,0-.08-.17.2-.15.11a.75.75,0,0,0,.14-.18s0,0,0,0,.08-.14.12-.17l0,.06c.06-.08-.21.52-.15.41s.24-.54.2-.48,0-.06,0,0l0,.07c-.06.07-.11.08-.1.05s-.13.41-.08.3l0,0a.6.6,0,0,1,.14-.21s0-.07.05-.13h0c0-.06.08-.13,0-.11-.2.3,0-.29-.23,0,.12-.1,0,.06-.07.19s-.08,0-.15.13,0,.06,0,.08-.1.12-.11.09-.08.09-.13.17,0,0,0,.06l-.22.3s-.14.08-.11,0,0,.09.11-.07c-.09,0,.08-.14.07-.18a.7.7,0,0,0-.17.22l0,0a.41.41,0,0,1-.27.19s0,0,0,0l-.12,0s0,0,0,0a.42.42,0,0,1-.14.06s-.56.34-.55.32-.11,0-.18.08.74-.41.64-.36-.87.51-.93.5-.13.07-.11.08,0-.05-.06,0,0,0,0,0H7.24c-.14.1-.38.17-.53.28a.92.92,0,0,1,.17-.15h0s.09-.05.08-.07a1.08,1.08,0,0,0-.28.15H6.65s0,0,0,0h0c-.09,0-.37.22-.56.3L6,13.78a5.37,5.37,0,0,0-.63.32c0,.06,0,.06.08,0l-.17.1c0-.12-.37.22-.3.1a.52.52,0,0,0-.17.16v0s0,0,0,.09a.37.37,0,0,0-.12.22s0,0,0,0c.08.21,0,.21.2.33a.61.61,0,0,0,.36,0C5.36,15.21,5.36,15.23,5.3,15.26Z"/></svg>