<svg id="Layer_1" data-name="Layer 1" xmlns="http://www.w3.org/2000/svg" viewBox="0 0 24 24"><path d="M5.6,19.54l-.19-.17a13,13,0,0,0,2.13,1.47c-.39-.28-.78-.6-1.15-.92s-.72-.67-1.06-1a13.36,13.36,0,0,0-2-1.73.66.66,0,0,0,0-.45,6.74,6.74,0,0,0-.18-.67,3.68,3.68,0,0,0-.32-.88l-.14-.25-.13-.25c-.08-.17-.15-.35-.22-.53l.14.37.16.36-.16-.36-.14-.37A7.64,7.64,0,0,1,2,10.37,8.83,8.83,0,0,1,3.54,6.64a9.2,9.2,0,0,1,1-1.2A9.51,9.51,0,0,1,6,4.1a9.13,9.13,0,0,1,1.75-1,8.52,8.52,0,0,1,1.46-.47c.21,0,.43-.1.64-.12a1.92,1.92,0,0,0-.36,0l-.36.06A9,9,0,0,1,11.67,2a1.42,1.42,0,0,0-.53-.15h.43a2.28,2.28,0,0,1,.38-.1l.48,0h.49l.41,0c-.05,0,0,.06.11.09a3.52,3.52,0,0,0,.41.1l-.1-.07a14.84,14.84,0,0,1,1.72.48A8.48,8.48,0,0,1,17,3.05a.57.57,0,0,1,.24.21c.15.08.29.15.43.24s.28.17.41.27c-.06,0,.08.16.19.27s.17.19,0,.07A11.21,11.21,0,0,1,19.9,5.54a10.93,10.93,0,0,1,1.83,3.38,11.56,11.56,0,0,1,.57,3.93l0-.06a12.93,12.93,0,0,1-.06,1.39,4.8,4.8,0,0,1-.4,1.5,7.73,7.73,0,0,1-.4,1.33,4.34,4.34,0,0,0-.3,1c-.27.43-.46.72-.64,1l-.32.45c-.12.15-.25.32-.42.5.14,0,0,.14-.15.31s-.25.3,0,.18a9.58,9.58,0,0,0,1-.8l0,0a10.79,10.79,0,0,0,2.32-3.33,11.36,11.36,0,0,0,1-4,14.84,14.84,0,0,0-.28-2.87,10.86,10.86,0,0,0-.94-2.78,10,10,0,0,0-.81-1.36c-.15-.21-.3-.43-.47-.63l-.26-.31L20.86,4a10.79,10.79,0,0,0-2.24-1.86,4.58,4.58,0,0,1-.46-.33,4.55,4.55,0,0,0-.4-.35,13.79,13.79,0,0,0-2.48-1A11.27,11.27,0,0,0,12.48,0h.09c-.49,0-.91,0-1.34,0-.21,0-.42,0-.64,0l-.33,0L9.92.11s-.14.05-.21.08a1,1,0,0,0-.29,0L9.14.28,8.78.39A11,11,0,0,0,7,1.14,12.8,12.8,0,0,0,5.34,2.21L5,2.44l-.23.2-.27.2-.22.21A13.9,13.9,0,0,0,2.18,5.12,8.38,8.38,0,0,0,.76,7.54L.7,7.82l0,.3,0,.28a2.18,2.18,0,0,0,0,.25c-.15.28,0,.37-.14.71a2.68,2.68,0,0,0-.35,1c0,.19,0,.22.12,0a14.8,14.8,0,0,0,0,2.19c0,.31.1.62.16.93a.92.92,0,0,1,0,.55c.18.67.06.49.23,1.19a2.48,2.48,0,0,0,.36.93c.11.21.22.4.31.56a3.11,3.11,0,0,1,.19.33l-.07-.1c0,.1.08.19.12.28s.08.17.11.26.13.33.2.49a4.12,4.12,0,0,0,.53,1,10,10,0,0,0,1.12,1.35,12.39,12.39,0,0,0,1.34,1.16,12.21,12.21,0,0,0,1.49.92A12.64,12.64,0,0,0,7.79,23c.06-.1-.45-.15-.42-.29a17.79,17.79,0,0,0,1.77.65,8.4,8.4,0,0,0,1.86.37c.23.06.51.11.62.15.41,0,.24-.05.54,0l0,.1a1.65,1.65,0,0,1,.54,0,1.18,1.18,0,0,0,.53,0s.17-.06.31-.08.46-.08.45,0h0a1.86,1.86,0,0,1,.26,0l.33-.14.57-.26.55-.3c.15-.08.26-.16.3-.18h.08c.22-.08.28-.2.15-.16l.26-.11,0,0,.27-.11c.05,0,.12,0,.07.09a1.65,1.65,0,0,1,.44-.26,7.66,7.66,0,0,1-1.45.34,1.86,1.86,0,0,1,.34-.13l.35-.13a1.39,1.39,0,0,0,.23-.05L17,22.4c.2-.06.41-.15.6-.22s.07-.18.26-.24.19-.12.36-.15a2.13,2.13,0,0,1-.47.31c.08.07.43-.19.58-.25s.36-.25.54-.4c0,.13.19-.07.33-.12s.19-.18.12-.16-.54.33-.43.11c.08,0,.31-.19.44-.3,0,0-.11,0-.07-.07s.26-.28.37-.31-.08.08-.12.11-.09.21-.29.47-.4.51-.29.4a3.31,3.31,0,0,1,.4-.53,2.35,2.35,0,0,0,.34-.48c-.12.08,0-.14-.11-.05l-.08.15c-.17.12-.29.1-.26,0s0,.13-.14.35-.31.43-.2.32l-.12.05a1.38,1.38,0,0,1,.47-.36s.08-.17.18-.27l0,0c.09-.11.25-.23.13-.22-.31.27-.29.08-.28-.12s0-.39-.28-.15c.32-.12,0,.17-.27.39a1,1,0,0,0-.42.16c-.17.13-.07.1-.09.15s-.31.16-.32.09c-.1.15-.25.1-.4.22s0,0-.06.12a8.29,8.29,0,0,1-.75.36c-.1,0-.36,0-.24-.16.35-.16-.07.2.29,0-.11,0,0-.07.07-.12s.24-.14.24-.2a.83.83,0,0,0-.26.08c-.09,0-.2.1-.29.16h0a2,2,0,0,1-.71.3c0-.06-.07-.06,0-.13l-.24.09s-.06,0,0,0a.6.6,0,0,1-.32.1,4.68,4.68,0,0,0-.65.29,4.22,4.22,0,0,1-.61.24c-.19,0-.24,0-.42.06a3.79,3.79,0,0,0,.84-.25c.2-.07.38-.15.51-.21s.18-.08.12-.06a3.33,3.33,0,0,0-.38.13c-.19.07-.44.18-.69.25s-.52.15-.72.2a1,1,0,0,1-.38,0c-.14,0-.3,0-.27.09-.24,0,.07-.1-.11-.14,0,0,0,0,0,0l-.17-.05a2.54,2.54,0,0,1-.63,0,3.56,3.56,0,0,0-.66,0,2.23,2.23,0,0,1,.49-.17l0,0s.23,0,.23-.08a2.22,2.22,0,0,0-.68,0l-.12-.05v0c-.08,0-.07,0,0-.06h0c-.07-.08-.29-.07-.55-.07a2.56,2.56,0,0,1-.76-.09c-.12,0,0,0-.17,0l-.54-.21-.55-.23c-.15,0-.17,0,0,.15l-.31-.13c.34-.05-.53-.37-.15-.41a1.23,1.23,0,0,0-.43-.21s-.09.09-.3,0a3.28,3.28,0,0,1-.41-.32c0-.08.06-.05.08-.09-.4-.14-.25-.28-.58-.47s-.59-.39-.65-.33C5.48,19.64,5.53,19.59,5.6,19.54Z"/><path d="M18.69,7.24A8.81,8.81,0,0,1,16.85,9.8l-1.47,1.32C10.49,14.36,7.69,16.3,7,16.91s-.89.67-1,.53l-.12-.15q-.81-.88,2.93-5a49.55,49.55,0,0,1,9.48-5.21A.45.45,0,0,1,18.69,7.24Z"/><path d="M16.56,18.55A8.87,8.87,0,0,1,14,16.71l-1.31-1.47Q7.81,7.9,6.88,6.86c-.49-.55-.67-.89-.52-1l.14-.12q.9-.81,5,2.93a49.55,49.55,0,0,1,5.21,9.48A.49.49,0,0,1,16.56,18.55Z"/></svg>