<svg id="Layer_1" data-name="Layer 1" xmlns="http://www.w3.org/2000/svg" viewBox="0 0 24 24"><path d="M12.05,5.2H4.29c-.2,0-.4,0-.6,0A1.43,1.43,0,0,1,2.32,3.9,1.36,1.36,0,0,1,3.7,2.63c1.44,0,2.89,0,4.33,0,.64,0,.85-.15.83-.82,0-1.8,0-1.8,1.78-1.8,1.22,0,2.44,0,3.66,0,.69,0,1,.29,1,1,0,1.63,0,1.63,1.69,1.63,1.07,0,2.14,0,3.21,0s1.48.46,1.48,1.29S21.15,5.2,20.19,5.2Zm0-3.87c-.52,0-1,0-1.56,0s-.44.29-.42.59-.16.69.39.69h3.06c.17,0,.34,0,.41-.22.22-.68,0-1.06-.76-1.06Z"/><path d="M19.82,6H3.92C2.7,6,2.26,6.5,2.44,7.7c.08.57.19,1.13.28,1.7q1.07,6.47,2.14,13c.23,1.38.58,1.65,2,1.65h10.3c1.43,0,1.8-.32,2-1.71s.4-2.69.63-4C20.36,14.8,21,11.35,21.53,7.9,21.78,6.39,21.38,6,19.82,6Zm-1.8,10s-.43,0-.43,0A66.11,66.11,0,0,0,9.67,17C9.1,16.9,2.88,18.8,5,17.2a19.57,19.57,0,0,1,3.54-2.06c.55-.37.74-1.12,1.13-1.65,1.23-.76,2.93-.79,4.31-1.29.24,0,.58-.2.66.12.29.54.14,1.47.88,1.56.89.33,3.74.73,3.88,1.69C19.34,16.05,18.34,15.86,18,15.94Z"/></svg>