<svg id="Layer_1" data-name="Layer 1" xmlns="http://www.w3.org/2000/svg" viewBox="0 0 24 24"><path d="M10.18,5h-1a2.22,2.22,0,0,1,1.73-3S13,1.71,13.35,3.5H12.9l-.07,1.08s-.31.92-.71,1S10.38,6,10.18,5Z"/><path d="M18.4,8.62v2.65s-1.47-.12-1.58-1.32S18.4,8.62,18.4,8.62Z"/><path d="M20.58,16.29a2.86,2.86,0,1,0,2.85,2.86A2.86,2.86,0,0,0,20.58,16.29Zm0,4.49a1.64,1.64,0,1,1,1.63-1.63A1.63,1.63,0,0,1,20.58,20.78Z"/><path d="M18.23,13.64c-.3-.51-1.63-3.46-1.63-3.46s-.2-.31-1.22-.21a.69.69,0,0,0,.3-.51A.86.86,0,0,0,15,8.75H12.52s-.34-3.12-2-3c0,0-1.26-.12-1.67,1.71s-.81,4-.81,4-.35,1.07,1,1.5h1.68v.16H3.52a2.49,2.49,0,0,0,0,.57,5.68,5.68,0,0,0,.64,1A7.13,7.13,0,0,0,2,16.8a9.19,9.19,0,0,0-1,1.84s-.4.71.41.71h1a2.45,2.45,0,0,0,1.47,2.34,3,3,0,0,0,3.06-.3s.91-.41,1-2l6.72-.1s.41.1,1-.61,2.65-3.78,2.65-3.78A1.73,1.73,0,0,0,18.23,13.64ZM5.08,20.78a1.64,1.64,0,1,1,1.63-1.63A1.63,1.63,0,0,1,5.08,20.78Zm3.63-2.91c-.1.44-.44.26-.44.26S8,18,8.16,17.76a1.69,1.69,0,0,0,.2-1.05,1.56,1.56,0,0,0-.87-1.3c-.93-.41-1.36-.1-1.36-.1-.46,0-.48-.44-.06-.57a2.49,2.49,0,0,1,1.09,0,2.12,2.12,0,0,1,1.63,1.53A2,2,0,0,1,8.71,17.87Zm8.45-3.16S15.53,17.16,15,17.77s-.65.53-.65.53-2,0-2.41,0-1-1-1.22-1.45a3.47,3.47,0,0,1-.1-1.43c0-.4,1.83-1.93,1.83-1.93v-.31l1.33.1L12.88,16s-.82,1.63.14,2a1,1,0,0,0,1.33-.51s1.08-3.21,1.49-4.63a1.08,1.08,0,0,0-.92-1.53l-3.77-.61,0-.43c.05-.43-1.06-2-1.06-2,0-.61.41-.31.41-.31s.71,1.23.91,1.74a.6.6,0,0,0,.68.4h2.18c-.41.82.3.92.3.92h1.23s1,2.24,1.32,2.71A.93.93,0,0,1,17.16,14.71Z"/><path d="M23.43,16.09a3.76,3.76,0,0,0-2.85-1,3.87,3.87,0,0,0-3.57,2A4.48,4.48,0,0,0,16.5,19c0,.82.81,1,1,.21,0,0-.31-.92.92-2.35a2.85,2.85,0,0,1,2.75-.81,3.13,3.13,0,0,1,1.73.91.55.55,0,0,0,.71,0S24.14,16.5,23.43,16.09Z"/><path d="M7.32,11.81V5.69a.5.5,0,0,0-.5-.51H.7a.51.51,0,0,0-.51.51v6.12a.51.51,0,0,0,.51.51H6.82A.5.5,0,0,0,7.32,11.81ZM5.81,9,5.65,9a23.78,23.78,0,0,0-2.9.4c-.21,0-2.49.67-1.7.08a7.23,7.23,0,0,1,1.29-.75c.21-.14.28-.41.42-.61a8.78,8.78,0,0,1,1.58-.47c.08,0,.21-.07.24,0s0,.53.32.57,1.37.26,1.42.62C6.29,9,5.93,9,5.81,9Z"/></svg>