<svg id="Layer_1" data-name="Layer 1" xmlns="http://www.w3.org/2000/svg" viewBox="0 0 24 24"><defs><style>.cls-1{fill:none;}</style></defs><g id="Icon_awesome-dice" data-name="Icon awesome-dice"><path class="cls-1" d="M21.35,9.82H17.28a2.76,2.76,0,0,1-.59,3.06L12,17.56c0,1.35-.22,3.15,1.65,3.24h7.68A1.65,1.65,0,0,0,23,19.15h0V11.46A1.64,1.64,0,0,0,21.35,9.82Zm-3.87,6.3a.83.83,0,0,1,0-1.65A.83.83,0,0,1,17.48,16.12ZM15.89,9.71l-6-6a1.68,1.68,0,0,0-2.38,0l-6,6a1.7,1.7,0,0,0,0,2.38l6,6a1.68,1.68,0,0,0,2.38,0l6-6a1.68,1.68,0,0,0,0-2.38Zm-11.59,2a.83.83,0,1,1,.82-.82h0A.82.82,0,0,1,4.3,11.72Zm4.39,4.4a.83.83,0,0,1,0-1.65A.83.83,0,0,1,8.69,16.12Zm0-4.4a.83.83,0,0,1,0-1.65A.83.83,0,0,1,8.69,11.72Zm0-4.39a.83.83,0,0,1,0-1.65A.83.83,0,0,1,8.69,7.33Zm4.4,4.39a.83.83,0,0,1,0-1.65A.83.83,0,0,1,13.09,11.72Z"/><path d="M12.22,11.53l-.06.11c0,.11.05.25,0,.36S12,12,12,12c-.12-.25,0-.45,0-.67,0,0-.08-.06-.14-.11l0,.05c-.09-.08,0-.23-.09-.35l0,0c.12-.09.09-.27.13-.42l.07,0a3.28,3.28,0,0,1,.15-.38c0-.14.24-.24.39-.34.31-.14.6,0,.88-.16a.16.16,0,0,1,.2.1c.24-.17.57.13.68.36a.21.21,0,0,1,0,.24.88.88,0,0,1,.31.65,1,1,0,0,1-.39.91A.5.5,0,0,0,14,12h-.09a.94.94,0,0,1-.52.29c-.25,0-.28-.27-.3-.47.2-.16.19-.5.37-.46s.08-.1.08-.16.1-.07,0-.15c.16,0,.31-.19.21-.32s0,0,.05,0c-.19-.15-.25-.31-.43-.36s-.19-.09-.3,0-.06,0-.09,0,0,0,0,.05-.12.08-.2,0-.11.05-.17.08-.08.21-.23.28,0,0,0,.08l0,0s.08,0,.08.07.07.32,0,.53C12.32,11.51,12.26,11.47,12.22,11.53Z"/><path d="M13,12.38s0,0,.06,0a.39.39,0,0,0-.09-.11l.08,0c.05-.07-.07,0,0-.06s.07,0,.05.07,0,0-.05,0,0,.08.06.11H13Z"/><path d="M12.73,12.25h0s0,0,0-.08,0,.1,0,.17S12.71,12.28,12.73,12.25Z"/><path d="M12.89,12.13c0,.08.09,0,.09.1l-.11-.09Z"/><path d="M12.18,11.8s0,0-.06-.06,0,0,.06.07Z"/><path d="M12.06,10.28a.22.22,0,0,0-.16.09C11.93,10.3,12,10.28,12.06,10.28Z"/><path d="M12.69,10s0,0,0,.05,0-.08,0,0Z"/><path d="M12.79,10.15l0,0Z"/><path d="M11.76,11.49h0Z"/><path d="M11.75,11.36s0,.07,0,.1h0C11.75,11.41,11.79,11.42,11.75,11.36Z"/><path d="M11.79,11.46l0,0c.07,0,0,.13.07.22A.54.54,0,0,0,11.79,11.46Z"/><path d="M11.88,11.52h0a.06.06,0,0,1,0,.05l0,0c.05,0,0-.16,0-.2Z"/><polygon points="12.5 11.6 12.5 11.6 12.5 11.6 12.5 11.6"/><path d="M12.52,11.44l-.07.06s0,.07.05.1h0C12.55,11.52,12.49,11.51,12.52,11.44Z"/><path d="M11.82,11.24c0,.06,0,.11.08.12v-.13C11.87,11.29,11.86,11.24,11.82,11.24Z"/><path d="M12,11.1l0,.05,0,0Z"/><path d="M12,11.13l0,0Z"/><path d="M12.11,11.2c.05,0,0,0,0-.08S12.1,11.18,12.11,11.2Z"/><polygon points="12.1 10.98 12.15 10.96 12.08 10.96 12.1 10.98"/><path d="M11.87,10.53c0,.07.07,0,.1,0Z"/><path d="M12.25,10.92l-.06,0h0s0,0,0,0S12.24,11,12.25,10.92Z"/><path d="M12.11,10.73a.1.1,0,0,1,.05,0"/><path d="M12.47,11s.11-.06.09,0,0,0,0,0-.06,0-.1,0S12.49,11,12.47,11Z"/><path d="M12.53,10.91s0,0,0,0S12.48,10.9,12.53,10.91Z"/><polygon points="12.68 10.9 12.63 10.91 12.7 10.9 12.68 10.9"/><line x1="12.34" y1="10.46" x2="12.27" y2="10.43"/><path d="M12.69,10.83v0l0,0a.08.08,0,0,0-.09,0Z"/><path d="M12.58,10.87h0s0,0,0,0A.05.05,0,0,1,12.58,10.87Z"/><path d="M12.63,10.84h0Z"/><path d="M12.43,10.28s0,0-.06.05A.1.1,0,0,0,12.43,10.28Z"/><path d="M12.77,10.81h0l-.06,0S12.76,10.81,12.77,10.81Z"/><path d="M12.9,10.81s0,0,0,0h-.07Z"/><path d="M13,10.82h0C13.05,10.85,13,10.83,13,10.82Z"/><path d="M13,10.8l0,0h0Z"/><path d="M12.28,11v-.05l0,.09Z"/><path d="M13.72,12.31c.1-.17.31-.34.39-.47a1.12,1.12,0,0,0,.19-.75h0a1,1,0,0,0-.09-.64l0,0s0,.08,0,.07,0-.11,0-.13l-.07,0s.14-.06.07-.12,0-.22-.16-.13c.05-.09-.07-.1-.1-.13l0,.07c0-.08,0-.23-.08-.24a.76.76,0,0,0-.36-.11c0-.09.11,0,.07-.06-.25.05-.54-.17-.81,0,0,0,0,0,0,0s-.12,0-.22,0,.14,0,.19,0,0,0-.13,0a.05.05,0,0,1,0,0c-.09.06-.08-.06-.14,0h.06c-.07,0,0,0-.08.1a.12.12,0,0,0-.12-.08s-.08.07,0,.12c-.18,0-.08.12-.25.12,0,.07.08,0,.12,0s-.08,0-.12,0a.39.39,0,0,1-.13.22l0,0c-.1.06-.15.22-.23.24.07.05.08,0,.1-.09s.05.07,0,.1,0,0,0,0,0,0,0,.07,0-.05-.06,0,0,.15.06.11-.08,0-.11.07,0-.1,0-.15,0,0-.07,0-.06.24,0,.23l0,0,0,0v0c.07,0,.1-.11.18-.14s0,0,0,.07l-.06,0c0,.06.11,0,.09.11s-.1.11-.14.19c.15,0,.1,0,.23,0s.08.12.07.21c-.07-.16-.05.12-.15,0s0,.05,0,.08-.1,0-.15.07l.07,0a.27.27,0,0,0,0,.25s.1,0,.11,0,0,.07,0,.14c.23,0,0-.26.09-.37-.11-.21.19-.37.22-.55-.05,0-.07,0-.1-.05s-.08.1-.14.16-.05,0,0,0l-.07,0c-.06-.11.1-.09.06-.18l0,0,0,0h0S12,11,12,10.9l.06,0s.05,0,0-.07.06,0,.07,0a.66.66,0,0,0,.07-.15.37.37,0,0,1,.22-.37h0s0,0,.07,0h.08a.22.22,0,0,1,.12-.11s0,.05,0,.06,0,0,0-.06.06,0,.09,0a.94.94,0,0,0,0,.09s0-.07,0-.05,0-.06-.06-.12h0l-.06-.06a.21.21,0,0,1,.15.1l-.05,0c0,.09.07,0,.1,0h0c.06,0,0-.05,0-.06l.08.07,0-.06s.12,0,.18.07.08,0,.13,0,0,0,0-.05.09,0,0,.08l.05,0s0,0,0,0v0h.05s0,0,0,0,.14,0,.18.1h0c.07,0,0,.08.05.1l0,0c.05,0,0,.11,0,.12s0,0,.08,0l-.09.06s.06,0,.11,0,0,.08,0,.09h0s0,0,0,0-.1.06-.09.15h.08c0,.07,0,.15.07.22h-.07s.07,0,.07.07h-.05a.55.55,0,0,1-.14.18,0,0,0,0,1,0,0,.57.57,0,0,0,0,.14.89.89,0,0,0-.38,0,5.62,5.62,0,0,0-.09.57A.54.54,0,0,0,13.72,12.31Z"/><path d="M7.82,7.14l-.06.11c0,.1,0,.24,0,.35s-.2,0-.21,0c-.12-.25,0-.46,0-.68,0,0-.08-.05-.14-.11l0,0c-.09-.08,0-.23-.09-.34l-.05,0c.13-.1.1-.28.14-.42a.13.13,0,0,1,.06,0c0-.13.11-.22.15-.39s.25-.23.4-.34.6,0,.88-.16c.05,0,.14,0,.19.1.24-.16.57.13.69.36a.23.23,0,0,1,0,.24.88.88,0,0,1,.31.65,1,1,0,0,1-.38.91.47.47,0,0,0-.12.18H9.52c-.17.13-.33.29-.52.29s-.28-.27-.3-.46c.2-.17.18-.51.37-.47s.07-.1.07-.16.11-.06,0-.14c.17,0,.32-.2.21-.32s0,0,.05,0C9.22,6.18,9.16,6,9,6s-.19-.08-.3,0-.06,0-.09,0,0,0,0,0-.12.07-.2,0-.11,0-.17.08-.08.22-.22.29,0,0,0,.07l0,0s.08,0,.08.06.08.32,0,.54C7.93,7.11,7.86,7.07,7.82,7.14Z"/><path d="M8.59,8s0,0,.06,0a.21.21,0,0,0-.08-.11h.08c0-.07-.08,0,0,0s.07,0,.05.06,0,0-.05,0,0,.08.06.12L8.55,8Z"/><path d="M8.33,7.85l0,0s0-.06,0-.09,0,.1,0,.18S8.31,7.88,8.33,7.85Z"/><path d="M8.5,7.74c0,.07.08,0,.08.1l-.1-.09Z"/><path d="M7.78,7.4s0,0-.06-.05l.06.06Z"/><path d="M7.66,5.88A.28.28,0,0,0,7.5,6,.19.19,0,0,1,7.66,5.88Z"/><path d="M8.3,5.64s0,0,0,0,0-.07-.05,0A.05.05,0,0,1,8.3,5.64Z"/><path d="M8.39,5.75l0,0Z"/><path d="M7.36,7.1h0Z"/><path d="M7.36,7l0,.1,0,0C7.35,7,7.4,7,7.36,7Z"/><path d="M7.39,7.07l0,0c.08,0,0,.12.08.21A.7.7,0,0,0,7.39,7.07Z"/><path d="M7.48,7.12l0,0s0,0,0,0l0,0c.06,0,0-.16,0-.2Z"/><polygon points="8.11 7.2 8.1 7.2 8.11 7.2 8.11 7.2"/><path d="M8.12,7l-.07.06s0,.08,0,.1h0C8.15,7.12,8.09,7.11,8.12,7Z"/><path d="M7.43,6.84c0,.07,0,.12.08.12V6.84S7.46,6.84,7.43,6.84Z"/><path d="M7.58,6.71v0l0,0Z"/><path d="M7.62,6.73s0,0,0,0Z"/><path d="M7.71,6.81s0,0,0-.08S7.71,6.78,7.71,6.81Z"/><polygon points="7.71 6.59 7.75 6.57 7.69 6.57 7.71 6.59"/><path d="M7.47,6.13c0,.08.07,0,.1,0Z"/><path d="M7.85,6.53h0a0,0,0,0,1,0,0C7.88,6.59,7.84,6.55,7.85,6.53Z"/><path d="M7.71,6.33l0,0"/><path d="M8.08,6.6s.11-.06.08,0,0,0,.06,0-.07,0-.1,0S8.09,6.58,8.08,6.6Z"/><path d="M8.13,6.51s0,0,0,0S8.08,6.5,8.13,6.51Z"/><polygon points="8.29 6.5 8.23 6.52 8.3 6.51 8.29 6.5"/><line x1="7.95" y1="6.07" x2="7.87" y2="6.03"/><path d="M8.3,6.43v0l0,0s-.06,0-.08,0Z"/><path d="M8.18,6.47l0,0s0,0,0,0Z"/><path d="M8.24,6.45h0Z"/><path d="M8,5.88,8,5.93S8,5.91,8,5.88Z"/><path d="M8.38,6.42H8.31Z"/><path d="M8.51,6.42s0,0,0,0,0,0-.07,0S8.48,6.41,8.51,6.42Z"/><path d="M8.6,6.43h0C8.66,6.46,8.6,6.43,8.6,6.43Z"/><path d="M8.58,6.4l0,0h0Z"/><path d="M7.89,6.59l0-.06,0,.09Z"/><path d="M9.32,7.91c.11-.16.31-.34.4-.47a1.1,1.1,0,0,0,.19-.75h0a1,1,0,0,0-.09-.64l0,0s0,.07,0,.06,0-.11,0-.13H9.73s.13-.07.06-.13,0-.21-.16-.13c0-.09-.06-.1-.09-.13l0,.07c0-.08,0-.22-.08-.23a1,1,0,0,0-.37-.12c0-.08.12,0,.07-.06-.24.06-.53-.17-.81,0,0,0,0,0,0,0s-.12,0-.22,0,.15,0,.19,0,0,0-.12,0l0,0c-.08.07-.07-.06-.14,0l.06,0c-.07,0,0,0-.07.1a.15.15,0,0,0-.13-.09s-.08.08,0,.12c-.18,0-.08.12-.25.12,0,.07.09,0,.12,0s-.08,0-.12,0a.4.4,0,0,1-.13.21l0,0c-.1.06-.15.21-.24.23.07.06.09,0,.11-.08s0,.07,0,.09,0,0,0,0,0,0,0,.06,0,0-.06,0,0,.15.06.12-.08,0-.12.07,0-.11,0-.15a0,0,0,0,0-.07,0c0,.08-.07.23,0,.23l-.05,0,.06,0h0c.07,0,.11-.11.18-.13s0,0,0,.06l-.06,0c0,.06.12,0,.1.12s-.11.1-.14.18c.15,0,.1,0,.22,0s.08.12.07.2c-.07-.16,0,.12-.15,0,0,0,0,0,0,.08s-.1,0-.15.08l.07,0c0,.07-.07.14,0,.24a.11.11,0,0,1,.12.06s0,.06,0,.14c.23,0,0-.27.09-.37C7.66,7,8,6.87,8,6.7s-.06,0-.09-.06-.09.1-.15.16,0,0,0,0l-.07,0c-.06-.11.1-.08.06-.17l0,0,0,0h0s-.07,0,0-.1l.05,0s0,0,0-.08l.07,0a.37.37,0,0,0,.07-.14A.38.38,0,0,1,8.08,6h0s0,0,.07,0l.09,0a.18.18,0,0,1,.11-.1s0,0,0,0,0,0,0-.06.07,0,.1,0a.16.16,0,0,0,0,.09s0-.07,0,0,0-.06-.07-.11h0L8.33,5.7a.21.21,0,0,1,.15.1l0,0c0,.1.06,0,.09,0h0c.05,0,0,0,0-.06l.08.07,0-.06s.13,0,.18.08.09,0,.13,0,0,0,0,0,.09,0,0,.08l.06,0a.05.05,0,0,1,0,0v0h.05s0,.05,0,0,.14,0,.18.1h0c.08,0,0,.08.05.09l0,0s0,.12,0,.12c.11,0,0,0,.09,0l-.1.06s.07,0,.11,0,0,.08,0,.09h0s0,0,0,0-.1.06-.08.14h.08c0,.06,0,.14.07.21H9.45s.07,0,.06.08h0A.68.68,0,0,1,9.33,7s0,0,0,0,0,.1,0,.14a.8.8,0,0,0-.37,0,2.71,2.71,0,0,0-.09.57C8.85,7.8,9,7.92,9.32,7.91Z"/><path d="M7.82,11.53l-.06.11c0,.11,0,.25,0,.36s-.2,0-.21,0c-.12-.25,0-.45,0-.67,0,0-.08-.06-.14-.11l0,.05c-.09-.08,0-.23-.09-.35l-.05,0c.13-.09.1-.27.14-.42l.06,0c0-.13.11-.22.15-.38s.25-.24.4-.34.6,0,.88-.16c.05,0,.14,0,.19.1.24-.17.57.13.69.36a.23.23,0,0,1,0,.24.88.88,0,0,1,.31.65,1,1,0,0,1-.38.91A.52.52,0,0,0,9.6,12H9.52c-.17.13-.33.29-.52.29s-.28-.27-.3-.47c.2-.16.18-.5.37-.46s.07-.1.07-.16.11-.07,0-.15c.17,0,.32-.19.21-.32s0,0,.05,0c-.18-.15-.24-.31-.43-.36s-.19-.09-.3,0-.06,0-.09,0l0,.05c-.07,0-.12.08-.2,0s-.11.05-.17.08-.08.21-.22.28,0,0,0,.08l0,0S8,11,8,11s.08.32,0,.53C7.93,11.51,7.86,11.47,7.82,11.53Z"/><path d="M8.59,12.38s0,0,.06,0a.33.33,0,0,0-.08-.11l.08,0c0-.07-.08,0,0-.06s.07,0,.05.07,0,0-.05,0,0,.08.06.11H8.55Z"/><path d="M8.33,12.25h0s0,0,0-.08,0,.1,0,.17S8.31,12.28,8.33,12.25Z"/><path d="M8.5,12.13c0,.08.08,0,.08.1l-.1-.09Z"/><path d="M7.78,11.8s0,0-.06-.06l.06.07Z"/><path d="M7.66,10.28a.26.26,0,0,0-.16.09C7.53,10.3,7.64,10.28,7.66,10.28Z"/><path d="M8.3,10s0,0,0,.05,0-.08-.05,0Z"/><path d="M8.39,10.15l0,0Z"/><path d="M7.36,11.49h0Z"/><path d="M7.36,11.36l0,.1h0C7.35,11.41,7.4,11.42,7.36,11.36Z"/><path d="M7.39,11.46l0,0c.08,0,0,.13.08.22A.7.7,0,0,0,7.39,11.46Z"/><path d="M7.48,11.52h0s0,0,0,.05l0,0c.06,0,0-.16,0-.2Z"/><polygon points="8.11 11.6 8.1 11.6 8.11 11.6 8.11 11.6"/><path d="M8.12,11.44l-.07.06s0,.07,0,.1h0C8.15,11.52,8.09,11.51,8.12,11.44Z"/><path d="M7.43,11.24c0,.06,0,.11.08.12v-.13C7.47,11.29,7.46,11.24,7.43,11.24Z"/><path d="M7.58,11.1v.05l0,0A.05.05,0,0,1,7.58,11.1Z"/><path d="M7.62,11.13l0,0Z"/><path d="M7.71,11.2s0,0,0-.08S7.71,11.18,7.71,11.2Z"/><polygon points="7.71 10.98 7.75 10.96 7.69 10.96 7.71 10.98"/><path d="M7.47,10.53c0,.07.07,0,.1,0Z"/><path d="M7.85,10.92l-.06,0h0s0,0,0,0S7.84,11,7.85,10.92Z"/><path d="M7.71,10.73s0,0,0,0"/><path d="M8.08,11s.11-.06.08,0,0,0,.06,0-.07,0-.1,0S8.09,11,8.08,11Z"/><path d="M8.13,10.91s0,0,0,0S8.08,10.9,8.13,10.91Z"/><polygon points="8.29 10.9 8.23 10.91 8.3 10.9 8.29 10.9"/><line x1="7.95" y1="10.46" x2="7.87" y2="10.43"/><path d="M8.3,10.83v0l0,0a.06.06,0,0,0-.08,0Z"/><path d="M8.18,10.87h0s0,0,0,0Z"/><path d="M8.24,10.84h0Z"/><path d="M8,10.28,8,10.33A.08.08,0,0,0,8,10.28Z"/><path d="M8.38,10.81h0l-.07,0S8.36,10.81,8.38,10.81Z"/><path d="M8.51,10.81s0,0,0,0H8.44Z"/><path d="M8.6,10.82h0C8.66,10.85,8.6,10.83,8.6,10.82Z"/><path d="M8.58,10.8l0,0h0Z"/><path d="M7.89,11l0-.05,0,.09Z"/><path d="M9.32,12.31c.11-.17.31-.34.4-.47a1.12,1.12,0,0,0,.19-.75h0a1,1,0,0,0-.09-.64l0,0s0,.08,0,.07,0-.11,0-.13l-.06,0s.13-.06.06-.12,0-.22-.16-.13c0-.09-.06-.1-.09-.13l0,.07c0-.08,0-.23-.08-.24a.83.83,0,0,0-.37-.11c0-.09.12,0,.07-.06-.24.05-.53-.17-.81,0,0,0,0,0,0,0s-.12,0-.22,0,.15,0,.19,0,0,0-.12,0a0,0,0,0,1,0,0c-.08.06-.07-.06-.14,0h.06c-.07,0,0,0-.07.1a.12.12,0,0,0-.13-.08s-.08.07,0,.12c-.18,0-.08.12-.25.12,0,.07.09,0,.12,0s-.08,0-.12,0a.39.39,0,0,1-.13.22l0,0c-.1.06-.15.22-.24.24.07.05.09,0,.11-.09s0,.07,0,.1,0,0,0,0,0,0,0,.07,0-.05-.06,0,0,.15.06.11-.08,0-.12.07,0-.1,0-.15a0,0,0,0,0-.07,0c0,.08-.07.24,0,.23l-.05,0,.06,0,0,0c.07,0,.11-.11.18-.14s0,0,0,.07l-.06,0c0,.06.12,0,.1.11s-.11.11-.14.19c.15,0,.1,0,.22,0s.08.12.07.21c-.07-.16,0,.12-.15,0s0,.05,0,.08-.1,0-.15.07l.07,0a.34.34,0,0,0,0,.25.1.1,0,0,1,.12,0c0,.05,0,.07,0,.14.23,0,0-.26.09-.37-.1-.21.2-.37.22-.55-.05,0-.06,0-.09-.05s-.09.1-.15.16,0,0,0,0l-.07,0c-.06-.11.1-.09.06-.18l0,0,0,0h0s-.07,0,0-.09l.05,0s0,0,0-.07.07,0,.07,0a.4.4,0,0,0,.07-.15.39.39,0,0,1,.22-.37h0s0,0,.07,0h.09a.17.17,0,0,1,.11-.11s0,.05,0,.06,0,0,0-.06.07,0,.1,0a.14.14,0,0,0,0,.09s0-.07,0-.05,0-.06-.07-.12h0l-.06-.06a.21.21,0,0,1,.15.1l0,0c0,.09.06,0,.09,0h0c.05,0,0-.05,0-.06l.08.07,0-.06s.13,0,.18.07.09,0,.13,0,0,0,0-.05.09,0,0,.08l.06,0s0,0,0,0v0h.05s0,0,0,0,.14,0,.18.1h0c.08,0,0,.08.05.1l0,0a.07.07,0,0,1,0,.12c.11-.05,0,0,.09,0l-.1.06s.07,0,.11,0,0,.08,0,.09h0s0,0,0,0-.1.06-.08.15h.08c0,.07,0,.15.07.22H9.45s.07,0,.06.07h0a.68.68,0,0,1-.13.18l0,0s0,.1,0,.14a.82.82,0,0,0-.37,0,2.82,2.82,0,0,0-.09.57C8.85,12.19,9,12.31,9.32,12.31Z"/><path d="M7.82,15.93,7.76,16c0,.1,0,.24,0,.35s-.2,0-.21,0c-.12-.25,0-.46,0-.67,0,0-.08-.06-.14-.12l0,.05c-.09-.07,0-.23-.09-.34l-.05,0c.13-.1.1-.28.14-.42l.06-.05c0-.13.11-.22.15-.39s.25-.23.4-.33.6,0,.88-.16c.05,0,.14,0,.19.09.24-.16.57.13.69.36a.23.23,0,0,1,0,.24.9.9,0,0,1,.31.65,1,1,0,0,1-.38.91.47.47,0,0,0-.12.18H9.52c-.17.13-.33.29-.52.29s-.28-.26-.3-.46c.2-.16.18-.51.37-.47s.07-.1.07-.15.11-.07,0-.15c.17,0,.32-.19.21-.32s0,0,.05,0c-.18-.14-.24-.31-.43-.35s-.19-.09-.3,0-.06,0-.09,0l0,0c-.07,0-.12.08-.2,0s-.11.06-.17.08-.08.22-.22.29,0,.05,0,.07l0,0s.08,0,.08.06c0,.17.08.33,0,.54C7.93,15.9,7.86,15.86,7.82,15.93Z"/><path d="M8.59,16.78s0,0,.06,0a.21.21,0,0,0-.08-.11l.08,0c0-.08-.08,0,0-.06s.07,0,.05.07,0,0-.05,0,0,.07.06.11l-.13,0Z"/><path d="M8.33,16.64l0,0s0-.06,0-.08,0,.09,0,.17S8.31,16.67,8.33,16.64Z"/><path d="M8.5,16.53c0,.07.08,0,.08.1l-.1-.09Z"/><path d="M7.78,16.2s0,0-.06-.06l.06.07Z"/><path d="M7.66,14.67a.28.28,0,0,0-.16.1C7.53,14.7,7.64,14.68,7.66,14.67Z"/><path d="M8.3,14.43s0,0,0,0,0-.07-.05,0Z"/><path d="M8.39,14.54l0,0Z"/><path d="M7.36,15.89h0Z"/><path d="M7.36,15.75l0,.11h0C7.35,15.81,7.4,15.81,7.36,15.75Z"/><path d="M7.39,15.86l0,0c.08,0,0,.13.08.22A.7.7,0,0,0,7.39,15.86Z"/><path d="M7.48,15.92h0a0,0,0,0,1,0,0l0,0c.06,0,0-.17,0-.21Z"/><polygon points="8.11 15.99 8.1 15.99 8.11 16 8.11 15.99"/><path d="M8.12,15.83l-.07.06s0,.08,0,.1h0C8.15,15.91,8.09,15.91,8.12,15.83Z"/><path d="M7.43,15.63c0,.07,0,.12.08.12v-.12S7.46,15.63,7.43,15.63Z"/><path d="M7.58,15.5v.05l0,0A0,0,0,0,1,7.58,15.5Z"/><path d="M7.62,15.52s0,0,0,0Z"/><path d="M7.71,15.6s0,0,0-.08S7.71,15.57,7.71,15.6Z"/><polygon points="7.71 15.38 7.75 15.36 7.69 15.36 7.71 15.38"/><path d="M7.47,14.92c0,.08.07,0,.1,0Z"/><path d="M7.85,15.32l-.06,0h0a0,0,0,0,1,0,0C7.88,15.39,7.84,15.34,7.85,15.32Z"/><path d="M7.71,15.12s0,0,0,0"/><path d="M8.08,15.39s.11-.06.08,0,0-.05.06,0-.07,0-.1,0S8.09,15.37,8.08,15.39Z"/><path d="M8.13,15.31s0,0,0-.05S8.08,15.29,8.13,15.31Z"/><polygon points="8.29 15.29 8.23 15.31 8.3 15.3 8.29 15.29"/><line x1="7.95" y1="14.86" x2="7.87" y2="14.82"/><path d="M8.3,15.22v0l0,0s-.06,0-.08,0Z"/><path d="M8.18,15.26l0,0s0,0,0,0Z"/><path d="M8.24,15.24h0Z"/><path d="M8,14.67,8,14.73A.07.07,0,0,0,8,14.67Z"/><path d="M8.38,15.21H8.31Z"/><path d="M8.51,15.21s0,0,0,0,0,0-.07,0S8.48,15.2,8.51,15.21Z"/><path d="M8.6,15.22h0C8.66,15.25,8.6,15.23,8.6,15.22Z"/><path d="M8.58,15.19l0,0h0Z"/><path d="M7.89,15.38l0-.05,0,.08Z"/><path d="M9.32,16.7c.11-.16.31-.34.4-.47a1.09,1.09,0,0,0,.19-.74h0a1,1,0,0,0-.09-.63l0,0s0,.08,0,.06,0-.1,0-.13H9.73s.13-.07.06-.13,0-.21-.16-.13c0-.08-.06-.1-.09-.12l0,.06c0-.08,0-.22-.08-.23a.83.83,0,0,0-.37-.11c0-.09.12,0,.07-.07-.24.06-.53-.16-.81,0,0,0,0,0,0,0s-.12,0-.22,0,.15,0,.19,0,0,0-.12,0l0,0c-.08.07-.07-.06-.14,0l.06,0c-.07,0,0,0-.07.1a.12.12,0,0,0-.13-.08s-.08.07,0,.11c-.18,0-.08.12-.25.12,0,.08.09,0,.12,0s-.08,0-.12,0-.06.18-.13.21l0,0c-.1.06-.15.21-.24.23.07.06.09,0,.11-.08s0,.07,0,.1,0,0,0,0,0,0,0,.06,0,0-.06,0,0,.15.06.12-.08,0-.12.07,0-.11,0-.15a0,0,0,0,0-.07,0c0,.08-.07.23,0,.23l-.05,0,.06,0h0c.07,0,.11-.11.18-.13s0,0,0,.06l-.06,0c0,.06.12,0,.1.12s-.11.11-.14.18c.15,0,.1,0,.22,0s.08.12.07.2c-.07-.15,0,.12-.15,0s0,.06,0,.08-.1,0-.15.08l.07,0c0,.07-.07.14,0,.24a.11.11,0,0,1,.12.06s0,.06,0,.14c.23,0,0-.27.09-.37-.1-.21.2-.38.22-.55-.05,0-.06,0-.09-.06s-.09.1-.15.17,0,0,0-.06l-.07,0c-.06-.11.1-.08.06-.17l0,0,0,0h0s-.07,0,0-.09l.05,0s0,0,0-.08.07,0,.07,0a.37.37,0,0,0,.07-.14.38.38,0,0,1,.22-.37h0s0,0,.07,0l.09,0a.18.18,0,0,1,.11-.1s0,0,0,0,0,0,0-.06.07,0,.1,0a.11.11,0,0,0,0,.08s0-.06,0-.05,0-.05-.07-.11h0l-.06-.07a.24.24,0,0,1,.15.1h0c0,.09.06,0,.09,0h0c.05,0,0,0,0-.06l.08.07,0-.06s.13,0,.18.08.09,0,.13,0,0,0,0-.06.09,0,0,.09l.06,0a.05.05,0,0,1,0,0v0h.05s0,0,0,0,.14,0,.18.11h0c.08,0,0,.08.05.09l0,0s0,.12,0,.13c.11-.05,0,0,.09,0l-.1.06s.07,0,.11,0,0,.08,0,.09h0s0,.05,0,0-.1.06-.08.14h.08c0,.07,0,.14.07.21H9.45s.07,0,.06.08h0a1.29,1.29,0,0,1-.13.18l0,0a1.55,1.55,0,0,0,0,.15.82.82,0,0,0-.37,0,2.71,2.71,0,0,0-.09.57C8.85,16.59,9,16.71,9.32,16.7Z"/><path d="M3.43,11.53l-.06.12c0,.1,0,.24,0,.34s-.2,0-.21,0c-.11-.24,0-.45,0-.67,0,0-.08-.06-.14-.11l0,.05C3,11.17,3,11,3,10.89l-.05,0c.13-.11.1-.28.14-.43l.07,0c0-.13.11-.22.16-.39s.25-.23.39-.33c.31-.13.6,0,.88-.15a.16.16,0,0,1,.19.09c.23-.15.56.11.69.35.06.08,0,.18,0,.24a.91.91,0,0,1,.32.66,1,1,0,0,1-.41.91.32.32,0,0,0-.1.17H5.12c-.16.13-.31.29-.51.29s-.29-.26-.31-.46c.21-.15.17-.51.37-.47s.08-.1.09-.16.1-.06,0-.15c.18,0,.32-.18.22-.3l0,0c-.18-.15-.25-.3-.44-.35s-.2-.08-.31,0-.06,0-.08,0l0,.06c-.08,0-.13.07-.21,0s-.11.05-.18.07-.08.21-.22.28,0,0,0,.08l-.06,0s.08,0,.08.07.09.32,0,.53C3.53,11.51,3.47,11.47,3.43,11.53Z"/><path d="M4.2,12.39s0,0,.07,0,0-.08-.09-.11h.08c0-.07-.08,0,0-.05s.08,0,.06.06,0,0-.06,0,0,.08.07.11H4.16Z"/><path d="M3.92,12.25H4s0,0,0-.08,0,.1,0,.17S3.9,12.27,3.92,12.25Z"/><path d="M4.1,12.13c0,.08.08,0,.09.11a.52.52,0,0,1-.11-.1Z"/><path d="M3.39,11.8s0,0-.06-.05l.06.06Z"/><path d="M3.27,10.27c-.06,0-.13,0-.17.1S3.25,10.28,3.27,10.27Z"/><path d="M3.9,10s0,0,0,.05,0-.08-.05,0Z"/><path d="M4,10.15l0,0Z"/><path d="M3,11.51H3Z"/><path d="M3,11.37l0,.11H3C3,11.43,3,11.43,3,11.37Z"/><path d="M3,11.48l0,0c.07.05,0,.13.08.22A.53.53,0,0,0,3,11.48Z"/><path d="M3.09,11.54h0a0,0,0,0,1,0,0l0,0s0-.16,0-.2Z"/><polygon points="3.71 11.6 3.71 11.6 3.71 11.6 3.71 11.6"/><path d="M3.73,11.43l-.07.06s0,.08,0,.11h0C3.76,11.51,3.7,11.51,3.73,11.43Z"/><path d="M3,11.25c0,.07,0,.12.09.12s0-.09,0-.13S3.06,11.25,3,11.25Z"/><path d="M3.17,11.11l0,.05,0,0A0,0,0,0,1,3.17,11.11Z"/><path d="M3.21,11.13a0,0,0,0,0,0,0Z"/><path d="M3.31,11.21c0-.05,0,0,0-.08S3.3,11.19,3.31,11.21Z"/><polygon points="3.3 10.99 3.34 10.97 3.28 10.97 3.3 10.99"/><path d="M3.07,10.53c0,.07.07,0,.1,0Z"/><path d="M3.44,10.92l-.06,0h0a0,0,0,0,1,0,0C3.47,11,3.43,11,3.44,10.92Z"/><line x1="3.31" y1="10.73" x2="3.35" y2="10.69"/><path d="M3.67,11s.1-.05.09,0,0-.05.05,0-.07,0-.1,0S3.68,11,3.67,11Z"/><path d="M3.72,10.91s0,0,0,0S3.68,10.9,3.72,10.91Z"/><polygon points="3.88 10.9 3.82 10.92 3.89 10.91 3.88 10.9"/><line x1="3.54" y1="10.47" x2="3.47" y2="10.43"/><path d="M3.89,10.83v.05l0,0a.06.06,0,0,0-.09,0Z"/><path d="M3.77,10.87l0,0s0,0,0,0Z"/><path d="M3.83,10.85h0Z"/><path d="M3.63,10.28l-.06.05S3.62,10.31,3.63,10.28Z"/><path d="M4,10.81H4l-.06,0S4,10.81,4,10.81Z"/><path d="M4.1,10.82s0,0,0,0,0,0-.06,0S4.08,10.81,4.1,10.82Z"/><path d="M4.19,10.83h0C4.25,10.86,4.19,10.84,4.19,10.83Z"/><path d="M4.17,10.81l0,0h0Z"/><path d="M3.48,11v-.06a.36.36,0,0,0,0,.09Z"/><path d="M4.94,12.3c.1-.16.29-.34.37-.46a1.06,1.06,0,0,0,.21-.74h0a1,1,0,0,0-.1-.64l0,0s0,.08,0,.07,0-.11,0-.14H5.34s.13-.07.06-.13,0-.22-.17-.13c0-.08-.07-.09-.09-.12l0,.07c0-.09,0-.22-.09-.23a.76.76,0,0,0-.36-.11c0-.09.12,0,.07-.07-.24.07-.53-.16-.8,0,0,0,0,0,0,0s-.12,0-.22,0,.14,0,.19,0,0,0-.12,0l0,0c-.08.07-.07-.05-.14,0l.06,0c-.07,0,0,0-.08.09a.11.11,0,0,0-.12-.08s-.08.07,0,.12c-.19,0-.07.12-.25.11,0,.07.08,0,.12,0s-.08,0-.13,0a.29.29,0,0,1-.13.22l0,0c-.09.06-.15.22-.23.24s.08,0,.1-.09,0,.07,0,.1,0,0,0,0,0,0,0,.07,0-.05-.06,0,0,.14.06.11-.08,0-.11.07-.05-.1,0-.15a0,0,0,0,0-.06,0c0,.08-.07.23,0,.23l-.05,0L3,11h0c.08,0,.11-.12.18-.14s0,0,0,.07l-.06,0c0,.06.11,0,.1.12s-.1.11-.14.19c.15,0,.1,0,.23,0s.08.12.08.2c-.08-.15-.05.13-.16,0,0,0,0,.05.05.08s-.1,0-.15.08l.07,0c0,.07-.07.14,0,.24s.1,0,.11,0,0,.07,0,.14c.22,0,0-.26.09-.36-.1-.21.18-.38.2-.56,0,0-.06,0-.09-.05s-.08.1-.14.17,0,0,0-.06l-.07,0c-.07-.11.1-.08,0-.17l0,0,0-.06v0s-.07,0,0-.1l0,0s.05,0,0-.07.06,0,.06,0a.74.74,0,0,0,.08-.15.34.34,0,0,1,.22-.36h0s0,0,.07,0l.08,0s.06-.08.12-.1,0,.05,0,.05,0,0,0-.06.06,0,.09,0l0,.09s0-.07,0-.05S4,10.23,4,10.18H4l-.05-.06c.06,0,.11.06.15.1l0,0c0,.09.07,0,.1,0h0c.06,0,0,0,0-.06l.07.07v-.06s.12.05.18.07.08,0,.13,0,0,0,0-.05.09,0,0,.08l.05,0s0,0,0,0v0h.05s0,0,0,0,.15,0,.18.11h0c.07,0,0,.08.06.09l0,0s0,.12,0,.12c.11-.05,0,0,.08,0l-.09.07s.06,0,.11,0,0,.08,0,.09H5s0,0,0,0S5,10.82,5,10.9h.08c0,.07,0,.15.07.22H5.06s.07,0,.07.07H5.07c0,.06-.08.11-.14.18a0,0,0,0,1,0,0,1.09,1.09,0,0,0,0,.14.61.61,0,0,0-.37,0,5.21,5.21,0,0,0-.09.57A.54.54,0,0,0,4.94,12.3Z"/><path d="M11,5.18a2.12,2.12,0,0,1,.14.31A9.41,9.41,0,0,1,12,6.65a3,3,0,0,1-.63-.45c-.75-.86-1-1.38-1.76-2.31A1,1,0,0,0,9,3.68l.16.08a1.26,1.26,0,0,0-1.26.32C8,4,7.94,4,8,4a1,1,0,0,0-.34.23q-.21.18-.45.42l-.9.91L6,5.81c-.49.53-1,1-1.57,1.65S3.19,8.68,2.53,9.37l-.45.44L1.85,10l-.16.17a1.2,1.2,0,0,0-.24.88,1.26,1.26,0,0,0,.48.83c.29.27.59.54.89.77a5,5,0,0,1,.77.83,22.16,22.16,0,0,1,2.89,2.72,3.4,3.4,0,0,1,.58.8l.71.63a1.32,1.32,0,0,0,.6.34,1.23,1.23,0,0,0,1.2-.43c1.16-1.19,2.32-2.38,3.67-3.62a9.24,9.24,0,0,0,.66-.73l.27-.2c.37-.38.72-.76,1.05-1.12l.25-.26a1.27,1.27,0,0,0,.13-.19,1.21,1.21,0,0,0,.16-.41,3.17,3.17,0,0,0,0-.83.83.83,0,0,1,0-.23l0-.1V9.81h0L16,9.62h0l-.17.17h0l0,0,.05,0L16,10c.06.06.11.13.16.19a2.2,2.2,0,0,1,.23.46,1.69,1.69,0,0,1,0,1.13,2.1,2.1,0,0,1-.34.55l-.42.47a12.29,12.29,0,0,1-1,1,18.8,18.8,0,0,0-1.48,1.55,12.22,12.22,0,0,0-1.22,1.32,11.91,11.91,0,0,0-1.37,1.11,8,8,0,0,1-.86.73,2,2,0,0,1-1.09.28c-.12,0,0,0-.19-.08a2.18,2.18,0,0,1-1.28-.74L6,16.85,3.72,14.64C2.92,13.88,2.08,13,1.07,12a2.12,2.12,0,0,1-.33-1.15,2.17,2.17,0,0,1,0-.44,2.07,2.07,0,0,1,.37-.76,7.12,7.12,0,0,1,.53-.55c.33-.33.65-.64.91-.85.61-.53,1.1-1.06,1.61-1.52C5,6.06,6.08,4.81,6.8,4.29c.09-.07.34-.33.51-.5l.27-.19a1.69,1.69,0,0,1,.52-.39,1.77,1.77,0,0,1,1.22,0,2.59,2.59,0,0,1,.93.75,8.08,8.08,0,0,1,1.12,1.39C11.27,5.31,10.91,5,11,5.18Z"/><path d="M15.1,9.86c-.07,0,.09.15.2.25A2.09,2.09,0,0,0,15,9.7l.29.3c.21.1-.28-.31-.08-.15s.27.31.17.26a1,1,0,0,0-.19-.21c-.05,0,.09.2.16.31l-.46-.47Z"/><path d="M14.13,8.75l.09.11c.07,0,0-.09-.09-.2.38.45-.07.07.14.36C14.3,9,14.06,8.73,14.13,8.75Z"/><path d="M14.78,9.2c.13.22.35.37.34.47l-.42-.53Z"/><path d="M11.61,6.07c-.16-.12-.08-.06-.3-.3l.33.34Z"/><path d="M5,6.73a6,6,0,0,0,.71-.57A5,5,0,0,1,5,6.73Z"/><path d="M1.87,9.5s-.11.07,0-.08,0,.08.22-.16Z"/><path d="M1.53,9.65l-.16.1S1.44,9.72,1.53,9.65Z"/><path d="M9.72,4.44v0l-.05,0Z"/><path d="M9.35,4l.23.3.08.06C9.47,4.17,9.54,4.15,9.35,4Z"/><path d="M9.7,4.36v0c.31.25.36.43.76.81A7.4,7.4,0,0,0,9.7,4.36Z"/><path d="M10.06,4.64l.13.09c.09.1.06.11.05.12l.21.19c.12,0-.5-.59-.66-.76Z"/><polygon points="12.32 6.26 12.31 6.25 12.32 6.26 12.32 6.26"/><path d="M11.82,5.57l-.09,0c.27.26.27.35.58.64h0C12.28,6.09,12,5.84,11.82,5.57Z"/><path d="M9.09,3.77c.25.09.38.24.49.27a1.27,1.27,0,0,0-.41-.32C9.33,3.85,9.14,3.75,9.09,3.77Z"/><path d="M8.69,3.52a1.15,1.15,0,0,1,.26,0l-.11,0A.32.32,0,0,1,8.69,3.52Z"/><path d="M8.84,3.5s0,0-.13,0Z"/><path d="M9.4,3.6c-.14-.13-.16-.09-.47-.17C8.9,3.48,9.25,3.5,9.4,3.6Z"/><path d="M8.08,3.52H8v.07Z"/><path d="M6.31,5.54c.21-.29-.19.11-.24.11Z"/><path d="M7.68,3.58h.13l0-.06a.63.63,0,0,1,.28-.12C8.17,3.29,7.82,3.47,7.68,3.58Z"/><line x1="6.77" y1="4.69" x2="6.48" y2="4.92"/><path d="M8.41,3s-.61,0,.08-.1c-.27,0-.64.17-.42,0-.41.16,0,.07-.26.22A1,1,0,0,1,8.41,3Z"/><path d="M7.45,3.41a1.77,1.77,0,0,0-.39.36A2.64,2.64,0,0,0,7.45,3.41Z"/><path d="M7.2,3.43l.27-.17-.19.08Z"/><line x1="4.91" y1="6.35" x2="4.98" y2="6.4"/><path d="M6.43,4.19l.47-.47-.45.39c-.23.28-.09.18.11,0A.42.42,0,0,1,6.43,4.19Z"/><path d="M7,3.77l.12-.16L6.73,4A1.32,1.32,0,0,1,7,3.77Z"/><path d="M6.73,4l-.17.14Z"/><path d="M3.79,7.52l.44-.42A4.51,4.51,0,0,0,3.79,7.52Z"/><path d="M6,4.48,6,4.54l0,.07C6.12,4.47,6,4.49,6,4.48Z"/><path d="M5.38,5a3.38,3.38,0,0,0-.46.47A4.36,4.36,0,0,0,5.48,5C5.27,5.13,5.39,5,5.38,5Z"/><path d="M4.75,5.46l.4-.39C5,5.09,4.91,5.29,4.75,5.46Z"/><path d="M4.13,6.12s0,0-.06.11A2.44,2.44,0,0,0,4.38,6Z"/><path d="M8.13,3.31a1.23,1.23,0,0,0-.41.22,1.6,1.6,0,0,1,.63-.23A.55.55,0,0,0,8.13,3.31Z"/><path d="M15.11,11.86c-.43.59-1.36,1.55-1.87,2.09-.87.86-1.86,2-2.85,3.05v0l-.63.62a1.8,1.8,0,0,1-.61.48,1.26,1.26,0,0,1-1.35-.26l0,.06c.11.12.3.22.17.2a2.14,2.14,0,0,1-.45-.48l-.19-.11c-.1-.15.09-.13-.28-.45-.3-.12-.71-.83-.83-.74-.08-.2-.46-.47-.63-.64l.07.16c-.33-.38-.59-.79-.77-1-.45-.43-1.06-1-1.56-1.48,0-.16.5.5.25.13A16.07,16.07,0,0,1,2,12a1.38,1.38,0,0,1-.4-1.64s-.07.11-.05,0,.14-.19.24-.3a5.43,5.43,0,0,1,.48-.47,3,3,0,0,0-.65.59c0-.18,0,0,.45-.5L2,9.76c.42-.46.23-.12.55-.47l-.21.15a6.27,6.27,0,0,0,.44-.51c0,.1.22,0,.32-.13s.4-.41.31-.41c.56-.35.55-.61,1.07-.93.15-.23-.23.13-.25.07.42-.47.2-.09.38-.23a7.87,7.87,0,0,1,1-1l0,0c.43-.34,1.07-1,1.26-1s-.19.09-.46.35c-.08,0,.17-.26.31-.38-.06.07-.11.07-.17.16s.16-.19.22-.27c.48-.44-.15.2.06,0s.6-.6.37-.47c.37-.37.2-.09.41-.26-.32.24-.35.42-.6.59-.06.09,0,.08.09,0,.29-.32.92-.86.86-.9L8,4a1,1,0,0,1,.09-.13h.06c-.16,0-.41.17-.6.26s.18-.2.25-.27h.11c.24-.13.12-.24.53-.33-.23.11.47,0,.68.23.32,0,0-.12.3-.1a5.38,5.38,0,0,1,1,.92c-.76-.77.3.44-.35-.14.12.14.24.23.37.36s-.25-.13-.13.1h.1a4.13,4.13,0,0,0,.54.76,1.23,1.23,0,0,1,.42.35c0,.09,0,.13.36.46.74.55-.51-.77-.55-1a4.86,4.86,0,0,1-.81-1.11A5.65,5.65,0,0,0,10,3.83a1.51,1.51,0,0,0-.75-.62,3.73,3.73,0,0,0-.66,0c-.16.07,0,.06.25.1a1.15,1.15,0,0,1,.62.27c-.12,0-.25-.08-.36-.13a1,1,0,0,1,.1.11,3.49,3.49,0,0,1-.47-.13c-.08,0-.16-.08-.45,0l.13,0a1.27,1.27,0,0,0-.32.13l.07,0a2.93,2.93,0,0,0-.46.35,1.2,1.2,0,0,1,.17-.21c-.12.13-.21.09-.4.32.09-.13.1-.2.17-.26a10.2,10.2,0,0,0-.89.8C5.85,5.45,4.94,6.31,4,7.13l.12-.08a1.23,1.23,0,0,1-.38.31l-.52.46c-.34.36-.62.66-1.06,1.08-.05,0,0,0,0-.1-.15.16-.24.27-.05.14-.27.28-.42.37-.62.57L1.94,9c-.21.17-.14.22-.42.46-.39.43.23-.13.22,0l-.17.16.23-.12a4.19,4.19,0,0,0-.73.69,1.44,1.44,0,0,1,.22-.31c0-.09-.1,0-.19.21s-.15.42-.2.5V10.5c-.09.6.06-.12,0,.29a1.71,1.71,0,0,0,0,.71s0-.09,0-.13a2.52,2.52,0,0,0,.4.75c.21.25.44.51.66.75s.64.59,1,.92c0-.07-.17-.21-.12-.19.2.2.64.64.44.53l.31.25a1.26,1.26,0,0,1,.23.26l-.05-.1.35.33s.09.15-.08,0c.33.43.9.81,1.46,1.42l-.19-.15c.38.31.34.42.75.77l-.05-.12c.29.26.76.82.65.77.12-.05.13.18.37.27l.09.24c.19.16.41.32.31.16a1.07,1.07,0,0,0,.87.43h0c.09,0,.49,0,.32,0a4.32,4.32,0,0,0,.69-.09,1.06,1.06,0,0,0,.6-.34l0-.08a13.38,13.38,0,0,0,1.19-1.34h.1c.22-.25-.1,0,.26-.39.06,0,.13-.07.13,0L13,15s0,.1-.09.14c.24-.24.59-.64.85-.93a17.39,17.39,0,0,0,2.48-2.3,1.44,1.44,0,0,0,0-1.14c-.12-.26-.27-.35-.37-.35a2.83,2.83,0,0,1-.1.61,1.06,1.06,0,0,1-.22.4,1,1,0,0,1-.18.17Z"/><path d="M16.62,15.93l-.07.11c0,.1.06.24,0,.35s-.2,0-.21,0c-.11-.25,0-.46,0-.67,0,0-.08-.06-.14-.12l0,.05c-.09-.07,0-.23-.09-.34l0,0c.13-.1.1-.28.14-.42l.06-.05c0-.13.11-.22.16-.39s.24-.23.39-.33c.31-.14.6,0,.88-.16.05,0,.14,0,.19.09.24-.16.58.13.69.36a.23.23,0,0,1,0,.24,1,1,0,0,1,.32.65,1.06,1.06,0,0,1-.39.91.46.46,0,0,0-.11.18h-.09c-.17.13-.33.29-.52.29s-.28-.26-.3-.46c.2-.16.18-.51.37-.47s.07-.1.08-.15.1-.07,0-.15c.17,0,.32-.19.22-.32s0,0,0,0c-.18-.14-.24-.31-.43-.35s-.19-.09-.3,0-.06,0-.09,0,0,0,0,0-.11.08-.19,0-.12.06-.18.08-.08.22-.22.29,0,.05,0,.07l-.06,0s.09,0,.09.06c0,.17.07.33,0,.54C16.72,15.9,16.66,15.86,16.62,15.93Z"/><path d="M17.39,16.78s0,0,.06,0,0-.08-.09-.11l.08,0c0-.08-.08,0,0-.06s.08,0,.05.07,0,0-.05,0,0,.07.06.11l-.13,0Z"/><path d="M17.12,16.64l0,0s0-.06,0-.08,0,.09,0,.17S17.1,16.67,17.12,16.64Z"/><path d="M17.29,16.53c0,.07.08,0,.08.1l-.1-.09Z"/><path d="M16.57,16.2s0,0-.05-.06l.05.07Z"/><path d="M16.45,14.67a.24.24,0,0,0-.15.1C16.33,14.7,16.44,14.68,16.45,14.67Z"/><path d="M17.09,14.43s0,0,0,0,0-.07-.05,0Z"/><path d="M17.18,14.54l0,0Z"/><path d="M16.15,15.89h0Z"/><path d="M16.15,15.75a.43.43,0,0,0,0,.11h0C16.14,15.81,16.19,15.81,16.15,15.75Z"/><path d="M16.18,15.86l0,0c.08,0,0,.13.08.22A.43.43,0,0,0,16.18,15.86Z"/><path d="M16.27,15.92h0a0,0,0,0,1,0,0l0,0c.05,0,0-.17,0-.21Z"/><polygon points="16.9 15.99 16.89 15.99 16.9 16 16.9 15.99"/><path d="M16.92,15.83l-.08.06s0,.08.06.1h0C16.94,15.91,16.89,15.91,16.92,15.83Z"/><path d="M16.22,15.63c0,.07,0,.12.08.12v-.12S16.25,15.63,16.22,15.63Z"/><path d="M16.37,15.5l0,.05,0,0A0,0,0,0,1,16.37,15.5Z"/><path d="M16.41,15.52a0,0,0,0,0,0,0Z"/><path d="M16.5,15.6c.06,0,0,0,0-.08S16.5,15.57,16.5,15.6Z"/><polygon points="16.5 15.38 16.55 15.36 16.48 15.36 16.5 15.38"/><path d="M16.26,14.92c0,.08.07,0,.11,0Z"/><path d="M16.64,15.32l-.06,0h0a0,0,0,0,1,0,0C16.67,15.39,16.63,15.34,16.64,15.32Z"/><path d="M16.5,15.12a.1.1,0,0,0,.05,0"/><path d="M16.87,15.39s.11-.06.09,0,0-.05.05,0-.07,0-.1,0S16.88,15.37,16.87,15.39Z"/><path d="M16.92,15.31s0,0,0-.05S16.88,15.29,16.92,15.31Z"/><polygon points="17.08 15.29 17.02 15.31 17.09 15.3 17.08 15.29"/><line x1="16.74" y1="14.86" x2="16.66" y2="14.82"/><path d="M17.09,15.22v0l0,0s-.06,0-.08,0Z"/><path d="M17,15.26l0,0s0,0,0,0Z"/><path d="M17,15.24h0Z"/><path d="M16.82,14.67l-.06.06A.07.07,0,0,0,16.82,14.67Z"/><path d="M17.17,15.21h-.06Z"/><path d="M17.3,15.21s0,0,0,0-.05,0-.06,0S17.27,15.2,17.3,15.21Z"/><path d="M17.39,15.22h0C17.45,15.25,17.39,15.23,17.39,15.22Z"/><path d="M17.37,15.19l0,0h0Z"/><path d="M16.68,15.38v-.05l0,.08Z"/><path d="M18.11,16.7c.11-.16.31-.34.4-.47a1.09,1.09,0,0,0,.19-.74h0a1.08,1.08,0,0,0-.1-.63l0,0s0,.08,0,.06,0-.1,0-.13h-.06s.13-.07.06-.13,0-.21-.16-.13c.06-.08-.06-.1-.09-.12l0,.06c0-.08,0-.22-.08-.23a.83.83,0,0,0-.37-.11c0-.09.12,0,.07-.07-.24.06-.53-.16-.81,0,0,0,0,0,0,0s-.12,0-.21,0,.14,0,.18,0,0,0-.12,0l0,0c-.08.07-.07-.06-.14,0l.06,0c-.07,0,0,0-.07.1a.12.12,0,0,0-.13-.08s-.07.07,0,.11c-.19,0-.09.12-.25.12,0,.08.08,0,.12,0s-.08,0-.13,0a.32.32,0,0,1-.13.21l.05,0c-.1.06-.15.21-.23.23s.08,0,.1-.08.05.07,0,.1,0,0,0,0,0,0,0,.06,0,0-.06,0,0,.15.06.12-.08,0-.11.07-.05-.11,0-.15a0,0,0,0,0-.07,0c0,.08-.06.23,0,.23l0,0,.06,0h0c.07,0,.1-.11.17-.13s0,0,0,.06l-.06,0c0,.06.12,0,.1.12s-.11.11-.14.18c.15,0,.1,0,.23,0s.08.12.06.2c-.07-.15-.05.12-.15,0s0,.06,0,.08-.09,0-.15.08l.07,0c0,.07-.07.14,0,.24a.11.11,0,0,1,.12.06s0,.06,0,.14c.24,0,0-.27.09-.37-.1-.21.2-.38.22-.55-.05,0-.06,0-.09-.06s-.08.1-.14.17-.05,0,0-.06l-.08,0c-.06-.11.1-.08.06-.17l0,0,0,0h0s-.07,0,0-.09l.05,0s.05,0,0-.08.07,0,.07,0a.37.37,0,0,0,.07-.14.37.37,0,0,1,.23-.37h0s0,0,.06,0l.09,0a.2.2,0,0,1,.12-.1.1.1,0,0,1,0,0s0,0,0-.06.06,0,.09,0a.11.11,0,0,0,0,.08s0-.06,0-.05,0-.05-.07-.11h0l-.06-.07a.24.24,0,0,1,.15.1h0c0,.09.06,0,.09,0h0c.06,0,0,0,0-.06l.08.07v-.06s.12,0,.17.08.09,0,.14,0a.07.07,0,0,1,0-.06s.09,0,0,.09l.06,0a.05.05,0,0,1,0,0v0h.06s0,0,0,0,.13,0,.18.11H18c.08,0,0,.08.06.09l0,0c.05,0,0,.12,0,.13.11-.05,0,0,.08,0l-.09.06s.06,0,.11,0,0,.08,0,.09h0s0,.05,0,0-.1.06-.08.14h.08c0,.07,0,.14.07.21h-.07s.07,0,.07.08h-.06a.78.78,0,0,1-.13.18.08.08,0,0,1,0,0,1.55,1.55,0,0,0,0,.15.84.84,0,0,0-.37,0,2.71,2.71,0,0,0-.09.57A.5.5,0,0,0,18.11,16.7Z"/><path d="M17.69,11.54l.17-.29a2.88,2.88,0,0,0,.07-.36c0-.11,0-.36,0-.35s.05-.12.1-.09l.11.08s0,0,0,.05A2.74,2.74,0,0,1,17.85,12a4.07,4.07,0,0,1-1,1.13,5.41,5.41,0,0,0-.45.62l.17-.13c-.28.37-.81.82-1.17,1.23l.16-.09a9.79,9.79,0,0,0-1.51,1.4l-.26.19c-.21.23-.43.45-.66.68l-.34.35a2.3,2.3,0,0,0-.28.33.06.06,0,0,0,0,.07V18l0,.57a3.08,3.08,0,0,0,.14,1.08c.16.52.55.77,1.29.76A13.12,13.12,0,0,0,16,20.28a3.13,3.13,0,0,1,1,0,16.32,16.32,0,0,1,3.43-.12,2.34,2.34,0,0,1,.85.16,1.19,1.19,0,0,0,1-.6,1.15,1.15,0,0,0,.15-.53c0-.28,0-.55,0-.81,0-1.44,0-2.88,0-4.47a6.2,6.2,0,0,0-.05-.86l.05-.28c0-.47,0-.91-.05-1.34a1.26,1.26,0,0,0-.29-.71,5.25,5.25,0,0,0-.52-.5,1.21,1.21,0,0,1-.23-.32,1.67,1.67,0,0,1,1.62.73,1.91,1.91,0,0,1,.28,1.1,8.65,8.65,0,0,1,0,1.23,15.06,15.06,0,0,0,.05,1.86,8.7,8.7,0,0,0,.07,1.56,10.15,10.15,0,0,0-.19,1.52c0,.31,0,.64,0,1a2.65,2.65,0,0,1-.13,1c-.07.08,0,0-.13.12a1.68,1.68,0,0,1-1,.89,5.24,5.24,0,0,1-1.35.11l-2.75,0c-.94,0-2,0-3.2,0-.11,0-.6,0-.91,0h-.37a1.78,1.78,0,0,1-1.24-.79,2.27,2.27,0,0,1-.3-1.16c0-.37,0-.71,0-1s0-.36,0-.54.28-.3.35-.4c.68-.59,1.66-1.69,2.3-2.13.08-.06.29-.29.44-.43l.24-.17c.14-.14.18-.29.32-.44.47-.46,1-1,1.46-1.43a4.91,4.91,0,0,0,.71-1.39C17.65,11.27,17.59,11.71,17.69,11.54Z"/><path d="M21,10.48c-.05,0,.15,0,.27,0a1.84,1.84,0,0,0-.41-.1h.37c.19-.08-.36,0-.15-.06s.36,0,.27.06a1.36,1.36,0,0,0-.24,0c0,.05.17.07.28.11h-.57Z"/><path d="M19.68,10.39h.12c.06,0-.06-.05-.17-.08.51.06,0,.1.31.16C20,10.45,19.63,10.42,19.68,10.39Z"/><path d="M20.35,10.25c.22.06.45,0,.5.09l-.58-.08Z"/><path d="M17.94,10.56c0,.12,0,.08,0,.39a1,1,0,0,0,0-.24v-.15Z"/><path d="M13,17.17a4.4,4.4,0,0,0,.62-.48A4.35,4.35,0,0,1,13,17.17Z"/><path d="M12.49,20.11s0,.11-.07,0,.07,0-.07-.21A.83.83,0,0,0,12.49,20.11Z"/><path d="M12.58,20.42a1.21,1.21,0,0,0,.1.14S12.64,20.51,12.58,20.42Z"/><path d="M17.44,13h0l0,.06Z"/><path d="M17,13.44l.34-.27.06-.1A4.73,4.73,0,0,0,17,13.44Z"/><path d="M17.36,13l.05,0A3.61,3.61,0,0,0,18,12,5.12,5.12,0,0,1,17.36,13Z"/><path d="M17.58,12.62l.05-.16c.07-.12.09-.1.1-.09a2.33,2.33,0,0,0,.11-.28c0-.06-.08.12-.2.33a4.93,4.93,0,0,1-.37.53A3.26,3.26,0,0,0,17.58,12.62Z"/><polygon points="17.47 10.1 17.47 10.11 17.47 10.1 17.47 10.1"/><path d="M17.45,10.75l.1,0a2.46,2.46,0,0,0-.08-.67h0C17.4,10.15,17.52,10.49,17.45,10.75Z"/><path d="M16.59,13.69a2.19,2.19,0,0,0,.44-.51l-.44.41C16.78,13.46,16.6,13.63,16.59,13.69Z"/><path d="M16.1,13.92l.21-.2-.11.06S16.17,13.85,16.1,13.92Z"/><path d="M16.2,13.78s0,0-.12.08Z"/><path d="M16.55,13.33c-.17.08-.11.12-.35.34C16.23,13.73,16.43,13.44,16.55,13.33Z"/><polygon points="15.58 14.25 15.47 14.29 15.5 14.35 15.58 14.25"/><path d="M14.08,16.15c.18-.26-.17.08-.21.08Z"/><path d="M15.23,14.39l.11,0V14.3a1.24,1.24,0,0,1,.22-.18C15.56,14,15.35,14.29,15.23,14.39Z"/><line x1="14.45" y1="15.38" x2="14.2" y2="15.57"/><path d="M15.59,13.71s-.39.24,0-.11c-.15.14-.35.35-.25.18-.24.23,0,.06-.11.24C15.32,13.87,15.47,13.82,15.59,13.71Z"/><path d="M15,14.23a2,2,0,0,0-.33.31C14.78,14.43,14.92,14.37,15,14.23Z"/><polygon points="14.77 14.23 14.97 14.11 14.83 14.16 14.77 14.23"/><line x1="12.83" y1="16.81" x2="12.89" y2="16.87"/><path d="M14.11,14.89l.4-.41-.4.34c-.19.25-.07.16.11,0C14.17,14.87,14.13,14.9,14.11,14.89Z"/><path d="M14.62,14.54l.1-.14a4.63,4.63,0,0,0-.35.31A1,1,0,0,1,14.62,14.54Z"/><path d="M14.37,14.71l-.15.13Z"/><path d="M12.09,17.87l0-.24c0-.07.09-.11.14-.17C12.06,17.55,12.08,17.71,12.09,17.87Z"/><path d="M13.75,15.14l-.05,0,0,.07C13.83,15.13,13.76,15.15,13.75,15.14Z"/><path d="M13.18,15.53a2.32,2.32,0,0,0-.41.42,3.43,3.43,0,0,0,.49-.41C13.08,15.7,13.19,15.56,13.18,15.53Z"/><path d="M12.62,16l.35-.34C12.85,15.64,12.76,15.82,12.62,16Z"/><path d="M12.08,16.54s0,0,0,.1a1.79,1.79,0,0,0,.27-.24Z"/><path d="M15.53,14.05l-.28.29L15.7,14Z"/><path d="M22.29,11.52A21.57,21.57,0,0,1,22.44,14c0,1.06.12,2.38.14,3.62h0c0,.48,0,1,0,1.6A1.21,1.21,0,0,1,22,20.21H22c.12-.07.26-.21.21-.09a.86.86,0,0,1-.45.2l-.13.1c-.13,0,0-.13-.36-.07s-.95-.09-1,.06c-.16-.09-.56,0-.77,0l.14.07c-.44,0-.85-.14-1.06-.12-.54,0-1.27,0-1.86,0-.13-.08.61,0,.24-.08a12.14,12.14,0,0,1-1.93,0,12.73,12.73,0,0,1-1.92-.12s.11.05,0,.05-.39-.17-.51-.47c0,.08.21.38.35.44-.14.06-.08,0-.35-.3,0,0,0,.09,0,.09-.24-.33,0-.16-.17-.45a1,1,0,0,0,0,.18c-.11-.31-.07-.07-.19-.46.08.05.1-.16.1-.26s0-.46-.1-.4a2.07,2.07,0,0,0,.06-.61c0-.21-.05-.27.08-.3s-.13,0-.15,0c.11-.24.1,0,.18-.08a5.08,5.08,0,0,1,.84-.83l0-.06c.37-.29.93-.82,1.1-.89s-.17.07-.41.3c-.07,0,.15-.24.27-.34-.06.06-.1.05-.15.14s.14-.17.19-.24c.41-.38-.13.18.06,0s.52-.53.31-.42c.32-.32.18-.07.37-.22-.29.22-.3.38-.53.52,0,.08,0,.07.09,0,.25-.28.8-.74.74-.79l.16-.09.1-.17.06,0c-.18.07-.45.29-.6.34s.14-.16.22-.25l.12,0c.24-.22.09-.25.42-.55-.14.25.43-.26.69-.44.14-.33-.11,0,0-.33a5.19,5.19,0,0,0,.82-1c-.53.89.36-.38,0,.36a2.14,2.14,0,0,0,.24-.45c.17-.09,0,.29.14.09l0-.1a1.88,1.88,0,0,0,.41-.89,2.09,2.09,0,0,1,0-.58.37.37,0,0,0,.05-.15c0-.07,0,0,0-.06s-.14-.11-.17,0a.81.81,0,0,1,0,.09c0,.1,0,.2,0,.29a.94.94,0,0,1-.1.37,1.84,1.84,0,0,1-.6,1.16c-.26.26-.58.44-1.11.91a1.8,1.8,0,0,1-.34.45c-.12.29.51-.36.74-.49a1.09,1.09,0,0,1-.25.27l.15,0c-.45.49-.34.17-.73.61L15.8,14l-.23.25.07,0a2.73,2.73,0,0,1-.39.44l.15-.22c-.1.15-.2.12-.36.31.08-.12.08-.18.14-.24-.29.24-.54.47-.77.7-.77.82-1.55,1.55-2.37,2.27l.12-.08a.6.6,0,0,0-.2.37c0,.19,0,.4-.05.6a5.18,5.18,0,0,0,.16,1.34s-.06,0-.08-.06c.07.19.13.3.1.1a1.77,1.77,0,0,0,.36.67,1.47,1.47,0,0,1-.39-.47c.09.24.14.21.35.49.42.35-.14-.21,0-.21a.61.61,0,0,0,.13.15.54.54,0,0,1-.08-.21,2.06,2.06,0,0,0,.61.6,2.69,2.69,0,0,1-.29-.16c-.17.05.5.24.65.28h-.05c.51.06-.11-.06.24,0l.59.08-.1-.06c.34,0,1,.06,1.57.08.32,0,.75,0,1.16,0-.08,0-.24,0-.19,0,.25,0,.78,0,.59.06l.35-.05.3,0-.09,0,.42,0s.14.05-.06.05c.46.07,1.05-.06,1.77,0l-.22,0c.43-.05.47.06.94,0l-.11-.05a2.71,2.71,0,0,1,.88.07c0-.12.22,0,.41-.13a1.9,1.9,0,0,0,.25,0c.21-.12.38-.28.22-.24a.91.91,0,0,0,.57-.62h0c0-.07.17-.38.07-.26a3.84,3.84,0,0,0,.15-.59,1.72,1.72,0,0,0,.05-.56l-.08,0A10.31,10.31,0,0,0,23,17l.07,0c0-.29-.07,0-.08-.4,0-.07,0-.12.05-.11,0-.43,0-1.06,0-1.7,0,0,0,.09,0,.13,0-.28,0-.75-.06-1.08s.11-.86.14-1.36c0-.28,0-.53,0-.77a1.87,1.87,0,0,0-.12-.83,1.31,1.31,0,0,0-.8-.61c-.24-.06-.39,0-.45.07A1.51,1.51,0,0,1,22.29,11.52Z"/></g></svg>