<svg id="Layer_1" data-name="Layer 1" xmlns="http://www.w3.org/2000/svg" viewBox="0 0 24 24"><path d="M9.29,12.76c-.93-1.14-1.69-1.14-4,.67a4.91,4.91,0,0,0-1.53,2.85,7.16,7.16,0,0,0,4.85-1l.91-.7C9.79,14.29,9.71,13.7,9.29,12.76Zm-.11,1.5s-.94.59-1.93,1.07a7.46,7.46,0,0,1-2.52.58c-.25,0,.48-.45.48-.45a10.56,10.56,0,0,0,2.24-1,7.88,7.88,0,0,1,1.68-.8A.47.47,0,0,1,9.18,14.26ZM16.77,6.7l-5.86,3.63c-1.53,1-1.53.25-1,2.07.15.15.71.67.93.68,4.93-3.27,5.52-3.41,10.28-6.64a6.37,6.37,0,0,0,2.55-3.63C22.63,2.81,16.77,6.7,16.77,6.7Z"/><path d="M19.71,22.92v0Z"/><path d="M18,22.76h0Z"/><path d="M20.76,23h0Z"/><path d="M14.22,22.58h0Z"/><path d="M16.43,22.7l0,0S16.43,22.72,16.43,22.7Z"/><path d="M21.31,23.52l0,0S21.29,23.51,21.31,23.52Z"/><path d="M22.38,23.37h0Z"/><path d="M22,23.23h0Z"/><path d="M21.91,23.25h0Z"/><path d="M.64,22.76s-.05,0-.08,0Z"/><path d="M10.83,22.56h0Z"/><path d="M.61,23.07h0Z"/><path d="M20.75,23.61s-.1,0-.1,0S20.73,23.66,20.75,23.61Z"/><path d="M10.12,23.89h0Z"/><path d="M.61,23.07h0v0A0,0,0,0,1,.61,23.07Z"/><polygon points="7.31 22.55 7.31 22.55 7.32 22.54 7.31 22.55"/><path d="M7.12,22.49h0S7.13,22.48,7.12,22.49Z"/><path d="M.56,22.81l-.05,0Z"/><path d="M5.11,22.54h0Z"/><path d="M16.57,22.72h0S16.59,22.72,16.57,22.72Z"/><polygon points="15.18 23.66 15.18 23.66 15.18 23.66 15.18 23.66"/><path d="M15.26,23.61a.1.1,0,0,0-.08.05S15.23,23.65,15.26,23.61Z"/><path d="M15,23.64h0Z"/><polygon points="16.52 23.71 16.52 23.71 16.52 23.71 16.52 23.71"/><path d="M16.22,23.72a0,0,0,0,0,0,0Z"/><polygon points="14.29 23.74 14.29 23.74 14.28 23.74 14.29 23.74"/><path d="M11.49,24a7.26,7.26,0,0,1,.92-.07c.06-.08.15-.08.24-.09v.09l.07,0s-.05,0,0,.06l0-.06s.19,0,.06.09h.29c.06,0,0-.08.11-.06s0,0,0,.06c.21.07.24-.19.44-.15l0,0s.1,0,.1,0,0,.05-.1,0,.08-.05.08-.11.07,0,.11,0,.17,0,.22.08.07-.11.14-.11,0,.06.06.08v0c.06,0,0,0,0,0s.05-.07.12,0l0,.05a.4.4,0,0,1,.16,0s0,0-.06,0,.08,0,.1,0-.06,0,0-.08.08-.06.11,0l-.05.05c.09,0,.05-.06.14,0v0c.06-.06.14,0,.22,0h0s.05-.05.07-.05,0,0,0-.09.1-.09.21,0,0,.06-.06,0,0,.15-.1.19.09,0,.07,0l0-.08h.06c0-.05,0-.08,0-.11s0,.08,0,0,0-.08.13-.05,0,0,0,0,.16,0,.17.08,0,0,0,0h0c-.07.07.06,0,0,.06s.08,0,.12,0v-.06c.13-.16,0,.11.12.09s0,0,0-.06.07.06.15,0a.16.16,0,0,1,.08.11c.05,0,.15,0,.17,0s-.08.06-.18,0l0-.06c.07,0,.15,0,.2,0a.06.06,0,0,1,0,0c.1,0,.13-.08.22-.06s0,0-.08,0,.06,0,.16,0-.07,0-.08,0h.11c0-.08.08,0,.14,0s.18-.11.26-.17,0,0,0,.06,0,0,0,0,.11.08.08.11,0,0,0-.06h.11s-.05-.05,0-.08h.13s0,.06,0,.06a.07.07,0,0,0,.1,0c-.07,0,.11,0,.06-.1l.07,0s0,0,0,0,.06,0,.08,0,.09,0,.1,0a.07.07,0,0,1,.08,0s0,0,0-.06h.11s0,.13,0,.14,0-.1.08-.1.09.05,0,.13a.2.2,0,0,0,.2,0c0-.05-.06,0-.06-.08.16,0,.17-.17.29-.15h0a.3.3,0,0,0,.11-.07c0,.07.08.18.2.17s-.07-.07-.05-.12h.08s0,0,0,0,.13.09.15,0l.08.1,0,0s.09,0,.11-.06a.11.11,0,0,1,.15,0s-.05-.09,0-.1.13,0,.13.09.07,0,.08,0v.07c0-.1.1-.09.18-.11,0,.13.08,0,.11.11,0-.09.13,0,.14-.11s.05.08.07.11l0,0s.14.05.2.08l.06-.08,0,0s.06,0,0-.06h0c0-.08,0,0,.11-.06s0,0,0,.05,0,0,0,.07.11-.15,0-.19,0-.06.07-.05l0,.08,0-.08c.05,0,.07,0,.11.05s-.09.14,0,.14a.3.3,0,0,0-.11.07s0,0,0,0,0,0,.11-.05,0,.09.09.11l-.06,0a0,0,0,0,0,0,0s0,0,0,0,.1-.09.11-.05.14-.08.09-.14a0,0,0,0,1,.07,0c-.07.05.05.08,0,.12s-.05-.05,0-.07.07,0,.09.06h0l.06,0s-.06-.06,0-.08.08,0,.07,0,0,.11-.05.12.17,0,.12-.08h0s-.11-.08,0-.09v0l.07-.05,0,0a0,0,0,0,1,0,0s0,0,0,.06.07,0,.08-.06,0,0,0,.05.15,0,.18,0,0,0,0-.06c.07.12.25.05.37,0,0-.11,0,0,.05-.11s.12.08,0,.11h.06c.05.05-.1,0,0,.12s.12-.12.21-.08.06,0,0,.06,0,0-.06,0v0c.16,0,.05-.09.13-.14s.08.06.08.09.07,0,.09,0-.11,0-.08-.09.14,0,.17,0c-.14-.09-.1,0-.23-.1s0,.1-.09.07,0-.05,0-.06-.06,0-.08,0,0-.1,0-.12l0,.1s0-.07-.05-.05,0-.08.08-.1c-.11-.08-.17.05-.25.09l0,0a.07.07,0,0,1-.07,0c-.06,0,0,0,0-.07h-.09s0,0-.05,0,0-.07.06-.09l-.1.07s-.07-.06,0-.08h-.13v-.07s0,0,0,0-.21.12-.18,0c-.11.06-.15,0-.28.07.1-.06-.11-.08,0-.11-.06,0-.07,0-.12.05s0-.09,0-.12l-.06,0h0l-.05,0c-.06,0,0-.07-.07-.08V23l0,0s0,0-.06,0h0s-.05,0,0-.06h-.11v0c-.1,0,0-.06-.08-.06v0c-.11-.08-.19.05-.28,0a.05.05,0,0,0,0-.06.68.68,0,0,0-.27.07c0-.07,0-.09-.11-.12s-.07,0-.08.05-.16,0-.16,0-.05,0-.08,0v0c-.1-.11-.17.06-.27,0h0s0,0,0-.06h-.19l0,0s-.07.05-.11,0-.07,0-.08-.06l0,0c-.05,0-.05,0-.05.06s-.05-.09-.12,0h.05a.06.06,0,0,1-.05.07s0,0,0,0-.14,0-.17,0,0-.05,0-.06-.05,0-.18,0v0l-.05,0-.06-.06,0,0s-.06,0-.11,0l0,0c-.11,0-.13-.06-.24,0l0,0c-.1.06-.07-.08-.18,0s0,0,0,0l0,0v-.06l0,.08,0,0,0,0c0-.1-.12,0-.19-.1l0,.07c-.17.14-.39-.08-.59,0v-.05l-.08.06s0,0,0-.07,0,.08-.14.09,0,0,0-.06a.58.58,0,0,1-.31,0v0a.88.88,0,0,1-.23,0s0,0,0,0-.06,0-.08,0l0,0c-.06,0-.17,0-.18,0s0,.07,0,.06-.13,0-.21,0,.07,0,.05,0-.07,0-.11,0v0l-.17,0c0-.08-.17,0-.16-.05s.05,0,0,.05-.07,0-.07,0h0l0-.05a.11.11,0,0,0-.08.1s-.12,0-.14,0h0c-.13,0-.21-.15-.31-.06s0,0,0,0h-.08l0,0-.13.06v0a1.9,1.9,0,0,0-.33,0h0c-.13,0-.12,0-.21,0a0,0,0,0,1,0,0h-.08v0c-.06.05-.17-.08-.13,0s-.09.06-.1.09,0,0-.08-.06-.07.05-.16,0v0a.35.35,0,0,1-.12,0h0c-.09.06-.11-.08-.19,0s-.11,0-.1-.06l-.32.07c0-.09,0,0-.09,0v0c-.16,0-.34-.11-.52-.09v-.05l0,.06a4.26,4.26,0,0,0-.58-.05c-.05,0-.13.09-.21.07h0a1,1,0,0,1-.43,0s0,0,0,0-.09,0-.12,0l0,0c0,.05-.11,0-.13,0l-.06,0a0,0,0,0,1,0,0v0l0-.07s-.11,0-.14.09-.07,0,0-.05l-.24,0,0,0s-.06.08-.1.05,0-.07,0-.1,0,0,0,.07-.13.05-.15,0l0,0s-.08-.07-.14-.07-.08,0-.07.09,0-.06-.06-.06-.13,0-.14,0c0,.12-.2-.05-.22.06l-.06-.06s0,.09-.06.1,0-.08,0-.11l0,.1c-.26-.1-.61,0-.9-.12a1.56,1.56,0,0,1-.44.05H8l-.15,0,.11,0s-.06,0-.09,0a1.16,1.16,0,0,0-.59,0c-.13.11-.09-.11-.21,0s0,0,0,0a1.58,1.58,0,0,0-.34.13c0-.12-.09,0-.08-.06v0s-.1,0-.09-.07l-.06.06v-.05c-.08,0-.25,0-.29-.06a2.07,2.07,0,0,1-.75,0,.31.31,0,0,1-.17,0l-.06-.06s-.11.09-.17.05a0,0,0,0,1,0,0c-.06,0-.11,0-.17,0s-.12,0-.1-.08-.14,0-.14,0-3.26-.23-4.06.29c0,0-.1.08-.07.13s-.08-.06-.09,0,0,.13.05.18l-.05,0s.07,0,.05,0l0-.09a.09.09,0,0,1,.07.06s.06-.15.15-.1h0c.07,0,0,.05.06.07h0l.06,0s-.12,0-.08,0,0,0,0,0,0,.05,0,.07H.91s-.05,0,0,0l.09,0c0,.1.1,0,.14.05s0,0,0,.06h.16s0,0,0,0,.05,0,.07,0,.12,0,.11.07.05-.09.15,0-.08,0,0,0h.11s0,.06-.06.06c.28.05.43.27.69.21,0,.05,0,0,0,.07.19-.07.26.11.42.1v0c.22.13.49.05.74.11l0,0s.09-.05.13-.07,0,.09,0,.08,0,0,0,0a5.2,5.2,0,0,0,1,.13c.48,0,1,.05,1.48,0a0,0,0,1,1,0-.07c.15.17.26,0,.41.08.27-.05.52.1.77,0v.05s0,0,.09,0h0c.09,0,.21,0,.26,0v-.05c.06,0,0,0,.09,0v0l.07-.05c0,.09.15,0,.2.05a.78.78,0,0,1,.32,0c0,.05.16.05.24.07a4.29,4.29,0,0,1,.63,0v-.06h.06v0c0,.07.12,0,.17,0s0,0-.07,0,0-.08.06,0h0l0,0c0,.05,0,.07.05.12a2.09,2.09,0,0,1,.5-.08c0,.06.13,0,.09.08.12,0,0-.07,0-.14s.06,0,.07,0,0,.06,0,.07h.07s0,0,0,0c.15-.06.27.06.41,0s-.05,0,0,0,.12.06.25,0l0,.05s.06-.07.13,0-.06.05-.09.08.17,0,.13-.07.08,0,.11.05-.05,0,0-.06a.92.92,0,0,0,.29,0s0,0,0,0S11.39,24,11.49,24Z"/><path d="M16.56,23.72h0a0,0,0,0,1,0,0Z"/><path d="M14.74,23.68l0,0A0,0,0,0,0,14.74,23.68Z"/><path d="M14.3,23.78s0,0,0,0S14.28,23.76,14.3,23.78Z"/><path d="M17.59,23.57s0,0,0,0S17.59,23.58,17.59,23.57Z"/><path d="M20.43,23.61h0Z"/><path d="M20.27,23.53h0Z"/><path d="M16.9,23.59l0,0Z"/><path d="M20.21,23.55h0Z"/><path d="M20.48,23.62h-.05S20.47,23.63,20.48,23.62Z"/><path d="M18.63,23.5Z"/><polygon points="20.04 23.64 20.03 23.64 20.02 23.65 20.04 23.64"/><path d="M20.65,23.64h0Z"/><path d="M19.23,23.59a.11.11,0,0,0,0-.05S19.22,23.55,19.23,23.59Z"/><path d="M.84,3.79h0Z"/><path d="M.69,5.54l0,0Z"/><path d="M.91,2.74h0v0Z"/><path d="M.51,9.28v0S.5,9.28.51,9.28Z"/><path d="M.63,7.07s0,0,0,0S.64,7.07.63,7.07Z"/><path d="M1.44,2.19l0,0A0,0,0,0,0,1.44,2.19Z"/><path d="M1.3,1.12h0Z"/><path d="M1.15,1.54l0,0S1.17,1.54,1.15,1.54Z"/><path d="M1.18,1.58h0S1.17,1.58,1.18,1.58Z"/><path d="M.68,22.86s0,.05,0,.08Z"/><path d="M.49,12.67h0Z"/><path d="M1,22.89v0Z"/><path d="M1.54,2.75s0,.1,0,.1S1.59,2.77,1.54,2.75Z"/><path d="M1.81,13.38v0Z"/><path d="M1,22.89v0H1Z"/><polygon points="0.47 16.19 0.47 16.19 0.47 16.18 0.47 16.19"/><path d="M.41,16.38v0S.4,16.37.41,16.38Z"/><path d="M.73,22.94l0,0A.09.09,0,0,0,.73,22.94Z"/><path d="M.47,18.39v0S.46,18.39.47,18.39Z"/><path d="M.65,6.92h0S.64,6.91.65,6.92Z"/><polygon points="1.58 8.32 1.58 8.32 1.58 8.32 1.58 8.32"/><path d="M1.54,8.24s0,.06,0,.08A.08.08,0,0,0,1.54,8.24Z"/><path d="M1.57,8.48h0Z"/><polygon points="1.64 6.98 1.63 6.98 1.64 6.98 1.64 6.98"/><path d="M1.64,7.28s0,0,0,0Z"/><polygon points="1.66 9.21 1.66 9.21 1.66 9.21 1.66 9.21"/><path d="M1.92,12a7.28,7.28,0,0,1-.07-.93c-.07-.06-.07-.14-.09-.23h.1l0-.08s0,.06,0,0l-.06,0s0-.19.09-.07v-.28c0-.07-.08,0,0-.11s0,0,0,0c.07-.21-.19-.24-.14-.44v0s0-.1,0-.1.05,0,0,.09,0-.07-.11-.07,0-.07,0-.11,0-.17.08-.22-.1-.07-.11-.14.06,0,.09-.06h0c0-.06,0,0,0,0s-.06-.05,0-.12l0,0a.43.43,0,0,1,0-.16s0,0,0,.06,0-.08,0-.1,0,.06-.07,0-.07-.08,0-.11l0,0c0-.08-.06,0,0-.13h0c-.06-.06,0-.14,0-.23v0s-.06-.05-.05-.07-.05,0-.09,0-.09-.1-.05-.21.06,0,0,.06.14,0,.18.1,0-.09,0-.08H1.58V8.32s-.07,0-.11,0,.08,0,.05,0-.08,0-.06-.13,0,0,0,0,0-.15.08-.17.05,0,0,0h0c.06.07,0-.06.06,0s0-.08,0-.12H1.56c-.17-.13.11,0,.08-.12s0,0,0,0,.06-.07,0-.15a.16.16,0,0,1,.11-.08s0-.15,0-.17.06.08,0,.18l-.06,0c0-.07,0-.16,0-.2h0c0-.1-.08-.13-.06-.22s.05,0,.05.08,0-.06,0-.16,0,.06,0,.08l0-.11h0c-.08,0,0-.08,0-.14s-.1-.18-.17-.26a.06.06,0,0,1,.07,0s0,0,0,0,.08-.11.11-.08,0,0-.07,0V6.39s-.05.05-.08,0a.19.19,0,0,1,0-.13s.06,0,.06,0a.07.07,0,0,0,0-.09c0,.07,0-.12-.1-.06l0-.07s0,0,0,0,0-.06,0-.08,0-.09,0-.1a.05.05,0,0,1,0-.08s0,0-.06,0V5.7s.13,0,.14,0-.1,0-.09-.08.05-.09.13,0a.2.2,0,0,0,0-.2c-.06,0,0,.06-.09.06,0-.16-.17-.17-.14-.29l0,0c0-.07,0-.07-.07-.11s.19-.08.17-.2-.06.06-.12.05V4.86s0,0,0,0,.09-.14,0-.16l.1-.07-.05,0s0-.09-.05-.11a.11.11,0,0,1,0-.15s-.09,0-.1,0,0-.14.1-.13,0-.08,0-.08h.06c-.09,0-.09-.11-.1-.18s0-.08.1-.11c-.08,0,0-.13-.1-.14s.07,0,.1-.07l0,0s.05-.14.07-.2l-.07-.06,0,0s0-.06-.06,0v0c-.09,0,0,0-.06-.11a0,0,0,0,1,0,0s.05,0,.08,0-.16-.11-.19,0-.06,0-.05-.07l.08,0L1.29,3s0-.07,0-.11.15.09.15,0A.3.3,0,0,0,1.55,3s0,0,0,0-.05,0-.06-.11.09,0,.11-.09l0,.06h0s0,0-.05,0-.08-.1,0-.11c-.11.08-.08-.14-.15-.09s0-.07,0-.07.08,0,.13,0-.05.05-.08,0,0-.07.06-.09h0l0-.06s-.06.06-.08,0,0-.07,0-.07.11,0,.12.06,0-.17-.07-.12v0s-.08.11-.09,0h0l0-.06,0,0s0,0,0,0,0,0,.05,0,0-.07-.06-.08,0-.06,0,0,0-.15,0-.19,0,0-.06,0c.12-.07.05-.25,0-.37-.1,0,0,0-.11-.05s.09-.12.11,0V1.33c.06,0,.05.11.12,0s-.11-.12-.07-.2,0-.07.05,0,0,0,0,.06h0c0-.16-.09-.05-.14-.13S1.48,1,1.52,1a.1.1,0,0,0,0-.09c.05.06-.05.11-.09.08s0-.14,0-.17c-.09.14,0,.09-.1.22s.1,0,.07.1,0,0-.05,0,0,.06,0,.08-.1-.05-.11,0l.1,0s-.08,0-.05.05-.08,0-.1-.08c-.09.11.05.16.08.25s0,0,0,0,0,.05,0,.07-.05,0-.08,0v.09h0s0,0,0,.06l-.1-.06.07.1s0,.07-.08,0l0,.13H1s0,0,0,0S1.17,2,1,2a1.15,1.15,0,0,1,.06.28C1,2.19,1,2.4,1,2.29c0,.07.05.08.06.13s-.1,0-.12,0l0,.06H1l0,0s-.06,0-.07.07H1l0,0s0,0,0,.06H1v.05c0-.05,0,0,0,0s0,0,0,.11H1c0,.1-.06,0-.07.08H1c-.08.11.05.19,0,.28a0,0,0,0,0,0,0c0,.07,0,.19.06.27s-.09,0-.12.11,0,.06.05.08,0,.16,0,.16,0,0,0,.08h0C.79,4,1,4,.86,4.13h0l0,0s0,0-.06,0v.19l0,0s.05.07,0,.11,0,.07-.06.08l0,0s0,0,0,0-.09,0,0,.12v0s.06,0,.06,0,0,0,0,0,0,.14,0,.16a0,0,0,0,1-.06,0c0,.12,0,0,0,.18h0l0,0-.05.06,0,0s0,.07,0,.12l0,0c0,.11-.07.13,0,.24l0,0c.07.1-.07.07,0,.17h0l0,0h0l.08,0-.06,0,0,0c-.11,0,0,.12-.11.18H.67c.14.17-.08.39,0,.59H.6l.07.08c-.05,0-.05,0-.08,0s.08,0,.1.14,0,0-.06,0a.48.48,0,0,1,0,.31h0c0,.07,0,.15,0,.22s0,0,0,0,0,.06,0,.08l-.05,0c0,.06,0,.16,0,.18a0,0,0,0,1,.06,0c-.08,0,0,.13,0,.21s0-.07,0,0,0,.07.05.1h0l.05.18C.58,7.83.67,8,.61,8s0-.06.05,0,0,.07,0,.06h0v0l-.06,0a.13.13,0,0,0,.11.08s0,.11-.05.14l0,0c0,.13-.14.21,0,.31s0,0,0,0v.08l0,0,.06.14h0a1.9,1.9,0,0,0,0,.33l0,0c.05.13,0,.12,0,.21h0v.08l0,0c.06.06-.07.17,0,.14s.06.09.1.1,0,0-.06.08,0,.07,0,.16h0a1.11,1.11,0,0,0,0,.13l0,0c.06.09-.08.11,0,.18s0,.12-.06.11a1.87,1.87,0,0,1,.08.32c-.09,0,0,0-.05.09H.55c0,.16-.11.34-.09.52H.41l.05,0c0,.19,0,.43,0,.58s.08.13.06.21h0a1,1,0,0,1,0,.43s0,0,0,0,0,.09,0,.12l0,0s0,.1,0,.13l.06.06,0,0h0l-.06,0s0,.11.09.14,0,.07-.05,0l0,.24,0,0c.05,0,.08.07.06.11s-.07,0-.1,0,0,0,.06,0a.15.15,0,0,1,0,.15l0,0s-.06.08-.06.13,0,.09.09.08-.06,0-.07.05,0,.14,0,.15c.12,0,0,.2.06.21L.45,14s.09,0,.1.07-.07,0-.1,0l.1,0c-.11.26,0,.61-.13.9a1.56,1.56,0,0,1,.06.44l0,0,0,.15,0-.11a.16.16,0,0,1,0,.09,1.29,1.29,0,0,0,0,.59c.12.13-.1.08,0,.21l0,0a1.81,1.81,0,0,0,.13.34c-.11,0,0,.09-.06.08H.53s0,.1-.07.09L.52,17H.47c0,.08,0,.25-.06.29a2.07,2.07,0,0,1,0,.75.24.24,0,0,1,0,.17l0,.06c0,.05.09.11,0,.17h0c0,.06,0,.11,0,.17s0,.12-.09.1c.1,0,0,.14,0,.14s-.23,3.26.28,4.06c0,0,.08.1.14.07S.75,23,.8,23s.12,0,.18-.05V23S1,23,1,23H.93A.09.09,0,0,1,1,22.88s-.16-.07-.1-.15v0c0-.07.06,0,.07-.06v0L1,22.65s0,.12,0,.08,0,0,0,0,0,0,.07,0v-.07s0,.05,0,0l-.05-.09c.11,0-.05-.1.05-.14s0,0,.07,0v-.16s0,0,0,0,0,0,0-.07,0-.12.06-.11-.08,0-.05-.15,0,.08.06,0l0-.11s.07,0,.06.06c.06-.28.27-.43.22-.69.05,0,0,0,.06.05-.06-.19.11-.27.11-.42h0c.12-.22.05-.49.1-.74l0,0s0-.09-.06-.13.09,0,.07,0,0,0-.05,0a4.55,4.55,0,0,0,.13-1c0-.48.05-1,0-1.47,0,.07-.1,0-.08,0s0-.26.09-.41c-.05-.27.09-.52,0-.77h.05s0-.05,0-.09h0c0-.09,0-.21,0-.26H1.8c0-.06,0,0,0-.09h0l-.05-.07c.1,0,0-.16.05-.2a1.39,1.39,0,0,1,0-.32c.05,0,.05-.16.08-.24a4.29,4.29,0,0,1,0-.63H1.8v-.06h0c.07,0,0-.13,0-.17s0,0,0,.07-.09,0-.06-.06h0l0,0c.05,0,.07,0,.12-.05a2.74,2.74,0,0,1-.07-.5c.05,0,0-.13.08-.1s-.08,0-.14,0,0-.06,0-.07.06,0,.06,0V13.3l0,0c-.05-.15.06-.27,0-.41s0,.05,0,0,.06-.12,0-.25l.05,0c0-.05-.08-.06,0-.13s.05.06.07.09,0-.17-.06-.13,0-.08,0-.11,0,.05-.07,0a1.35,1.35,0,0,0,0-.29h0C1.82,12.1,1.94,12.11,1.92,12Z"/><path d="M1.64,6.94V7s0,0,0,0Z"/><path d="M1.61,8.76h0Z"/><path d="M1.7,9.2s0,0,0,0Z"/><path d="M1.5,5.91h0Z"/><path d="M1.54,3.07h0Z"/><path d="M1.45,3.22a.08.08,0,0,0,0,0S1.46,3.23,1.45,3.22Z"/><path d="M1.52,6.6s0,0,0,0Z"/><path d="M1.47,3.29v0h0Z"/><path d="M1.55,3a.07.07,0,0,0,0,0A.11.11,0,0,0,1.55,3Z"/><path d="M1.43,4.87h0S1.44,4.88,1.43,4.87Z"/><polygon points="1.57 3.46 1.56 3.47 1.58 3.48 1.57 3.46"/><path d="M1.57,2.85v0Z"/><path d="M1.51,4.27h0S1.48,4.28,1.51,4.27Z"/><path d="M2.93,1.08s0,0,0,0A0,0,0,0,0,2.93,1.08Z"/><path d="M4.36,1.24h0S4.36,1.25,4.36,1.24Z"/><path d="M2.07,1Z"/><path d="M7.41,1.42h0Z"/><path d="M5.6,1.3l0,0S5.6,1.28,5.6,1.3Z"/><path d="M1.62.48l0,0A.05.05,0,0,0,1.62.48Z"/><path d="M.75.63h0Z"/><path d="M1.09.77h0S1.09.76,1.09.77Z"/><path d="M1.12.75h0Z"/><path d="M18.48,1.24s.05,0,.07-.05Z"/><path d="M10.17,1.44h0A0,0,0,0,0,10.17,1.44Z"/><path d="M18.51.93h0Z"/><path d="M2.08.39s.07,0,.07,0S2.09.34,2.08.39Z"/><path d="M10.75.11h0Z"/><path d="M18.51.93h0v0Z"/><polygon points="13.04 1.45 13.04 1.45 13.04 1.46 13.04 1.45"/><path d="M13.2,1.51h0S13.19,1.52,13.2,1.51Z"/><path d="M18.55,1.19l0,0Z"/><path d="M14.84,1.46h0Z"/><path d="M5.48,1.28h0S5.47,1.28,5.48,1.28Z"/><polygon points="6.62 0.34 6.62 0.34 6.62 0.34 6.62 0.34"/><path d="M6.56.39s0,0,.06,0S6.58.35,6.56.39Z"/><path d="M6.75.36h0Z"/><polygon points="5.53 0.29 5.53 0.29 5.53 0.29 5.53 0.29"/><path d="M5.77.28l0,0Z"/><polygon points="7.35 0.26 7.35 0.26 7.35 0.26 7.35 0.26"/><path d="M9.63,0a4.87,4.87,0,0,1-.75.07c-.05.08-.12.08-.2.09V.07L8.62.1s0,0,0-.06L8.6.1S8.44.08,8.54,0H8.31c-.05,0,0,.08-.09.06s0,0,0-.06C8.07-.06,8,.2,7.88.16v0s-.08,0-.08,0,0,0,.08,0-.06.05-.06.11-.06,0-.09,0S7.6.3,7.56.23,7.5.34,7.45.34s0-.06,0-.08v0s0,0,0,0,0,.07-.1,0l0,0s-.06,0-.13,0,0,0,0,0-.06,0-.08,0,0,0,0,.08-.07.06-.09,0l0,0c-.07,0,0,.06-.11,0v0c-.05.06-.11,0-.18,0h0s0,0-.06,0,0,0,0,.09-.08.09-.17,0,0-.06,0,0,0-.15.09-.19-.08,0-.07,0V.34h0s0,.08,0,.11,0-.08,0,0,0,.08-.1.05,0,0,0,0-.12,0-.14-.08,0,0,0,0h0c.06-.07,0,0,0-.06s-.06,0-.1,0V.37c-.1.16,0-.11-.1-.09s0,0,0,.06S6.1.28,6,.3A.15.15,0,0,1,6,.19s-.12,0-.14,0,.06-.06.15,0L6,.3s-.12,0-.16,0a0,0,0,0,1,0,0c-.08,0-.1.08-.18.06s0,0,.07-.05,0,0-.13,0,.06,0,.06,0H5.53c0,.08-.07,0-.12,0S5.27.42,5.2.48a0,0,0,0,1,0-.06s0,0,0,0S5.13.33,5.15.3s0,0,0,.06H5.05s0,0,0,.08a.4.4,0,0,1-.11,0s0-.06,0-.06a0,0,0,0,0-.08,0c.06,0-.09,0,0,.1l-.05,0s0,0,0,0,0,0-.07,0-.07,0-.07,0a.05.05,0,0,1-.07,0s0,0,0,.06H4.49s0-.13,0-.14,0,.1-.07.1-.06,0,0-.13a.14.14,0,0,0-.16,0s0,0,0,.08S4.15.5,4.05.48h0C4,.52,4,.52,4,.56A.17.17,0,0,0,3.82.39s.06.07,0,.12H3.79l0,0c-.06,0-.11-.09-.13,0L3.62.39l0,0s-.07,0-.08.06-.1,0-.13,0,0,.09,0,.1S3.3.51,3.31.46s-.06,0-.07,0V.4c0,.1-.08.09-.14.11C3.12.38,3,.52,3,.4c0,.09-.1,0-.11.11s0-.08-.06-.11l0,0s-.11,0-.16-.08l0,.08,0,0s-.05,0,0,.06h0c0,.08,0,0-.09.06a0,0,0,0,1,0-.05s0,0,0-.07-.1.15,0,.19a0,0,0,0,1-.06,0V.56l0,.08S2.25.6,2.22.59s.07-.14,0-.14.06,0,.08-.07,0,0,0,0,0,0-.09,0A.1.1,0,0,0,2.14.28l0,0s0,0,0,0,0,0,0,0-.07.09-.08,0S2,.52,2,.58,2,.61,2,.57s0-.08,0-.12,0,0,0,.07S1.9.49,1.89.46h0l0,0s0,.06,0,.08-.06,0-.06,0,0-.11.05-.12-.14,0-.1.08h0s.09.08,0,.09v0L1.67.55l0,0a0,0,0,0,1,0,0s0,0,0-.06-.05,0-.06.06-.05,0,0-.05-.12,0-.15,0,0,0,0,.06C1.27.41,1.12.48,1,.49S1,.51,1,.6.89.52,1,.49h0S1,.46,1,.38.86.5.79.46.73.48.75.4A.06.06,0,0,1,.8.38v0C.66.34.75.45.69.5S.63.44.62.41.57.41.55.43.64.47.61.52.5.51.48.54s.07,0,.18.1,0-.1.08-.07,0,.05,0,.06,0,0,.06,0,0,.1,0,.12V.61s0,.07,0,.05S.9.74.83.76C.92.84,1,.71,1,.67l0,0a.06.06,0,0,1,.06,0c.05,0,0,0,0,.07h.07s0,0,0,0a.73.73,0,0,1,0,.09L1.2.77s.06.06,0,.08h.11V.91s0,0,0,0,.17-.12.15,0c.09-.06.12,0,.23-.07-.08.06.09.08,0,.11s.07,0,.1-.05a.08.08,0,0,1,0,.12l0,0h0l0,0s0,.07.06.08V1L2,1S2,1,2,1h0s0,0,0,.06h.1V1c.08,0,0,.06.07.06V1c.1.08.16,0,.23,0s0,.07,0,.06S2.58,1,2.64,1s0,.09.09.12,0,0,.07-.05.13,0,.13,0,0,0,.06,0V1c.08.11.14-.06.22,0h0s0,0,0,.06h.15l0,0s.06-.05.09,0,.06,0,.07.06l0,0s0,0,0-.06,0,.09.1,0h0a.06.06,0,0,1,0-.07s0,0,0,0,.11,0,.13,0,0,0,0,.06,0,0,.14,0v0l0,0,0,.06v0s0,0,.09,0l0,0c.1,0,.11.06.2,0l0,0c.08-.06.06.08.15,0s0,0,0,0l0,0v.06l0-.08,0,.05,0,0c0,.1.1,0,.15.1V1.25c.14-.14.31.08.48,0v.05l.07-.06s0,.05,0,.07,0-.08.11-.09,0,0,0,.06a.38.38,0,0,1,.25,0v0a.54.54,0,0,1,.18,0,0,0,0,0,1,0,0s0,0,.07,0l0,0s.13,0,.14,0,0-.07,0-.06.1,0,.17,0-.06,0,0,0,0,0,.08,0v0l.15,0c0,.08.14,0,.13.05s0,0,0-.05.06,0,.06,0h0l0,.05s.06-.06.07-.1.09,0,.1.05h0c.11,0,.17.15.26.06s0,0,0,0h.06v0L7,1.38v0a1.26,1.26,0,0,0,.27,0h0c.09,0,.09,0,.16,0h.06v0c0-.05.14.08.11,0s.07-.06.08-.09,0,0,.06.06.06-.05.13,0v0a.24.24,0,0,1,.1,0h0c.07-.06.09.08.15,0s.09,0,.09.06l.25-.07c0,.09,0,0,.08,0v0c.13,0,.28.11.42.09v.05l0-.06a3,3,0,0,0,.48.05s.1-.09.17-.07h0a.69.69,0,0,1,.35,0s0,0,0,0,.08,0,.1,0l0,0c0-.05.09,0,.1,0l.06-.05a0,0,0,0,1,0,0v0l0,.07s.08,0,.11-.09,0,0,0,.05l.2,0,0,0s.06-.08.09-.05,0,.07,0,.1,0,0,0-.07.11,0,.13,0l0,0s.07.07.11.07.07,0,.07-.09,0,.06,0,.06.11,0,.12,0c0-.12.16.05.17-.06l0,.06s0-.09.05-.1,0,.08,0,.11l0-.1c.21.1.5,0,.73.12a1.08,1.08,0,0,1,.36-.05h0l.12,0-.09-.05.07,0a.78.78,0,0,0,.48,0c.11-.11.07.11.18,0a.08.08,0,0,0,0,0,1.17,1.17,0,0,0,.28-.13c0,.12.07,0,.06.06v0s.08,0,.07.07l.05-.06v.05c.07,0,.21,0,.24.06a1.37,1.37,0,0,1,.61,0s.09,0,.14-.05l.05.06s.09-.09.13-.05h0c.05,0,.09,0,.14,0s.1,0,.08.08.11,0,.11,0,2.66.23,3.31-.29c0-.05.09-.08.06-.13s.07.06.08,0,0-.13,0-.18l0,0s-.06,0-.05,0V1A.09.09,0,0,1,18.5.94s-.05.15-.12.1h0c-.06,0,0-.05,0-.07h0l-.05,0s.1,0,.07,0,0,0,0,0,0-.05,0-.07h-.05s0,0,0,0l-.07,0c0-.1-.08.05-.12,0s0,0,0-.06H18s0,0,0,0,0,0-.05,0-.1,0-.1-.07,0,.09-.12,0,.07,0,0,0h-.08s0-.06.05-.06c-.24-.05-.36-.27-.57-.21,0,0,0,0,0-.07C17,.41,17,.23,16.83.24v0c-.18-.13-.4-.05-.6-.11l0,0a.26.26,0,0,1-.11.07s0-.09,0-.08,0,0,0,0A3.62,3.62,0,0,0,15.3.11c-.39,0-.82,0-1.2,0,.06,0,0,.1,0,.07s-.21,0-.33-.08c-.23.05-.43-.1-.64,0v0s0,0-.07,0h0c-.08,0-.17,0-.22,0V.13c-.05,0,0,0-.07,0v0L12.7.14c0-.09-.13,0-.16-.05a.53.53,0,0,1-.26,0s-.13,0-.2-.07a2.84,2.84,0,0,1-.51,0V.13h0s0,0,0,0-.11,0-.14,0,0,0,.06,0,0,.08,0,0h0l0,0c0-.05,0-.07,0-.12s-.25.1-.4.08c0-.06-.11,0-.08-.08s0,.07,0,.14-.05,0-.06,0,0-.06,0-.07h-.06s0,0,0,0-.22-.06-.33,0,0,0,0,0-.1-.06-.2,0l0,0s-.05.07-.11,0,.05,0,.08-.08-.14,0-.11.07-.06,0-.09,0,0,0,0,.06a.63.63,0,0,0-.24,0s0,0,0,0S9.71,0,9.63,0Z"/><path d="M5.5.28h0a0,0,0,0,1,0,0Z"/><path d="M7,.32s0,0,0,0S7,.31,7,.32Z"/><path d="M7.34.22s0,0,0,0A.08.08,0,0,0,7.34.22Z"/><path d="M4.66.43s0,0,0,0A0,0,0,0,0,4.66.43Z"/><path d="M2.34.39h0Z"/><path d="M2.46.47h0Z"/><path d="M5.22.41l0,0S5.23.4,5.22.41Z"/><path d="M2.52.45h0Z"/><path d="M2.29.38h0S2.31.37,2.29.38Z"/><path d="M3.81.5h0S3.82.48,3.81.5Z"/><polygon points="2.66 0.36 2.66 0.36 2.67 0.35 2.66 0.36"/><path d="M2.15.36s0,0,0,0h0Z"/><path d="M3.32.41a.11.11,0,0,0,0,.05S3.32.45,3.32.41Z"/><path d="M22.34,21.18h0Z"/><path d="M22.5,20v0S22.51,20,22.5,20Z"/><path d="M22.27,21.89h0v0Z"/><path d="M22.68,17.48v0Z"/><path d="M22.56,19s0,0,0,0Z"/><path d="M21.74,22.27l0,0S21.75,22.25,21.74,22.27Z"/><path d="M21.89,23h0Z"/><path d="M22,22.7a0,0,0,0,1,0,0S22,22.7,22,22.7Z"/><path d="M22,22.67h0Z"/><path d="M22.5,8.33s0,0-.05-.06Z"/><path d="M22.7,15.2h0A0,0,0,0,0,22.7,15.2Z"/><path d="M22.19,8.3h0A0,0,0,0,0,22.19,8.3Z"/><path d="M21.65,21.89s0-.07,0-.07S21.6,21.88,21.65,21.89Z"/><path d="M21.37,14.72v0Z"/><path d="M22.19,8.3v0h0Z"/><polygon points="22.71 12.82 22.71 12.82 22.72 12.83 22.71 12.82"/><path d="M22.77,12.7v0S22.78,12.7,22.77,12.7Z"/><path d="M22.45,8.27l0,0Z"/><path d="M22.72,11.34h0Z"/><path d="M22.54,19.07h0Z"/><polygon points="21.6 18.13 21.6 18.13 21.6 18.13 21.6 18.13"/><path d="M21.65,18.18s0,0,0-.05S21.61,18.16,21.65,18.18Z"/><path d="M21.62,18Z"/><polygon points="21.55 19.03 21.55 19.03 21.55 19.03 21.55 19.03"/><path d="M21.54,18.83h0Z"/><polygon points="21.52 17.53 21.52 17.53 21.52 17.53 21.52 17.53"/><path d="M21.26,15.65a3.18,3.18,0,0,1,.07.62c.08,0,.08.1.09.16h-.09l0,.05s0,0-.06,0l.06,0s0,.13-.09,0v.2s.08,0,.06.07,0,0-.06,0,.19.16.15.29h0s0,.07,0,.07-.05,0,0-.07,0,.05.11.05,0,.05,0,.08,0,.11-.08.14.11,0,.11.1-.06,0-.08,0h.05s0,0-.05,0,.07,0,0,.09l0,0s0,.05,0,.1,0,0,0,0,0,.05,0,.06,0,0,.08,0,.06.05,0,.07l-.05,0c0,.06.06,0,0,.1h0c.06,0,0,.1,0,.16h0s.05,0,.05.05,0,0,.09,0,.09.07,0,.14-.06,0,0,0a.42.42,0,0,1-.19-.07s0,.06,0,0h.08s0,0,0,0,.08,0,.11,0-.08,0,0,0,.08,0,0,.08,0,0,0,0,0,.1-.08.11,0,0,0,0h0c-.07,0,0,0-.06,0s0,0,0,.08h.06c.16.09-.11,0-.09.08s0,0,.06,0-.06.06,0,.11a.14.14,0,0,1-.11.05s0,.1,0,.12-.06-.06,0-.12h.06c0,.05,0,.11,0,.14a0,0,0,0,1,0,0c0,.06.08.08.07.14s-.05,0-.06-.05,0,0,0,.1,0,0,0-.05V19h0c.08,0,0,.06,0,.1s.11.12.17.18a.07.07,0,0,1-.06,0s0,0,0,0-.08.07-.11.06,0,0,.06,0v.07s.05,0,.08,0,0,0,0,.09-.06,0-.06,0,0,0,0,.07,0,.07.1,0l0,0s0,0,0,0,0,0,0,.05,0,.06,0,.06,0,.06,0,.06,0,0,.06,0v.08s-.13,0-.14,0,.1,0,.1.06-.05.05-.13,0-.05.09,0,.13,0,0,.08,0,.17.12.15.2v0c0,.05,0,0,.07.07s-.18.06-.17.14.07-.05.12,0v.06h0c0,.05-.09.09,0,.1l-.1.05,0,0s0,.06.06.08,0,.07,0,.1.09,0,.1,0,0,.09-.09.09,0,.05,0,.05h-.07c.1,0,.09.07.11.12s0,.05-.11.07c.09,0,0,.09.11.1s-.08,0-.11,0l0,0s-.05.09-.08.13l.08,0,0,0s0,0,.06,0v0c.08,0,0,0,.06.07h-.05s0,0-.07,0,.15.08.19,0,.06,0,0,.05h-.08l.08,0s0,.05,0,.07-.14-.06-.14,0-.05-.05-.07-.07,0,0,0,0,0,0,0,.07-.09,0-.11.06l.05,0h0l0,0s.09.06.05.07.08.1.14.06,0,0,0,0-.08,0-.12,0,.05,0,.07,0,0,.05-.06.07v0l0,0s.06,0,.08,0,0,.05,0,.05-.11,0-.12,0,0,.12.08.08v0s.08-.07.09,0h0l0,.05,0,0s0,0,0,0,0,0-.06,0,0,0,.06.05,0,0,0,0,0,.11,0,.13,0,0,.06,0c-.12,0-.05.17,0,.25s0,0,.11,0-.08.08-.11,0v0c-.05,0,0-.07-.12,0s.12.08.08.13,0,.05-.06,0,0,0,0,0h0c0,.11.09,0,.14.09s-.06.05-.09.05,0,0,0,.06,0-.07.09,0,0,.09,0,.11,0-.06.1-.15-.1,0-.07-.06.05,0,.06,0,0,0,0-.06.1,0,.12,0h-.1s.07,0,.05,0,.08,0,.1.05-.05-.11-.09-.17l0,0a.05.05,0,0,1,0-.05s0,0,.07,0v-.06h0s0,0,0,0,.07,0,.09,0L22,22.61s.06-.05.08,0v-.1h.07s0,0,0,0-.12-.14,0-.12c-.06-.07,0-.1-.07-.19.06.07.08-.08.11,0s0-.05-.05-.09.09,0,.12,0l0,0h0l0,0s.07,0,.08,0h-.06l0,0s0,0,0,0h0v0s0,0,.06,0a.28.28,0,0,0,0-.08h0c0-.07.06,0,.06-.06h0c.08-.08,0-.13,0-.19s.07,0,.06,0,0-.13-.07-.18.09,0,.12-.07,0-.05-.05-.06,0-.1,0-.11,0,0,0-.05h0c.11-.06-.06-.11,0-.18v0s0,0,.06,0v-.13l0,0s-.05,0,0-.07,0-.05.06-.05l0,0s0,0-.06,0,.09,0,0-.08v0s-.07,0-.07,0,0,0,0,0,0-.09,0-.11,0,0,.06,0,0,0,0-.12h0l0,0,.06,0h0s0,0,0-.07h0c0-.08.06-.09,0-.16h0c-.06-.06.08-.05,0-.12s0,0,0,0l0,0h.06l-.08,0,.05,0h0c.1,0,0-.08.1-.13h-.07c-.14-.11.08-.26,0-.39h0l-.06-.06s.05,0,.07,0-.08,0-.09-.1,0,0,.06,0-.06-.16,0-.21h0s0-.1,0-.15a0,0,0,0,1,0,0s0,0,0-.06l0,0s0-.11,0-.12-.07,0-.06,0,0-.09,0-.14,0,.05,0,0,0-.05,0-.08h0l0-.12c.08,0,0-.11,0-.1s0,0,0,0,0-.05,0-.05h0v0l.05,0s-.06-.05-.1-.06,0-.07.05-.09v0c0-.09.15-.15.06-.22s0,0,0,0v-.05h0l-.06-.09h0a.92.92,0,0,0,0-.23v0c0-.09,0-.08,0-.14h0v-.05h0c-.05,0,.08-.11,0-.09a.31.31,0,0,0-.09-.07c0-.06,0,0,.06-.05s-.05-.05,0-.11h0a.15.15,0,0,1,0-.08h0c-.06-.06.08-.07,0-.12s0-.08.06-.08a1.29,1.29,0,0,1-.07-.21c.09,0,0,0,0-.06h0c0-.1.11-.23.09-.35h.05l-.06,0a2.08,2.08,0,0,0,.05-.4s-.09-.08-.07-.14h0a.48.48,0,0,1,0-.29h0c-.05,0,0-.06,0-.08l0,0c-.05,0,0-.07,0-.09l-.05,0h0l.07,0s0-.07-.09-.09,0-.05.05,0l0-.16,0,0s-.08,0-.05-.07.07,0,.1,0,0,0-.07,0-.05-.09,0-.1h0s.07,0,.07-.09,0-.06-.09-.05.06,0,.06,0,0-.09,0-.1c-.12,0,.05-.13-.06-.14l.06,0s-.09,0-.1,0,.08,0,.11,0l-.1,0c.1-.18,0-.41.12-.61a.68.68,0,0,1-.05-.29h0l0-.1-.05.07s0,0,0-.06a.54.54,0,0,0,0-.4c-.11-.08.11-.05,0-.14l0,0a.89.89,0,0,0-.13-.23c.12,0,0-.06.06-.05h0s0-.07.07-.06l-.06,0h0c0-.05,0-.17.06-.19a1,1,0,0,1,0-.51s0-.07-.05-.11l.06,0s-.09-.08-.05-.11h0s0-.08,0-.11,0-.09.08-.07,0-.1,0-.1.23-2.2-.29-2.73c-.05,0-.08-.07-.13-.05s.06-.06,0-.06-.13,0-.18,0l0,0s0,0,0,0h.09s0,0-.06.05.15,0,.1.1h0s-.05,0-.07,0h0l0,0s0-.08,0-.06,0,0,0,0-.05,0-.07,0v0s0,0,0,0l0,.06c-.1,0,.05.06-.05.09s0,0-.06,0v.11s0,0,0,0,0,0,0,0,0,.08-.07.08S22,8.9,22,9s0-.05-.05,0V9s-.06,0-.06,0c-.05.19-.27.3-.21.47s0,0-.07,0-.11.18-.1.29h0c-.13.15-.05.33-.11.5l0,0a.28.28,0,0,1,.07.09s-.09,0-.08,0,0,0,.05,0a2.42,2.42,0,0,0-.13.69c0,.32-.05.67,0,1,0,0,.1,0,.07,0s0,.17-.08.28c.05.18-.1.35,0,.52h0s0,0,0,.06h0c0,.07,0,.14,0,.18h.05s0,0,0,.06h0l0,0c-.09,0,0,.11,0,.14a.38.38,0,0,1,0,.22c-.05,0-.05.1-.07.16a1.93,1.93,0,0,1,0,.42h.06v0h0c-.07,0,0,.08,0,.11s0,0,0,0,.08,0,.05,0h0l0,0-.12,0c0,.12.1.2.08.33s0,.09-.08.07.07,0,.14,0,0,0,0,.05-.06,0-.07,0v0h0c.06.1-.06.18,0,.28s0,0,0,0-.06.08,0,.17l-.05,0s.07,0,0,.09-.05,0-.08-.07,0,.12.07.09,0,.06-.05.08,0,0,.06,0a.46.46,0,0,0,0,.2h0C21.37,15.58,21.25,15.58,21.26,15.65Z"/><path d="M21.54,19.06v0h0Z"/><path d="M21.58,17.83h0Z"/><path d="M21.48,17.54s0,0,0,0Z"/><path d="M21.69,19.75h0S21.68,19.76,21.69,19.75Z"/><path d="M21.65,21.67h0Z"/><path d="M21.73,21.57v0S21.73,21.56,21.73,21.57Z"/><path d="M21.67,19.29l0,0A0,0,0,0,0,21.67,19.29Z"/><path d="M21.71,21.52v0h0Z"/><path d="M21.64,21.71a.06.06,0,0,1,0,0S21.63,21.7,21.64,21.71Z"/><path d="M21.76,20.46Z"/><polygon points="21.62 21.41 21.62 21.4 21.61 21.4 21.62 21.41"/><path d="M21.62,21.82a0,0,0,0,0,0,0v0Z"/><path d="M21.67,20.86h0S21.71,20.86,21.67,20.86Z"/></svg>