<svg id="Layer_1" data-name="Layer 1" xmlns="http://www.w3.org/2000/svg" viewBox="0 0 24 24"><defs><style>.cls-1{fill:none;}</style></defs><path class="cls-1" d="M18.26,6.79C17.81-2.95,3.15-.25,6.18,9l-.44.16,6.13,14.19H12q3.09-7.09,6.16-14.19A2.86,2.86,0,0,0,17.84,9,6.36,6.36,0,0,0,18.26,6.79Zm-2.58.83-.25,0A41,41,0,0,0,10.6,8c-.34-.06-4.17.88-2.82,0A13.06,13.06,0,0,1,10,6.82c.35-.21.49-.65.74-1a14.16,14.16,0,0,1,2.66-.64c.14,0,.35-.1.39.1s0,.9.48,1c.53.23,2.24.57,2.29,1.16C16.48,7.73,15.87,7.58,15.68,7.62Z"/><path d="M16,13.54h0Z"/><path d="M14.11,17.54v-.05A.13.13,0,0,0,14.11,17.54Z"/><path d="M17.1,11.14h0s0-.09.07-.17Z"/><path d="M11.14,20.26l0,0Z"/><path d="M12.54,21a.25.25,0,0,1,0,.07S12.55,21.05,12.54,21Z"/><path d="M18.09,10.05l-.06,0S18.07,10.09,18.09,10.05Z"/><path d="M18.34,7.64h0A0,0,0,0,0,18.34,7.64Z"/><path d="M18,8.65v.08S18,8.66,18,8.65Z"/><path d="M18,8.76v0S18,8.76,18,8.76Z"/><path d="M17.82,6.4a1,1,0,0,0,.06.2Z"/><path d="M7.78,12.43h0S7.78,12.43,7.78,12.43Z"/><path d="M18.1,6.47v0Z"/><path d="M17.6,11.38c0,.09-.1.22-.07.23S17.63,11.43,17.6,11.38Z"/><path d="M6,11.23l0,0Z"/><path d="M18.1,6.47v0A.06.06,0,0,1,18.1,6.47Z"/><polygon points="6.7 4.69 6.7 4.69 6.69 4.71 6.7 4.69"/><path d="M6.91,4.33l0,.09A.2.2,0,0,0,6.91,4.33Z"/><path d="M17.88,6.6l0,.12A.56.56,0,0,0,17.88,6.6Z"/><path d="M10.35,1.52l0,0Z"/><path d="M12.7,20.72l0,0S12.71,20.67,12.7,20.72Z"/><polygon points="11.4 23.23 11.4 23.23 11.4 23.23 11.4 23.23"/><path d="M11.54,23.32a.28.28,0,0,0-.14-.09A.22.22,0,0,0,11.54,23.32Z"/><path d="M11.16,22.65v0Z"/><polygon points="13.44 21.19 13.44 21.19 13.44 21.19 13.44 21.19"/><path d="M13.15,21.88a.08.08,0,0,0,0,0Z"/><polygon points="10.28 20.82 10.28 20.82 10.28 20.82 10.28 20.82"/><path d="M7.28,14.45c.3.65.72,1.46,1,2.11a2.1,2.1,0,0,1,.31.52l-.07.05.1.16c0,.08-.07-.12,0,0l.08.05s.17.44,0,.18l.28.67c.06.14.1.05.16.22s0-.05-.07,0c.16.51.4.49.56,1l0,0a2.33,2.33,0,0,0,.13.21c0-.09-.08-.06-.09-.22s.11.16.15.13c0,.12.09.16.13.25s.16.39.16.53a1.25,1.25,0,0,1,.23.3c0,.14-.06,0,0,.16h0c.05.14,0,.12,0,.12s.1.1.15.29L10.35,21a2.63,2.63,0,0,1,.17.37s-.06-.07-.07-.12c0,.12.1.16.11.21s0-.15,0-.1.14.17.12.25l-.08-.08c.11.18.09.08.17.3,0,0,0,0,0,0a.73.73,0,0,1,.13.23l0,.15.09.24,0,0c.07.12.13.16.15.23-.06-.19,0-.15,0-.2.05.28.2.29.32.63,0,0-.07,0-.1-.13s-.13,0-.27-.22c.08.14.17.31.13.31l.06,0c0,.08.07.18.1.22s0-.23.06-.11,0,.15,0,.14.08,0,.2.18c0,0,0,0-.05-.05.09.15.22.3.32.31a.14.14,0,0,1-.11,0h0c-.07,0,0,0,0,0s.15,0,.11,0a1.45,1.45,0,0,0,.24-.22l0,0c.18-.41,0,.12.23-.13s-.06,0,0-.1.15-.13.27-.45c0-.07.14-.22.2-.2a2.93,2.93,0,0,1,.16-.39.39.39,0,0,0,.06-.2.56.56,0,0,0-.09.2,1.12,1.12,0,0,1-.18.38v-.15c.13-.3.17-.46.24-.57s0,0,0,0a3.27,3.27,0,0,1,.17-.53c.06,0,0,.12,0,.21a2.3,2.3,0,0,0,.17-.35c.05,0-.06.14,0,.18l.1-.24h0c0-.06.08-.18.13-.34a1.73,1.73,0,0,0,.12-.66s.06-.05.07,0,0,.07,0,.11c0-.12.18-.23.18-.16.06-.19-.07.06,0-.07L14,19.8c-.05,0-.09.1-.06,0s.07-.17.13-.32c0,0,.07,0,0,.09,0-.07.1-.18.08-.23-.1.14.09-.28,0-.18l.1-.15s0,.05,0,.1,0-.14.06-.19.1-.2.13-.2.07-.18.11-.19,0,0,0,0l.12-.26s.12,0,.11.06c0-.11-.07-.07,0-.22,0,.11.13-.17.14,0a1.45,1.45,0,0,0,.22-.45c0-.1-.09.13-.13.1.15-.37,0-.45.18-.71l0,.06a.67.67,0,0,0,0-.27c0,.07.24-.13.34-.41,0,0-.12.13-.14.07l.07-.19s0,0,0,0c0-.18.21-.28.16-.36l.16-.13-.07.05s.06-.22.06-.27a.75.75,0,0,1,.19-.35s-.12.08-.07-.07c.09,0,.17-.3.22-.27s.1-.16.06-.18l0,0c-.07,0,0-.26.09-.44.09.08.07-.19.2-.22-.06-.06.1-.31.06-.37s.11-.09.15-.11v-.07a4.56,4.56,0,0,0,.25-.43v-.16l.05,0s0-.15,0-.09l0-.07c-.07,0,0-.11.06-.27s0,0,0,0,.05,0,.09-.06,0-.32-.12-.13c0,0,0-.12,0-.19l.08,0,0-.11c0-.12.1-.15.15-.24,0,.1,0,.26.13,0a1.59,1.59,0,0,0-.06.28c0-.05,0-.07,0,0,.06-.2,0-.08.06-.27,0,0,.09,0,.18-.17l-.1.11v0s0,.05-.07.05,0-.24.08-.26c-.17.15.07-.35,0-.26s0-.16.08-.16c0,.18.11-.09.14,0s-.1.11-.08,0a.59.59,0,0,1,.14-.19v0l.09-.13s-.11.12-.07,0,.07-.17.09-.15.08,0,0,.17c0-.09.16-.39.06-.3l.05-.11c-.05.06-.18.24-.09,0h0l0-.17L18,10.1s0,0,0-.09.05-.06.07,0c.07-.17,0-.17,0-.2s.07-.12.08-.07a2.73,2.73,0,0,1,.22-.42v0l.08-.33-.25,0c-.12,0,.06,0-.05,0a.7.7,0,0,0-.3-.17l.18.38a4.31,4.31,0,0,0,.16-.59c-.11.06,0-.09-.05-.16s.14-.28.1,0l0-.17c.08-.1,0,.28.08.13s0-.33,0-.55c.05.09,0-.17.06-.1a.48.48,0,0,1,0,.17l0,0c.08-.41-.06-.13-.08-.35s.07-.19.1-.21a.45.45,0,0,0,0-.23c0,.16-.06.28-.09.21a.6.6,0,0,0,0-.44,3.2,3.2,0,0,1-.11.57s.08,0,0,.25c0-.13,0,0-.05,0s0,.14,0,.21-.07-.14-.12.06l.09,0c0,.08-.06,0-.07.13,0-.1-.08,0,0-.22-.13.25,0,.41-.07.63,0,0,0,0,0-.05a.47.47,0,0,1,0,.19c-.06.12,0-.12,0-.09L18,8.76h0c0,.06,0,.12,0,.13a.65.65,0,0,0,0-.16l0,.24s0,0-.05,0h0s.05.05,0,0h0V9l0,.05.05,0,.3.09v.07h0l0-.13c0,.05,0,.05,0,0l0,.1h0l0-.1c-.05.14-.1.48-.18.38a6.36,6.36,0,0,1-.22.66c.05-.25-.18.24-.1,0-.08.14,0,.19-.08.31s-.1,0-.07-.1l0,.14h0l0,.13c-.09.11-.07,0-.13.12l0,0-.06.08s0,.05,0,.15h0l0,.12c0-.13-.06.1-.07,0a1.3,1.3,0,0,0-.11.27h0c-.07.24-.05,0-.13.17h0c-.18.24-.16.47-.29.65,0-.12,0-.11,0-.1a4.26,4.26,0,0,0-.22.63c-.08,0-.11.05-.21.22s-.06.15,0,.21-.15.37-.19.35-.06.12-.06.2h0c-.18.19-.12.4-.29.59v0l0,.1s0,0,0-.05l-.19.44.06-.08a.66.66,0,0,1-.09.27c0-.2-.07.15-.13.16l0-.1c0,.13,0,.13,0,.13-.06.18-.12.09-.15.26l0-.11s0,.07,0,.14,0,.06,0,0c-.05.14-.15.33-.16.4s-.06,0-.05,0c-.09.3-.07.13-.16.43l0,0v.11l-.11.12,0,0a1.45,1.45,0,0,1-.11.26v-.05c-.09.27-.19.28-.25.54,0,0,0,0,0-.05-.05.26-.13.15-.17.41,0,0,0,0,0,0l0,.11,0,0,0,.11-.07.05v.05c-.13.07-.14.26-.27.39h.07c-.05.44-.45.87-.6,1.36l0,0,0,.22c-.08.09,0-.08-.05-.06-.07.22,0,.12-.07.36S13,20,13,20a4.82,4.82,0,0,1-.29.73s0,0,0,0a4.48,4.48,0,0,1-.22.52s0-.06,0-.1a.56.56,0,0,0-.08.2v-.08c-.06.12-.13.38-.19.39s0,0,0,.12-.06.22-.12.25,0-.06,0,0,0,.06,0,.12v0l0,.2c0-.1-.06.17-.07.05,0,.05,0,0,0,.11s-.08,0-.06-.07h0l0,0,0-.07s0,.06-.05.12,0-.11,0-.19h0c-.06-.1,0-.26-.06-.26s0,0,0,0l-.05-.13.05,0-.18-.29h0c-.08-.21-.22-.52-.34-.77l0,0a5.08,5.08,0,0,1-.21-.48s0,0,0,0l-.08-.18,0,0C11,20,11,19.69,11,19.79a1.5,1.5,0,0,0-.17-.21c-.09-.2,0-.06,0-.19a3.24,3.24,0,0,1-.18-.37h0a3,3,0,0,1-.15-.27l0,0c-.14-.19,0-.29-.22-.41s-.11-.26-.06-.27c-.14-.28-.24-.46-.37-.71.05-.07,0-.05-.06-.23l0,0c-.17-.37-.25-.83-.45-1.24l0,0-.08-.07c-.17-.44-.4-1-.55-1.37A2,2,0,0,1,8.48,14l0,0a9,9,0,0,1-.45-1s0,0,0,0S8,12.88,8,12.8v.1a.43.43,0,0,1-.1-.3l-.11-.14v0l0,0,0-.11s-.13-.23-.21-.27,0-.18,0-.07l-.23-.57,0,.09s-.13-.13-.15-.23c.08.11.06,0,.06-.07s0,.08,0,.05a1.3,1.3,0,0,1-.18-.35l0,0c-.07-.12,0-.21-.08-.34s-.09-.2-.15-.15c-.09-.16,0-.08,0-.14a.64.64,0,0,1-.13-.36c-.14,0-.16-.46-.26-.46V9.32s-.08,0-.14-.11,0-.11,0-.15L6.25,9l0-.08L6,9.63a3.34,3.34,0,0,0,.4-.1l.5-.17-.13-.55c-.07-.26-.14-.52-.2-.78a7.65,7.65,0,0,1-.09-.79,4.6,4.6,0,0,1-.06-1v0l0-.33,0,.24a1.49,1.49,0,0,1,0-.21c.08-.37.23-.83.35-1.28s.16-.14.2-.42c0,0,0,0,0,.06.11-.28.18-.43.3-.72.06.09.12-.16.15-.11l0,0c.06,0,.17-.16.17-.13s0-.09,0-.13l0,0c.13-.13.37-.44.51-.42a3.8,3.8,0,0,1,1.41-.95,1.25,1.25,0,0,1,.33-.18.75.75,0,0,1,.15,0,1.08,1.08,0,0,1,.36-.17s0,0,0,0,.25-.05.36-.13.29,0,.26,0,.3,0,.3,0a5.88,5.88,0,0,1,1.19,0A5.74,5.74,0,0,1,15,2.1a5.14,5.14,0,0,1,2,2.17,11.67,11.67,0,0,1,.77,2.13c.05.06.09.24.13.17,0,.14,0,.2,0,.23,0-.19.11,0,.15-.14l0,.12s-.05-.16,0-.13l-.08,0a.54.54,0,0,1,0-.19c0-.09-.15-.14-.12-.36v.06C18,6,18,6,18,6V6a1,1,0,0,0,0-.16c0,.12.07.3.05.2s0,.06,0-.1,0-.08.05-.08l0-.17s0,.12,0,0L18,5.53c.08-.06-.09-.23,0-.35.06.15,0,0,.06,0A2.72,2.72,0,0,0,18,4.79s.06.09,0,0-.06-.11-.07-.15-.09-.29,0-.3c-.07-.27-.12-.08-.19-.33,0,0,.09.19.08.07l-.12-.24s.08,0,.11.12A4.14,4.14,0,0,0,17,2.35c0-.1.07,0,.13.07-.38-.33-.41-.6-.76-.86l0,0A4.64,4.64,0,0,0,14.57.52l.07,0a1.69,1.69,0,0,1-.36-.06s.1,0-.09-.1c0,0,.11.07.08.07A6.62,6.62,0,0,0,11.52.09,7.65,7.65,0,0,0,7.77,1.45c.16-.11.14,0,0,.07-.41.14-.54.45-.9.69A4.69,4.69,0,0,0,5.7,4h0a.85.85,0,0,0-.09.24h0c-.11.25-.15.57-.22.71l0,0c0,.15-.06.07-.06.23h0v.2c-.07,0-.09.43-.12.55s0,.58,0,.88a3.18,3.18,0,0,0,0,.67c.05.23.1.5.15.79s.16.57.23.86l.05,0,0,.06L6,8.44l-.09,0s0,0,0,0-.29.11-.42.15L5,8.75l.22.64a.11.11,0,0,1,0,0,.11.11,0,0,0,0,0L5,8.7l.48-.1.13-.06c.12,0,0,.06-.11.1l-.46.11.16.62v0h0l.07.09s0,.12,0,.15c.19.42.38.68.55,1.13-.06,0,.15.31,0,.26.14.25,0-.07.14,0s.09.15.07.17,0,.08-.06,0l.09.18s0,0,0,0c.2.34.22.65.41,1,0,0,0-.13,0-.12.19.3.07.3.24.59l-.07-.05a.57.57,0,0,1,.16.29s-.09-.12-.15-.19c0,.11.18.39.18.29a.57.57,0,0,1,.08.26s0-.13,0-.07a6,6,0,0,0,.26.69s0,0,0,0C7.27,14.19,7.16,14.22,7.28,14.45Z"/><path d="M13.48,21.11l0,.08s0,0,0,.06Z"/><path d="M10.77,21.85l0,0S10.77,21.85,10.77,21.85Z"/><path d="M10.26,20.86c0,.07,0,0,0,0S10.26,20.83,10.26,20.86Z"/><path d="M14.4,18.68a0,0,0,0,0,0,0S14.41,18.67,14.4,18.68Z"/><path d="M17.29,12.11l0,0Z"/><path d="M17.06,12.45a.24.24,0,0,0,0,.07A.13.13,0,0,0,17.06,12.45Z"/><path d="M13.72,20.28a.17.17,0,0,0,0,.07A.26.26,0,0,0,13.72,20.28Z"/><polygon points="17.01 12.6 16.96 12.69 16.97 12.7 17.01 12.6"/><path d="M17.34,12l-.05.11A.34.34,0,0,0,17.34,12Z"/><path d="M15.39,16.24h0C15.38,16.33,15.39,16.28,15.39,16.24Z"/><polygon points="16.91 13.04 16.9 13.05 16.91 13.08 16.91 13.04"/><path d="M17.53,11.61a.09.09,0,0,0,0,.05l0-.05Z"/><path d="M16.06,14.89l0-.05S16,14.89,16.06,14.89Z"/><path d="M15.12,6.31v0Z"/><path d="M14.26,5.64h0A0,0,0,0,0,14.26,5.64Z"/><path d="M16,6.71h0l.06,0Z"/><path d="M10.63,5.29l0,0Z"/><path d="M12.77,4.91l0,0Z"/><path d="M16.19,7.36v0S16.18,7.35,16.19,7.36Z"/><path d="M16,7.48Z"/><path d="M16.36,7.59l0,0S16.36,7.57,16.36,7.59Z"/><path d="M16.39,7.55h0Z"/><path d="M15.47,8a.08.08,0,0,0,.08,0Z"/><path d="M7.22,7.71h0Z"/><path d="M15.55,7.72h0Z"/><path d="M15.78,7.21s-.07,0-.08,0S15.75,7.24,15.78,7.21Z"/><path d="M10.17,7.36Z"/><path d="M15.55,7.72h0Z"/><polygon points="8.54 8.86 8.54 8.86 8.52 8.87 8.54 8.86"/><path d="M8.77,8.88l-.08,0Z"/><path d="M15.55,8a.05.05,0,0,0,0,0Z"/><path d="M11.53,8.44h0Z"/><path d="M12.89,4.9h0A0,0,0,0,0,12.89,4.9Z"/><polygon points="11.8 5.92 11.79 5.92 11.79 5.92 11.8 5.92"/><path d="M11.85,5.87s0,0,0,0S11.83,5.91,11.85,5.87Z"/><path d="M11.66,5.93h0Z"/><polygon points="13.01 5.76 13.01 5.76 13.01 5.76 13.01 5.76"/><path d="M12.73,5.82h0Z"/><polygon points="11.11 6.19 11.11 6.19 11.11 6.19 11.11 6.19"/><path d="M10.54,7.27s-.12,0-.07,0-.05,0-.05-.06l.07.05v0l0,0,0,0h0s0,0,0,0,.19-.19.26-.28,0-.08,0-.14,0,0,0,0c.19-.17,0-.32.13-.45v0s0-.08,0-.09,0,0,0,.07,0-.08-.05-.1,0-.07,0-.08.05,0,.1,0,0-.08,0-.1,0,.05.06.06l0,0s0,0,0,0,0-.07.08-.07v0s.05,0,.11,0,0,0,0,0,.05,0,.07,0-.06,0-.05-.05.05-.08.09,0l0,.05c.06-.05,0-.06.1-.07a0,0,0,0,0,0,0c0-.07.11,0,.18,0h0s0-.06.05-.06,0,0-.05-.06.07-.1.17-.08,0,.06,0,0a.35.35,0,0,1-.05.18s.07,0,.06,0V5.93h.06s-.06-.06,0-.09.05.06.05,0,0-.08.1-.07,0,0,0,0,.13,0,.16,0,0,0,0,0h0c0,.07,0,0,0,0s.06,0,.1,0l0,0c.09-.16,0,.1.12.06s0,0,0,0,.08,0,.15,0,.07,0,.08.09.14,0,.16-.05-.07.07-.17,0l0-.06c.06,0,.14,0,.18,0a0,0,0,0,1,0,0c.09,0,.1-.1.19-.1s0,.05-.07.06.06,0,.16,0-.06,0-.07,0l.1,0h0c0-.07.08,0,.14,0s.14-.13.21-.21a.05.05,0,0,1,0,0s0,0,0,0a.09.09,0,0,1,.11.07h0s0,0,0,0v0h.09s-.06,0,0-.07a.12.12,0,0,1,.08,0s0,0,0,0,0-.12,0-.15,0,0,0,0,0,0,0,0h0l-.07,0-.07,0v.06a.05.05,0,0,1,0,0s0,0,0,0,0,0,.06,0v.09a.32.32,0,0,1-.13,0s.1,0,.1,0,0,.07-.11,0,0,.11,0,.22,0-.11.06-.1c.06.22.19.19.22.33v0c.05.07.05.06.1.08s-.08.2.07.29,0-.1,0-.11l.08.05h0c.09,0,.11.13.17.08l.06.11,0,0h.13a.13.13,0,0,1,.13.08s0-.09,0-.08.11.07.09.12.06,0,.07,0l0,0c0-.07.12,0,.18,0s.08,0,.07.12c0-.07.13,0,.16,0s0,.08,0,.11l0,0s.11.07.15.11l.07,0V7s.06,0,0,0h0c0-.07.05,0,.11,0a0,0,0,0,1,0,0s0,0,0,.07.14-.09.08-.14a0,0,0,0,1,.08,0V7l.06,0s0,0,.07.07-.12.09,0,.12-.08,0-.11,0,0,0,0,0,0,0,.1,0a.1.1,0,0,0,0,.12l0-.06h0s0,0,0,0,.11,0,.1,0,.14,0,.12-.08.06,0,0,0,0,.08,0,.11,0-.06,0-.07,0,.06,0,.08h0l0,0s0-.06,0,0,.05,0,0,0-.06.08-.09.07.1.06.1,0l0,0s0-.11,0-.07h.06v0s0,0,0,0,0,0,0,.05.05,0,.07,0,0,0,0,0,0,.06,0,.07,0,0,.06,0h0l.06-.07s0,0,0,0,0,0-.07,0,0,0,0,.09-.08-.06,0-.09h0s.08,0,0-.11-.09.11-.16.07,0,0,0,0,0,0,0,0h0c-.13,0,0,.07-.12.11s-.07-.05-.07-.08-.07,0-.1,0a.06.06,0,0,1,.09.08c0-.07-.16,0-.21,0,.2,0,.13,0,.26.08s0-.09.08-.06,0,0,0,.05,0,0,.06,0,0,.09,0,.1V7.46s0,.07,0,0,0,.07-.07.08c.09.08.15,0,.21-.08a0,0,0,0,0,0,0s0,0,0,0,0,0,0,.07l.07,0h0s0,0,0,0a.28.28,0,0,1,0,.09.41.41,0,0,0,0-.09s.09,0,.05,0a.21.21,0,0,0,.07-.12h0l.06,0s0,0,0,0-.17-.15-.06-.19a1.82,1.82,0,0,0-.23-.15c.11,0-.05-.13.05-.08s-.08,0-.13,0,0-.09.08-.08H16.2c0-.06,0-.06,0-.1l0,0v0s0,0-.07,0h0c.05,0,0,0,0-.06l-.11,0v0c-.1,0,0,0-.05-.08v0c-.08-.11-.19,0-.24-.1s.05-.05,0,0-.17,0-.25,0a.16.16,0,0,0-.07-.13c-.05,0-.06,0-.08,0s-.15,0-.13-.08,0,0-.08,0v0c-.06-.11-.16,0-.22-.1h0s0,0,0-.05l-.17-.06,0,0s-.08,0-.11,0-.05,0,0-.07h0c-.05,0-.05,0-.06,0s0-.06-.07-.08h0s0,0,0,0h0s0,0,0,0-.07,0-.09,0a0,0,0,0,1,0,0c-.08,0,0,0-.1,0l0,0h0l0-.06,0,0s0,0,0,0h0s0-.08,0-.11h0c-.06,0,.06,0,0-.12s0,0,0,0l0,0h0l-.07,0,0,0h0c.08-.07,0-.13,0-.23l-.06,0a.38.38,0,0,1-.09-.15l0,.06A.63.63,0,0,0,14,5a.62.62,0,0,0-.32-.18.58.58,0,0,0-.33,0v0h0l-.08.06c-.05,0,0,0,0,0s0,0,0,0h0c-.08.05,0,.08-.1.11s0,0,0-.06a.35.35,0,0,1-.24.08v0a.58.58,0,0,1-.19,0,0,0,0,0,1,0,0s-.06,0-.08,0l0,0s-.13,0-.15,0,0,.06,0,.06-.11,0-.19,0,.06,0,0,0-.06,0-.09.06V5L12.12,5c0-.07-.15,0-.15,0s.06,0,0,0-.06,0-.07,0h0l0,0a.1.1,0,0,0-.06.1c-.05,0-.11,0-.14,0l0,0c-.12,0-.24-.08-.32,0s0,0,0,0l-.08,0V5l-.12.08v0a1.39,1.39,0,0,0-.34.12v0c-.11.09-.11,0-.23.1h0l-.12,0,0,0c-.06.08-.29.08-.22.09a.54.54,0,0,0,0,.19c-.08.11,0,0-.11.07s0,.11-.09.18l0,0s0,.07,0,.11v0c0,.1-.11.06,0,.16s-.05.07-.09,0a.58.58,0,0,1-.07.19c-.06,0,0,0-.05,0l0,0c-.13.09-.6.16-.83.3l-.07,0v0A9.35,9.35,0,0,0,8,7.08s0,.1-.15.16h0a2.91,2.91,0,0,1-.41.3H7.36c.07,0-.07.06-.1.08l.1,0s-.06.07-.15.09l.06,0h0l-.14,0s0,.06.1,0-.09,0-.09,0L7,8l.05,0c.08,0,.1,0,.06,0S7,8,7,8,7,8,7.07,8s0,0,0,.06h0s-.11.06-.11.08,0,0,.1,0-.08,0-.09,0,0,.06,0,.08,0,.13,0,.12a.21.21,0,0,0,0,.07s.08,0,.11,0S7,8.52,7,8.54l.11,0c0,.15.2.18.22.32a2.69,2.69,0,0,1,.4,0h0l.09,0s0,0,0-.06l.14,0c.07.06.29.11.68,0s0,.09.32,0l-.09.05a5.11,5.11,0,0,0,.7-.22c-.12.12.14,0,.08,0l0,0s.14,0,.11,0l.13-.07,0,0c.14,0,.44-.1.49,0l.16-.05h.09V8.47h0V8.3a.89.89,0,0,1,0-.22l.11.49a2.74,2.74,0,0,1,.5-.07.3.3,0,0,1,.14-.06l.06.05s.09-.09.14-.07v0c.05,0,.1,0,.15,0s.11,0,.1.06.12,0,.12,0l1.41-.08A7,7,0,0,0,15.37,8a.21.21,0,0,1,.1-.06s.1-.05.09-.1a0,0,0,0,1,0,0h0l0-.17c0-.07,0-.13,0-.12a.34.34,0,0,0,0,.14c0,.07,0,.16,0,.13v0a.08.08,0,0,1,0,0s0-.06,0-.09h0s0,0,0-.11c0,.14-.06.11-.06.08l0,.08a.13.13,0,0,1-.06-.07s-.09.13-.13.07h0c-.05,0,0,0,0-.06h0v0l0,0h0s.06,0,0,0,0,0,0,0h0s0,0,0-.06h-.07s.05,0,0,0l-.08,0c0-.09-.09,0-.13,0s0,0,0-.06H15s0,0,0,0-.05,0-.06,0-.11,0-.11-.06,0,.08-.13,0,.07,0,0,0l-.1,0s0-.06.06,0c-.27,0-.42-.23-.65-.16,0,0,0,0,0-.06-.17.06-.24-.09-.39-.07v0c-.21-.1-.46,0-.69,0l0,0a.2.2,0,0,1-.12.06s0-.07-.05,0,.05,0,0,0a4.15,4.15,0,0,0-1,0c-.44.07-.93.06-1.37.15.07,0,.05.08,0,.07l0,0h.18l-.14,0a0,0,0,0,0,0,0s0,0,0,0,0,0,0,0,.05-.09-.12,0l.06,0,0,0,0,0,0,0-.09.06s.07,0,0,0l0,0-.1.07c.18-.12,0,0,.07-.06s-.15.08-.12,0l.16-.09s-.12,0-.08,0l-.21.09h0l.09,0c.25-.09-.09,0,.06,0-.2.08,0,0,0,0L10,7.48l0,0-.13,0,.44-.16c-.06,0-.35.08-.24,0l.29-.07-.49.11h0l.22,0h0l.08,0c-.15,0,.21,0,.06,0l-.13,0c-.18,0,.18,0,.06,0h.13c-.09,0-.19,0-.09,0l.18,0-.15,0,.12,0-.15,0,.11,0h.09C10.32,7.28,10.58,7.27,10.54,7.27Z"/><path d="M13.05,5.76h0s0,0,0,0Z"/><path d="M11.44,6h0Z"/><path d="M11.13,6.22s0,0,0,0Z"/><path d="M13.49,5.48h0Z"/><path d="M15.54,7.1h0Z"/><path d="M15.44,7h0Z"/><path d="M13.35,5.58l0,0Z"/><polygon points="15.38 6.98 15.34 6.96 15.34 6.97 15.38 6.98"/><path d="M15.57,7.12l0,0S15.56,7.13,15.57,7.12Z"/><path d="M13.94,6.45h0S13.92,6.44,13.94,6.45Z"/><polygon points="15.2 7.01 15.2 7 15.19 7.01 15.2 7.01"/><path d="M15.7,7.2h0Z"/><path d="M14.52,6.74l0,0S14.52,6.71,14.52,6.74Z"/></svg>