<svg id="Layer_1" data-name="Layer 1" xmlns="http://www.w3.org/2000/svg" viewBox="0 0 24 24"><path d="M11.43,10a0,0,0,0,0,.07,0l0,0a1.24,1.24,0,0,0,.19-.26v0s0,0,0,0,0,0,0,0a.47.47,0,0,0-.26.2.3.3,0,0,0,0,.1S11.4,10,11.43,10Z"/><path d="M11.84,11.11l0,0s0,0,0,0l0-.11a1.08,1.08,0,0,0,0-.19s0-.05-.05,0a.07.07,0,0,0,0,0,.22.22,0,0,0-.05.08,1.51,1.51,0,0,0-.12.26.09.09,0,0,1,0,.06l-.21,0s0,0,0,0l.06-.17a.59.59,0,0,0,.05-.22s0,0,0-.05,0,0,0,0l-.06.06a2.32,2.32,0,0,0-.22.41.07.07,0,0,1-.05,0l-.08,0a.2.2,0,0,0-.12.06.05.05,0,0,0,0,.08.12.12,0,0,0,.08,0c.08,0,.08,0,.06.1v0a1,1,0,0,0,0,.18.19.19,0,0,1,0,.08c0,.07.07.09.13,0a.19.19,0,0,0,.08-.11,3,3,0,0,0,.09-.32s0,0,0,0l.19-.06c.07,0,.07,0,.05.05a.33.33,0,0,0,0,.17.08.08,0,0,0,.12,0,.16.16,0,0,0,.08-.1.71.71,0,0,0,0-.2.21.21,0,0,1,.12-.19s0,0,0-.06A0,0,0,0,0,11.84,11.11Z"/><path d="M11.13,10.31a.29.29,0,0,0-.19-.46.47.47,0,0,0-.35,0,.16.16,0,0,0-.09.07l0,0a.05.05,0,0,0,0,.07h.06l0,.06a3,3,0,0,0-.27.64,1.13,1.13,0,0,0,0,.32.07.07,0,0,0,0,.07s.05,0,.07,0a.47.47,0,0,0,.07-.12l.18-.44s0,0,0,0a.1.1,0,0,0,.09,0,.75.75,0,0,0,.28-.11A.35.35,0,0,0,11.13,10.31Zm-.18,0a.49.49,0,0,1-.19.16l-.12.06h0v0a.93.93,0,0,0,0-.13,1.87,1.87,0,0,0,.07-.22.17.17,0,0,0,0-.07,0,0,0,0,1,0,0,.61.61,0,0,1,.13,0,.2.2,0,0,1,.09.13A.19.19,0,0,1,11,10.29Z"/><path d="M11.15,10.57v.07a.12.12,0,0,0,.09.09,0,0,0,0,0,.06,0s0,0,0,0a1.11,1.11,0,0,1,.07-.16,2,2,0,0,0,.09-.26.22.22,0,0,0,0-.14s0,0-.07,0v0a3.37,3.37,0,0,0-.21.31A.3.3,0,0,0,11.15,10.57Z"/><path d="M12.44,10.9l0,0-.05.06a.88.88,0,0,1-.25.26h0s0,0,0,0a.26.26,0,0,0,0-.15.11.11,0,0,0-.18-.08s0,0,0,.05h0s0,0,0,0a.6.6,0,0,0,0,.24.13.13,0,0,0,0,.08.15.15,0,0,0,.11,0,.35.35,0,0,0,.14-.06l.11-.11s0,0,.06,0a.27.27,0,0,0,.09.12h.06s0,0,0,0a1.48,1.48,0,0,1,0-.21c0-.08,0-.15,0-.22S12.48,10.88,12.44,10.9Z"/><path d="M13.45,10.13c-.06,0-.08,0-.06-.1a.14.14,0,0,0,0-.06.44.44,0,0,0,0-.1s0,0-.06,0h0a.59.59,0,0,0-.45.2.28.28,0,0,0-.1.24s0,0,0,0,0,0,0,0h-.29l0,0a2.09,2.09,0,0,1,.2-.22l.08-.09c0-.06,0-.12-.06-.13h-.11l-.24,0h-.13c-.06,0-.07.07,0,.11a.13.13,0,0,0,.1,0h.21s0,0,0,0a2.55,2.55,0,0,0-.3.26.31.31,0,0,0-.05.1s0,.06,0,.06h.41a.48.48,0,0,0,.25-.09H13a.93.93,0,0,0,.2-.1.08.08,0,0,1,.09,0,.27.27,0,0,0,.26,0s0,0,0-.05A.09.09,0,0,0,13.45,10.13ZM13.21,10h0a.14.14,0,0,1-.1.11l-.1,0s0,0,0,0v0a.38.38,0,0,1,.19-.14h0S13.22,10,13.21,10Z"/><path d="M11.43,8.75a3,3,0,0,1-.2.29s0,0-.06.05l-.59.28a2.74,2.74,0,0,0-.36.23.08.08,0,0,0,0,0s0,0,0,0a.11.11,0,0,0,.11,0l.46-.07.84-.11c.29,0,.58-.06.87-.08l1,0h.18a.14.14,0,0,0,.11,0,.08.08,0,0,0,0-.11l-.06,0L13.28,9l-.52-.18,0,0s0-.09,0-.14a.85.85,0,0,0,0-.17s0-.06-.09-.06h-.09l-.88.18A.25.25,0,0,0,11.43,8.75Z"/><path d="M12.59,10.51h-.07a.55.55,0,0,1-.18,0h-.55l0,0,.2-.21a.7.7,0,0,0,.13-.17.08.08,0,0,0-.08-.11h0l-.24,0a.55.55,0,0,0-.18,0,.05.05,0,0,0,0,.09s0,0,0,0h.24l0,0a3.83,3.83,0,0,0-.29.28.39.39,0,0,0-.08.1s0,.05,0,.09a0,0,0,0,0,.05,0h.07a1.67,1.67,0,0,1,.39-.05l.35,0a.62.62,0,0,0,.23-.07.1.1,0,0,0,.05,0S12.6,10.53,12.59,10.51Z"/><path d="M24,12.51a.72.72,0,0,0-.47-.73l-1.45-.63a.94.94,0,0,1-.56-.62c-.32-1-.65-2-1-3.06-.16-.48-.31-1-.46-1.44H.6V14.6H0v1.51H4c.12,0,.14-.06.17-.15a4.35,4.35,0,0,1,.6-1.38,1.87,1.87,0,0,1,1.21-.86,3.48,3.48,0,0,1,1,0,2.54,2.54,0,0,1,1.59.74,2.64,2.64,0,0,1,.62,1.42c0,.19.11.24.29.24h7.22c.19,0,.26-.06.32-.25a5.24,5.24,0,0,1,.39-1,2.1,2.1,0,0,1,2.4-1.14,2.34,2.34,0,0,1,2.18,2c0,.13,0,.26.07.4h2v-.24C24,14.75,24,13.63,24,12.51ZM9.27,11.28a.25.25,0,0,1-.18-.15A.78.78,0,0,1,9,10.79H9c0-.06.06-.11.1-.11s.14,0,.17.09a.31.31,0,0,1,0,.13c0,.1,0,.21,0,.31A.08.08,0,0,1,9.27,11.28ZM14.86,11a2,2,0,0,1-.43.87,4.13,4.13,0,0,1-.91.81,1.23,1.23,0,0,1-.31.14h-.1s0,0,0,0a.16.16,0,0,1,.07-.07l.2-.13a3.69,3.69,0,0,0,.53-.43,2.48,2.48,0,0,0,.63-1.17,3.8,3.8,0,0,0,.08-.82,3,3,0,0,0-.17-1,2,2,0,0,0-.33-.61,1.83,1.83,0,0,0-.39-.34A3.13,3.13,0,0,0,13,7.79a2.46,2.46,0,0,0-.47-.1h-.09s0,0,0,.06a.14.14,0,0,0,.08,0l.19,0a1.52,1.52,0,0,1,.52.17,2.76,2.76,0,0,1,.72.55,1.65,1.65,0,0,1,.37.69,4.31,4.31,0,0,1,.1.61c0,.16,0,.31,0,.47a2.05,2.05,0,0,1-.19.88,2.85,2.85,0,0,1-.81,1.07,2.46,2.46,0,0,1-.56.34,3.52,3.52,0,0,1-1,.29,2.64,2.64,0,0,1-1.49-.24,2,2,0,0,1-.56-.44,1.41,1.41,0,0,1-.29-.4.55.55,0,0,1-.07-.25.13.13,0,0,1,0-.06s0,0,.07,0a.52.52,0,0,1,.1.11c.09.1.17.22.27.32a2.05,2.05,0,0,0,.63.5,3,3,0,0,0,.72.24.79.79,0,0,0,.22,0h0l0,0s0,0,0,0h0a2.1,2.1,0,0,1-.88-.3,3.19,3.19,0,0,1-.71-.61,1.31,1.31,0,0,1-.17-.28A1.69,1.69,0,0,1,9.53,11a1.73,1.73,0,0,1,0-.32c0-.22,0-.44,0-.66A1.93,1.93,0,0,1,9.87,8.9a2.09,2.09,0,0,1,.55-.56,3,3,0,0,1,.47-.24A1.83,1.83,0,0,0,11.17,8s0,0,0,0,0,0,0,0a1,1,0,0,0-.23.06A2.24,2.24,0,0,0,9.44,9.51a2.87,2.87,0,0,0-.11.77s0,.07,0,.1-.05.07-.1,0a.2.2,0,0,1-.07-.16,2.68,2.68,0,0,1,0-.49A1.89,1.89,0,0,1,9.34,9a2.41,2.41,0,0,1,.83-1,3,3,0,0,1,.64-.34,4.08,4.08,0,0,1,.62-.2c.19,0,.39-.09.58-.11h.38a2.12,2.12,0,0,1,.44,0,2.6,2.6,0,0,1,1.11.43,2.05,2.05,0,0,1,.58.63,3,3,0,0,1,.4,1A2.07,2.07,0,0,1,15,10,3.5,3.5,0,0,1,14.86,11Zm2.48,0V8h1.95a.43.43,0,0,1,.48.36c.21.69.4,1.37.6,2.06.05.17.1.33.15.52Z"/><path d="M13.31,10.7l-.26.05s0,0-.06,0,0,0,0-.05a.3.3,0,0,0,0-.1s0-.06-.08,0l0,0a1.13,1.13,0,0,0-.1.13c0,.06-.06.1-.12.07H12.6a.06.06,0,0,0-.06,0,0,0,0,0,0,0,.05.08.08,0,0,0,.08,0s0,0,0,0,0,.05,0,.07a1.65,1.65,0,0,0-.05.38s0,0,0,.06,0,0,0,0a.2.2,0,0,0,0-.08l.15-.42A.17.17,0,0,1,13,10.9l.35-.14.05,0s0,0,0,0Z"/><path d="M19.48,14.31a1.83,1.83,0,1,0,1.85,1.83A1.86,1.86,0,0,0,19.48,14.31Zm0,2.82a1,1,0,0,1-1-1,1,1,0,0,1,1-1,1,1,0,0,1,1,1A1,1,0,0,1,19.48,17.13Z"/><path d="M6.66,14.32a1.83,1.83,0,1,0,1.82,1.82A1.79,1.79,0,0,0,6.66,14.32Zm0,2.82a1,1,0,0,1-1-1,1,1,0,0,1,1-1,1,1,0,0,1,1,1A1,1,0,0,1,6.67,17.14Z"/></svg>