<svg id="Layer_1" data-name="Layer 1" xmlns="http://www.w3.org/2000/svg" viewBox="0 0 24 24"><defs><style>.cls-1{fill:none;}</style></defs><path d="M17.57,7.3h0Z"/><path d="M15.25,4.63l0,0Z"/><path d="M19.84,8.09h0l.16.06Z"/><path d="M7.44,7.84l0,0Z"/><path d="M11.82,5.21l-.07,0S11.81,5.23,11.82,5.21Z"/><path d="M20.94,8.85l-.06,0S20.9,8.83,20.94,8.85Z"/><path d="M23.08,9.88h0Z"/><path d="M22.37,9.26l-.06,0Z"/><path d="M22.27,9.23h0S22.28,9.22,22.27,9.23Z"/><path d="M23.46,11a.5.5,0,0,0,.2-.23A.74.74,0,0,1,23.46,11Z"/><path d="M.6,11.82v0S.6,11.82.6,11.82Z"/><path d="M23.43,10.79l.05,0Z"/><path d="M19.69,8.5c-.07,0-.2-.07-.21-.05S19.65,8.52,19.69,8.5Z"/><path d="M1.73,12.26h0Z"/><path d="M23.43,10.79l-.06,0h0Z"/><path d="M8.05,12.26Z"/><path d="M8.42,12.27h0Z"/><path d="M23.66,10.8a.33.33,0,0,0,.07-.16A.77.77,0,0,1,23.66,10.8Z"/><path d="M13.09,11.69h0Z"/><path d="M12.15,5.17h0Z"/><polygon points="9.25 6.62 9.25 6.62 9.25 6.62 9.25 6.62"/><path d="M9.38,6.53a.25.25,0,0,0-.13.09Z"/><path d="M9,6.74H9Z"/><polygon points="12.13 5.87 12.13 5.86 12.13 5.87 12.13 5.87"/><path d="M11.47,6h0Z"/><polygon points="8.19 8.17 8.19 8.17 8.19 8.17 8.19 8.17"/><path d="M2.66,11.62a18,18,0,0,1,1.8-1,1.93,1.93,0,0,1,.46-.3l0,.05.14-.09c.07,0-.11.06,0,0l0-.07s.39-.17.16,0c.2-.1.39-.19.59-.27s.06-.09.21-.14,0,0,0,.05c.46-.14.46-.33.89-.47l0,0,.12-.06.08,0,0,0H7.08s0,0,0,0a.26.26,0,0,1-.13.06c0-.06.14-.09.13-.13a.43.43,0,0,0,.18-.1l.11-.09a5.12,5.12,0,0,0,.45-.35A2.65,2.65,0,0,1,8,8.37c.11-.08,0,.05.13-.08v0c.09-.11.08-.09.09-.07.08-.13,0-.13.15-.28l0,.11c.06-.13.1-.17.19-.33,0,0,0,.08-.06.12s.08-.16.11-.2-.09.11-.09,0,.06-.19.13-.22l0,.1c.08-.18,0-.11.14-.28h0A1.69,1.69,0,0,1,9,6.83v0l0-.09v0H9l0,0,0,0s0,0,0,0l0,0s0,0,0,0a.44.44,0,0,1,.2-.13s0,.07-.1.08a.19.19,0,0,0,0,.1s0,0,0,.08,0,0,0,0h0V6.68l.13-.06s-.13,0,0-.07.09,0,.1,0c.18-.09.05-.08.24-.14l-.07,0,.22-.08a.23.23,0,0,1,.16,0s0,0-.07,0h0c-.12.09.12,0,.09,0s.16-.09.25-.11l0,0c.25-.19,0,.08.28,0s-.07,0,0,0a2.36,2.36,0,0,0,.35-.07c.05,0,.15,0,.17,0a2.35,2.35,0,0,0,.39-.11c-.2,0-.18.08-.41.08L11,6.08A3.13,3.13,0,0,1,11.42,6s0,0,0,0a2.85,2.85,0,0,1,.48-.13s-.09,0-.18.07c.14,0,.14,0,.36-.05,0,0-.14,0-.16.06l.23,0h0c0-.06.18,0,.32-.06A1.38,1.38,0,0,0,13,5.59c.06,0,.08,0,.06,0s-.08,0-.1,0,.26,0,.2,0c.18,0-.07,0,0,0l.25,0s-.12,0,0-.06l.31,0s.05,0-.06,0a.38.38,0,0,0,.22,0c-.16,0,.26-.07.13-.09h.17s0,0-.1,0,.13,0,.19,0a1.86,1.86,0,0,1,.22,0,.35.35,0,0,1,.2,0c.07,0,0,0,0,0l.25,0s.06.08,0,.09,0-.07.16-.11c-.07.07.21,0,.1.07a.7.7,0,0,0,.22,0l.06,0h0l.06,0h.06s0,0-.05,0h-.07a0,0,0,0,1,0,0h.05l.06,0,.1,0,.12-.07a.43.43,0,0,1,.23,0h-.05l.16,0s0,.06,0,.09a.08.08,0,0,0,0,.07s0,.1,0,.12l0,.08s0-.14,0-.11.05.09.07.15,0,0,0,0c.06.14,0,.29.08.32l0,.17,0-.07a.9.9,0,0,1,.08.23.75.75,0,0,1,0,.37s0-.13.07,0,0,.33,0,.33,0,.19.06.18h0c.07,0,.14.23.28.38-.1,0,.14.18.17.29s0,0,.08,0l.05,0,.07,0c.08,0,.17.07.19,0s.11,0,.12.06,0,0,0,0h0A2.7,2.7,0,0,0,18.1,8h.15l0,0s.14,0,.08,0l.06,0c0-.05.11,0,.25,0s0,0,0,0,0,0,.06.07.28,0,.1-.11c0,0,.11,0,.18,0l0,.07.1,0a1,1,0,0,1,.23.1c-.09,0-.23,0,0,.11a1.61,1.61,0,0,0-.25,0c.05,0,.07,0,0,0,.18,0,.07,0,.24,0,0,0,0,.07.17.14l-.1-.07h0c-.05,0-.06,0-.06,0s.22,0,.24,0c-.15-.13.33,0,.23,0s.15,0,.15.06c-.16,0,.1.09.06.11s-.1-.07,0-.06a.5.5,0,0,1,.18.1h0l.13.06s-.12-.08,0-.05.16.05.15.07,0,.06-.15,0c.09,0,.37.11.27,0l.1,0c-.06,0-.23-.14,0-.07h.16l.05.05s0,0,.08,0,.06,0,.05,0c.15.06.15,0,.17,0s.12,0,.07.06a2.36,2.36,0,0,1,.39.19c.16,0,0,0,.07,0s.49.26.72.39c0-.1.07,0,.14,0s.19.18,0,.08l.12.07s0,0-.07,0-.09,0-.05,0,.26.08.38.22c-.08,0,.11.08,0,.09s-.07-.05-.11-.08l0,0c.11.11.13.12.15.11s0,0,.09,0,.05.14,0,.16a.42.42,0,0,0,.07.13.28.28,0,0,1,0-.12s0-.05,0,0a.11.11,0,0,0,0,.08s0,.06,0,.08a.69.69,0,0,0,.07.13.39.39,0,0,0,0-.22.25.25,0,0,0,0-.07.08.08,0,0,1,0-.06l0-.08s-.07,0-.16-.12c.09.06,0,0,0,0s-.09-.07-.14-.09.13,0,0-.11l-.07,0c-.05-.05.05,0-.08-.1.09,0,0-.06.19.06-.16-.2-.33-.2-.5-.27h.05a1.11,1.11,0,0,1-.16-.07c-.1-.07.1,0,.08,0l-.17-.1h0a.21.21,0,0,1-.1-.06h.14l-.21-.05S22,9,22.1,9.05l-.29-.12v0c-.07,0-.08,0,0,0-.09-.05-.47-.11-.38-.17-.25-.06-.32-.1-.61-.18.23,0-.24-.14,0-.08-.13-.06-.17,0-.28-.06s0-.08.08-.06l-.13,0h-.12c-.11-.06,0-.05-.13-.1l0,0-.07-.05s-.05,0-.14,0h0l-.11,0c.12,0-.09,0,0-.05L19.57,8l0,0c-.23,0,0,0-.18-.1V8c-.24-.13-.44-.11-.62-.2.11,0,.1,0,.09,0a5.66,5.66,0,0,0-.59-.15.48.48,0,0,0-.22-.16c-.12,0-.14,0-.18,0l-.1-.05-.09,0,0,0-.07,0s0,0,0,0,0,0-.06,0h0l0,0v0l0,0a.66.66,0,0,0-.16-.17L17.18,7a.5.5,0,0,1,0-.13l0,0a.43.43,0,0,1,0-.07s0,0,.05,0a2.22,2.22,0,0,1-.11-.39v.09A.94.94,0,0,1,17,6.28c.08.16,0-.14,0-.18l0,.09c0-.12,0-.12-.05-.11,0-.16,0-.12,0-.27l0,.11s-.06,0-.07-.11,0-.08,0,0a3.59,3.59,0,0,0-.09-.4c0-.07,0,0,0,0a1.31,1.31,0,0,1-.08-.21s0,0,0-.06l0-.06h0V5l0,0h0a.75.75,0,0,0-.07-.12.67.67,0,0,0-.13-.21.35.35,0,0,1,.05.08.63.63,0,0,0-.37-.17l.07,0a3.1,3.1,0,0,0-.37,0,1.25,1.25,0,0,0-.29.06s0,0,0,0l-.12,0h-.17a.28.28,0,0,0-.12,0s0,0,0,0l-.09,0v0l-.07.08-.07,0,0,0c-.12,0-.26,0-.42,0l0,0A8.07,8.07,0,0,1,13.28,5V5L13.1,5c-.11,0,.05,0,0-.06-.2,0-.08.07-.32.12s0,0,.1-.06a4.51,4.51,0,0,1-.71.13s0,0,0,0l-.51.08.08,0a.4.4,0,0,0-.19,0l.06,0c-.13,0-.37.09-.41.06s0,0-.09.06-.29.09-.48.1a.49.49,0,0,1,.11,0,.54.54,0,0,0-.24.09l0,0-.4.14s-.13,0-.22,0-.15.07-.15,0,.13,0,0,0-.16.07-.16,0h0l-.12,0,.06-.06c-.1,0-.17.12-.16.14A2.64,2.64,0,0,1,9,6l0,0-.2.09-.1,0-.14.06h0l0,0-.05.05-.09.1a1,1,0,0,0-.1.17s0,0,0,0l-.11.16v0c-.05.1-.09.19-.13.29h0c-.11.17-.26.45-.39.66v0c-.12.24-.15.21-.24.38v0L7.35,8v0a.4.4,0,0,1-.13.16l0,0-.06.11s0,.06,0,.08,0,0-.14.06l-.1.09,0,0h0v0l-.26.13,0,0c-.18.12-.26.05-.39.19s-.24.1-.25.06l-.65.35c-.07,0-.05,0-.21.06l0,0c-.33.17-.76.28-1.12.48l0,0-.05.07c-.41.19-.92.46-1.22.64a4.07,4.07,0,0,1-.39.28v0L1.83,11l-.45.27s0,0,0,0a.9.9,0,0,1-.26.17l.1,0-.07.06L1,11.49l-.21.11-.17.19-.05,0v0l-.14.08,0,.07a.53.53,0,0,0-.06.1.61.61,0,0,0,0,.11v.08s-.07.19,0,.06a.51.51,0,0,0,0,.36A.63.63,0,0,0,.52,13a.46.46,0,0,0-.07-.07s.06,0,.12,0L.66,13l.09,0c-.16,0-.06,0,0,.08s.05,0,0,0-.05,0,0,0l.3,0,.25,0H1.2a1.85,1.85,0,0,1,.27,0l.28,0,.18,0s.05,0,0,0c.18,0,.07,0,.13,0a.64.64,0,0,1,.36,0c.08-.1.46,0,.49-.1l.14,0s0-.06.14-.09.08,0,.12.06L3.4,13c.62,0,1.41-.19,2.08-.24.29-.07.65-.16,1-.21h0l.34,0H6.53l.2-.05a11.52,11.52,0,0,0,1.32-.18c.14,0,.19,0,.23,0l.07,0h.1l0,0h0v0l0-.15.12.2c.25-.06.41-.1.67-.18,0,.08.2,0,.18,0l0,0c.07,0,.23,0,.21,0L9.81,12l0,0a2,2,0,0,1,.67,0,11.54,11.54,0,0,1,1.7-.22,2.45,2.45,0,0,1,.37-.07l.14,0a1.43,1.43,0,0,1,.39-.08h0a2.32,2.32,0,0,0,.38,0c.14,0,.28,0,.24,0s.31,0,.31,0l.64,0,1.62-.09,2.15-.11,1.14-.06.56,0,.28,0h.25l.12,0,.2,0,.18,0h0v0l0-.09v0h0l.15.12H22a5,5,0,0,0,.55,0,2.49,2.49,0,0,0,.5-.08,1.25,1.25,0,0,0,.43-.22.75.75,0,0,0,.13-.16c0-.06.05-.09,0-.07.12-.16.17-.24.16-.28-.05.12-.07.09-.08.07s0-.05-.1,0a.33.33,0,0,0,0-.13s0,0,0,.07,0,.09,0,.06l0,.07c-.08.09-.14.12-.18.12a1.27,1.27,0,0,1-.11.13.35.35,0,0,1-.23.09l.06,0c-.18.05-.12,0-.16,0h-.11c.11,0,.29-.08.19-.05s.06,0-.1,0-.07,0-.07,0l-.16,0s.11,0,0,0l-.21,0c0-.07-.23,0-.33,0,.15,0,0,0,0,0l-.37,0s.1,0,0,0-.12,0-.15,0-.28,0-.27,0h-.07c-.07,0-.08,0-.1,0s0,0-.16,0,.19,0,.09,0l-.24,0a.16.16,0,0,1,.14,0l-.24-.06-.11,0h0s0,0,0,0-.05,0-.07,0l-.15,0-.14,0-.27,0a3.82,3.82,0,0,0-.58,0c-.09,0,.06,0,.12-.05a7.66,7.66,0,0,1-1,0v0a14.17,14.17,0,0,0-1.72,0l.07,0a1.25,1.25,0,0,1-.3,0s.07-.06-.1,0c0,0,.11,0,.09,0-.51-.05-1.56,0-2.38.07-1.11.1-2.32.17-3.41.31.17,0,.11.06,0,.06-.36-.08-.59.09-1,.05-.52.1-1,.11-1.48.21H8.36l-.18,0v0a.78.78,0,0,0-.22,0H8c-.23,0-.49.09-.62.1v0c-.13,0-.08,0-.21,0v0L7,11.51c0-.07-.37.05-.48,0a6.15,6.15,0,0,1-.72.16,2.55,2.55,0,0,0-.56,0c-.38.07-.92.18-1.41.24l0,0-.13,0s0,0,0,0-.29.06-.39,0c.07,0,.09,0,.16,0s0,.06-.13.06h0l-.09,0s-.1,0-.12-.06A10.25,10.25,0,0,1,2,12.25s-.3,0-.22,0h0v0s0,0,0,.06-.05,0,0,0,0,0,0,0h0l0,0s-.05,0-.05,0,0,0,0,0,0,0-.06,0,0,0,0-.05.06,0,0,0h0s-.05,0,0,0l0,0s0,0,0,0h0l.09,0s-.1,0-.06,0L2,12l.3-.18s0,0,0,0S2.46,11.75,2.66,11.62Z"/><path d="M12.22,5.86h-.09l0,0Z"/><path d="M8.71,7.24s0,0,0,0A.08.08,0,0,0,8.71,7.24Z"/><path d="M8.23,8.16c0-.07,0,0,0,0S8.21,8.18,8.23,8.16Z"/><path d="M14.56,5.37s0,0,0,0Z"/><path d="M19,8.28h0Z"/><path d="M18.67,8.12l-.07,0Z"/><path d="M13,5.65l-.07,0A.1.1,0,0,0,13,5.65Z"/><polygon points="18.52 8.08 18.43 8.05 18.43 8.06 18.52 8.08"/><path d="M19.11,8.32l-.11,0Z"/><path d="M16.4,5.35h0S16.38,5.32,16.4,5.35Z"/><polygon points="18.11 8.02 18.1 8.01 18.07 8.01 18.11 8.02"/><path d="M19.48,8.45h0l0,0Z"/><path d="M16.62,6.69s0,0,0,0S16.64,6.67,16.62,6.69Z"/><path d="M11.14,11.83l-.31-.08a9.74,9.74,0,0,1-1.34-.07,2.81,2.81,0,0,1,.71-.18c1.07,0,1.55.11,2.73.08.11,0,.46-.11.81-.18h-.23c.48-.1,1.23-.13,1.82-.22l-.2,0A14.53,14.53,0,0,0,17.35,11h.36l.74-.08.58-.06.65-.07c0,.3,0,.62,0,1V13c0,.44,0,.9,0,1.35,0,.77,0,1.59-.06,2.38,0,.4,0,.8,0,1.18v.17a1.23,1.23,0,0,1,0,.2,1.57,1.57,0,0,1-.14.38,1.48,1.48,0,0,1-.55.56,1,1,0,0,1-.3.12l-.19,0h-.17c-.19,0-.4,0-.6,0a22.05,22.05,0,0,1-3.72.1,2.71,2.71,0,0,1-.91-.14c-1.17.08-2.41.14-3.63.15H5.83a1.42,1.42,0,0,1-1.36-1.22s0-.09,0-.15v-.4c0-.17,0-.34,0-.46l0-.31c0-1-.09-1.92,0-2.79.06-1.19.26-1.32.44-1.46a21.79,21.79,0,0,1,.3,4.46c0,.14,0,.29,0,.45v.24a1.93,1.93,0,0,0,0,.25.65.65,0,0,0,.18.37.78.78,0,0,0,.33.21l.16,0h.63a3.11,3.11,0,0,0,.82-.06,19,19,0,0,0,3.68.18c.1,0,0,0,.17.05,1.75-.14,3.72-.09,5.74-.13l.79,0h.42c.13,0,.3,0,.39,0a.67.67,0,0,0,.52-.4.76.76,0,0,0,.06-.16s0-.06,0-.09V18l0-.47c0-.11,0-.65,0-1l0-.35c0-.89,0-1.9,0-2.54,0-.37,0-.73,0-1.07v-.89c0-.08,0-.16,0-.24l-.28,0-.33,0-.83.08a11.38,11.38,0,0,1-1.45.07c-.11,0-.44,0-.66.06l-.32,0c-.22,0-.35.11-.57.13a24,24,0,0,1-3.89.18C10.89,11.94,11.34,11.87,11.14,11.83Z"/><path d="M5.31,12c.06,0-.16,0-.29,0a1.84,1.84,0,0,0,.45.05l-.4,0c-.2.09.39,0,.16,0s-.39,0-.29,0a.8.8,0,0,0,.26,0s-.19,0-.31-.07l.61,0Z"/><path d="M6.69,12H6.56s.07,0,.2,0c-.56,0,0-.09-.35-.11C6.4,12,6.75,12,6.69,12Z"/><path d="M6,12.19c-.25,0-.49,0-.55,0h.64Z"/><path d="M10.14,11.75a2,2,0,0,1,.4-.05l-.44,0Z"/><path d="M19.21,10.91h-.82l-.27,0,.29,0h.8Z"/><path d="M19.38,14.9s0,.12,0-.06.07,0,0-.25Z"/><path d="M19.26,15.22l0,.18S19.24,15.33,19.26,15.22Z"/><path d="M12.44,11.35h0Z"/><path d="M13.05,11.33h-.43l-.09,0A3.21,3.21,0,0,0,13.05,11.33Z"/><path d="M12.52,11.38l0,0c-.36.08-.52,0-1,.08C11.82,11.44,12.21,11.41,12.52,11.38Z"/><path d="M12.1,11.47l-.14,0c-.13,0-.12,0-.11,0l-.27,0c-.11.06.73,0,.94,0Z"/><path d="M9.58,12.13h0Z"/><path d="M10.37,12.17l0-.08c-.35,0-.42,0-.81,0h0A5.63,5.63,0,0,0,10.37,12.17Z"/><path d="M13.55,11.37a3,3,0,0,0-.73.11l.66,0C13.23,11.43,13.49,11.4,13.55,11.37Z"/><path d="M14.1,11.47l-.31,0h.14Z"/><path d="M13.93,11.52s0,0,.15,0Z"/><path d="M13.32,11.65c.2,0,.18,0,.53-.05C13.87,11.54,13.5,11.63,13.32,11.65Z"/><polygon points="14.77 11.53 14.88 11.56 14.9 11.5 14.77 11.53"/><path d="M17.32,11c-.32.09.2,0,.24.06Z"/><path d="M15.16,11.63,15,11.58l0,0a1.53,1.53,0,0,1-.3,0C14.62,11.7,15,11.63,15.16,11.63Z"/><line class="cls-1" x1="16.49" y1="11.36" x2="16.82" y2="11.36"/><path d="M14.38,11.9s.5,0-.07.08c.22,0,.53-.05.33,0,.36,0,0-.06.26-.11A1.83,1.83,0,0,1,14.38,11.9Z"/><path d="M15.24,11.87a2.77,2.77,0,0,0,.48,0A1.87,1.87,0,0,0,15.24,11.87Z"/><polygon points="15.41 11.99 15.17 11.96 15.32 12.01 15.41 11.99"/><line class="cls-1" x1="18.84" y1="11.25" x2="18.85" y2="11.17"/><path d="M16.43,11.89l-.62.07.56,0c.33-.07.17-.08-.08-.07Z"/><path d="M15.76,11.86l-.19,0,.52,0Z"/><path d="M16.09,11.87h0Z"/><path d="M19.34,12.31v-.6C19.34,12,19.33,12.13,19.34,12.31Z"/><path d="M16.89,11.91H17l0-.07C16.82,11.87,16.89,11.9,16.89,11.91Z"/><path d="M17.64,12a3,3,0,0,0,.62-.07,5.55,5.55,0,0,0-.69,0C17.83,11.89,17.65,11.93,17.64,12Z"/><path d="M18.41,12l-.53.05C18,12.06,18.18,12,18.41,12Z"/><path d="M18.67,11.9l0,0h0s0,0,0,0A0,0,0,0,1,18.67,11.9Z"/><path d="M14.66,11.7l.44,0-.65,0Z"/><path d="M4.31,15.53c.05.34.08.82.1,1.31l0,.71V18a1.25,1.25,0,0,0,0,.21,1.4,1.4,0,0,0,.83,1.05,1.39,1.39,0,0,0,.35.09H6l.49,0,2-.08v0c1,0,2.41,0,3.56,0l-.06,0c-.2,0-.45,0-.3-.05a6.43,6.43,0,0,1,.68.05l.2-.05c.16,0,0,.14.49.1.27-.11,1,.08,1,0a2.93,2.93,0,0,0,.84,0l-.15-.06c.47,0,.91.13,1.14.11.58,0,1.38,0,2-.05.14.07-.67,0-.26.08l.48,0h.28a1.47,1.47,0,0,0,.35-.08,1.33,1.33,0,0,0,.6-.45,1.25,1.25,0,0,0,.27-.73l0-.58v-.57c0-.38,0-.76,0-1.12,0,0,0,.17,0,.07.05-.28,0-.66,0-1.13a5.28,5.28,0,0,0-.06.9c-.12-.14,0-.12,0-.71a.25.25,0,0,1,0,.12c0-.59.08-.24.06-.69l0,.25c0-.44,0-.14,0-.64.06.08.11-.17.12-.3s0-.53-.07-.47a2.16,2.16,0,0,0,.05-.68,2.81,2.81,0,0,1,0-.29,1,1,0,0,1,0-.17v0a.35.35,0,0,0,0-.06l0-.17c0-.19,0-.09-.06.05V12s0,.07,0,.06v-.22a.71.71,0,0,1,0-.16c0-.07,0-.09,0-.1s.06.06.07-.12,0-.36,0-.64l-.76.07-.35,0h-.2l0,.05c-.51,0-1.34.07-1.54,0s.2,0,.55,0c.08,0-.28.08-.46.09a.82.82,0,0,0,.22,0s-.22,0-.32.06c-.61,0,.23-.05,0-.05s-.8.08-.55.12c-.49.05-.2,0-.46,0,.39,0,.51-.1.8-.07.09,0,.05-.05-.07-.05a7,7,0,0,0-1.16.14l-.2,0-.19.06h-.09c.2,0,.58,0,.74.08s-.23,0-.36.06l-.11,0c-.35,0-.26.12-.74.15.29-.1-.53-.05-.87-.07-.35.16.06.09-.25.22s-.89.12-1.31.13c1-.1-.5,0,.31-.16a4.07,4.07,0,0,0-.49.05c-.14-.09.25-.1,0-.15l-.07.07a3.67,3.67,0,0,0-.87-.06,1.22,1.22,0,0,1-.5.1c-.07,0-.11-.05-.55,0-.84.2.86.08,1,.17,1.23-.08,1.29.21,2.81.12a2.66,2.66,0,0,1,.6-.13c.3-.14-.67,0-1-.06a2,2,0,0,1,.41-.06l-.15,0c.71-.11.4.07,1,0l-.14,0,.36-.05H14.7a5.22,5.22,0,0,1,.63-.09l-.28.07c.19-.05.25,0,.52,0a2.18,2.18,0,0,1-.29.09c.41,0,.77,0,1.13-.06,1-.13,1.92-.21,2.86-.26l0,.66,0-.14a1.42,1.42,0,0,1-.05.46l0,.65c0,.47,0,.85,0,1.43,0,0-.05,0-.05-.08,0,.21,0,.33.05.13,0,.36,0,.52,0,.78l-.06-.6c0,.25.05.24,0,.59,0,.53.06-.24.11-.17v.21l.08-.23a5.58,5.58,0,0,1-.13.92l0-.34c-.09-.13,0,.57-.06.72v-.05c0,.53,0-.11.05.25l-.07.63.06-.11a7,7,0,0,1,0,.76l0,.23a.71.71,0,0,1,0,.21.8.8,0,0,1-.19.35.94.94,0,0,1-.41.26,1.28,1.28,0,0,1-.3,0h-.33c.08,0,.25,0,.2,0-.27,0-.84,0-.64-.06l-.38.05-.32,0,.1,0-.45,0s-.16,0,.06,0c-.5-.06-1.13.06-1.91,0l.23,0c-.46,0-.51-.05-1,0l.11.05a3,3,0,0,1-.94-.07c0,.11-.21,0-.43.06l-.22-.1c-.23,0-.46.05-.31.1a2,2,0,0,0-.87,0h0c-.08,0-.44,0-.28,0-.84,0-.45-.1-1.25-.09l0,.07A12.07,12.07,0,0,0,7.85,19l-.06-.06c-.32,0,.06.06-.43.07-.07,0-.13,0-.12,0l-.83,0H5.93a1,1,0,0,1-.49-.12s.09,0,.14,0a.94.94,0,0,1-.43-.31A1,1,0,0,1,5,18a24.65,24.65,0,0,0,.15-3.14C5,14,4.8,13.4,4.63,13.32A10.09,10.09,0,0,0,4.31,15.53Z"/></svg>