<svg id="Layer_1" data-name="Layer 1" xmlns="http://www.w3.org/2000/svg" viewBox="0 0 24 24"><path d="M2,13.4c0-.08,0-.17,0-.26a12.52,12.52,0,0,0,.61,2.56c-.1-.48-.18-1-.24-1.48s-.1-1-.13-1.47a14.22,14.22,0,0,0-.33-2.67c.1,0,.2-.16.31-.33s.21-.41.32-.62a3.61,3.61,0,0,0,.35-.89L3,8,3,7.68c0-.19.12-.37.19-.56l-.15.38L3,7.88l.12-.38.15-.38A7.57,7.57,0,0,1,5.53,4,9,9,0,0,1,9.21,2.23,11.07,11.07,0,0,1,10.75,2a10.18,10.18,0,0,1,2.06,0,9.08,9.08,0,0,1,2,.43A9.29,9.29,0,0,1,16.23,3c.19.12.38.22.57.35l-.31-.21L16.17,3a8.93,8.93,0,0,1,2.36,1.23,1.42,1.42,0,0,0-.3-.48l.32.3a1.74,1.74,0,0,1,.35.19q.2.13.39.3l.37.33a3.81,3.81,0,0,0,.3.29c-.06,0,0,.05,0,.15s.15.23.24.35l0-.12a13.79,13.79,0,0,1,1,1.53,8.91,8.91,0,0,1,.69,1.59.63.63,0,0,1,0,.32,3.71,3.71,0,0,1,.16.47,4.27,4.27,0,0,1,.13.48c-.06,0-.05.18,0,.34s0,.26-.06,0a10.33,10.33,0,0,1,.27,2.19,11,11,0,0,1-.9,3.81,11.42,11.42,0,0,1-2.24,3.36h.08c-.32.34-.63.69-1,1a4.8,4.8,0,0,1-1.32.87,9.33,9.33,0,0,1-1.2.73,4.27,4.27,0,0,0-.9.55l-1.18.33-.54.13-.66.1c.14,0-.11.09-.33.13s-.39.06-.15.1a7.77,7.77,0,0,0,1.31.08l0,0a11.37,11.37,0,0,0,4-1,11.23,11.23,0,0,0,3.46-2.39,14.78,14.78,0,0,0,1.73-2.36,11.07,11.07,0,0,0,1.18-2.74A13.38,13.38,0,0,0,24,13.6c0-.27.06-.53.06-.8s0-.27,0-.4V12a11,11,0,0,0-.44-2.93,5.2,5.2,0,0,1-.12-.56A4.81,4.81,0,0,0,23.47,8a13.8,13.8,0,0,0-1.18-2.47,11.06,11.06,0,0,0-1.83-2.23l.07.07c-.36-.34-.66-.65-1-.94-.16-.14-.32-.29-.5-.42l-.27-.2-.3-.19s-.14-.05-.21-.07-.09-.09-.24-.18l-.26-.14L17.42,1A11.59,11.59,0,0,0,15.55.4a12.58,12.58,0,0,0-2-.31l-.39,0h-.31l-.34,0h-.31a14.52,14.52,0,0,0-3,.12A9,9,0,0,0,6.5,1l-.24.18L6,1.39l-.22.19-.18.19c-.3.11-.28.24-.59.44a2.59,2.59,0,0,0-.92.51c-.15.13-.12.18.1.06A16.32,16.32,0,0,0,2.69,4.41c-.18.26-.34.53-.5.81a1.1,1.1,0,0,1-.38.43c-.31.62-.28.4-.64,1a3,3,0,0,0-.35,1c-.06.23-.1.46-.14.64a2.16,2.16,0,0,1-.09.37l0-.12a2.47,2.47,0,0,1-.1.29L.42,9.1c-.06.18-.13.34-.18.51A4.92,4.92,0,0,0,0,10.71a11.64,11.64,0,0,0-.06,1.78,12,12,0,0,0,.23,1.79A13.51,13.51,0,0,0,.64,16c.21.54.44,1.06.68,1.54.11,0-.24-.42-.12-.5a17.18,17.18,0,0,0,.9,1.69,9.08,9.08,0,0,0,1.16,1.55c.13.19.31.42.36.52.28.32.22.13.44.34l0,.1a1.5,1.5,0,0,1,.41.37,1.4,1.4,0,0,0,.4.35s.17.07.29.16c0,.09.4.24.33.31h0c.07,0,.13.07.22.14l.34.12.61.19.61.15a2.27,2.27,0,0,0,.36.06l.06.05c.22.09.35,0,.22,0l.28.1h0l.27.1s.1.09,0,.11a1.45,1.45,0,0,1,.51.11,7.2,7.2,0,0,1-1.33-.73,2.62,2.62,0,0,1,.35.13,2.31,2.31,0,0,0,.35.14,1.17,1.17,0,0,0,.2.12l.28.13a4.92,4.92,0,0,0,.6.23c.09,0,.17-.08.36,0s.22,0,.38.12a2.18,2.18,0,0,1-.57-.08c0,.1.45.15.6.2s.45.06.69.06c-.11.09.18.08.32.14s.27,0,.21,0-.64-.11-.41-.19a1.57,1.57,0,0,0,.54.06s-.11,0,0-.09.38,0,.49,0c0,0-.12,0-.17,0,.12,0-.21.1-.53.16s-.66.11-.5.11a2.32,2.32,0,0,1,.66-.13c.35-.07.67-.13.59-.14s.1-.09,0-.11l-.17.06c-.2,0-.28-.13-.21-.16s-.07.1-.33.17-.53.12-.38.1l-.12,0a1.36,1.36,0,0,1,.6,0c0-.05.17-.06.32-.08h.05c.14,0,.34,0,.25-.08-.42,0-.28-.14-.14-.28s.28-.28-.11-.31c.33.13-.11.13-.46.12a.94.94,0,0,0-.43-.16c-.21,0-.13,0-.17,0s-.34-.09-.3-.15c-.18.05-.26-.1-.46-.1s0,0-.12,0A6.81,6.81,0,0,1,9,22.62c-.06-.08-.27-.24-.07-.28.38.12-.18.1.22.19-.07-.09,0-.07.14,0s.27.05.32,0a.92.92,0,0,0-.26-.11L9,22.31l0,0a1.9,1.9,0,0,1-.74-.27c.06,0,0-.09.12-.06l-.24-.1s-.08,0,0,.05a.64.64,0,0,1-.31-.14,4.59,4.59,0,0,0-.69-.22,5.41,5.41,0,0,1-.62-.23c-.17-.1-.18-.18-.36-.24a5,5,0,0,0,.8.38,3.69,3.69,0,0,0,.53.18c.13,0,.2.06.14,0a2,2,0,0,0-.38-.15c-.2-.09-.45-.17-.7-.29A6,6,0,0,1,5.9,21a1.62,1.62,0,0,1-.32-.23c-.12-.08-.26-.18-.26-.12-.18-.17.11,0,0-.17s0,0,0,0l-.09-.15a2.23,2.23,0,0,1-.51-.4,3.24,3.24,0,0,0-.51-.42,1.56,1.56,0,0,1,.49.2v.05s.2.13.23.09a2.22,2.22,0,0,0-.51-.45,1.33,1.33,0,0,1-.06-.12h0c0-.08,0-.08,0-.07h0c0-.11-.18-.25-.37-.43a2.26,2.26,0,0,1-.51-.58c-.09-.09,0,0-.14-.11s-.19-.36-.27-.53L2.8,17c-.12-.09-.15-.09-.12.09a3,3,0,0,1-.15-.31c.29.2-.14-.64.16-.41a1.27,1.27,0,0,0-.18-.45s-.13,0-.21-.22a4.64,4.64,0,0,1-.1-.52c0-.08.09,0,.12,0-.2-.37,0-.38-.11-.74s-.18-.7-.28-.69C1.88,13.39,2,13.38,2,13.4Z"/><path d="M12.12,8.69a4.53,4.53,0,0,1,.69,2.13v1.36a62.82,62.82,0,0,0-1.29,7c0,.52-.09.77-.29.77H11c-.81,0-1.41-1.27-1.78-3.8a25.61,25.61,0,0,1,2.48-7.29A.56.56,0,0,1,12.12,8.69Zm2.17-5c.18,0,.34.26.49.77Q14,7.62,13,7.62q-1-.37-1-.75V5.8a3.89,3.89,0,0,1,2.17-2.13Z"/></svg>