<svg id="Layer_1" data-name="Layer 1" xmlns="http://www.w3.org/2000/svg" viewBox="0 0 24 24"><defs><style>.cls-1{fill:none;}</style></defs><path d="M19.22,8.65H5a.71.71,0,0,0-.72.71V23.29A.71.71,0,0,0,5,24H19a.71.71,0,0,0,.72-.71V9.11A.46.46,0,0,0,19.22,8.65Zm-1.49,8.28a.38.38,0,0,1-.34.14,3.75,3.75,0,0,0-.58,0c-1,0-2.1.05-3.15.1s-1.88.13-2.82.26l-2.73.38L6.6,18A.41.41,0,0,1,6.25,18a.09.09,0,0,1,0-.13.32.32,0,0,1,.12-.14A8,8,0,0,1,7.52,17,19,19,0,0,1,9.45,16a.37.37,0,0,0,.19-.16c.22-.31.44-.62.65-.94a.7.7,0,0,1,.52-.33c.95-.18,1.91-.39,2.86-.58L14,14c.19,0,.25,0,.31.19a4.88,4.88,0,0,1,.12.55c0,.16.09.31.14.47s0,.08.1.1l1.67.58a8.68,8.68,0,0,1,1.2.55,1.37,1.37,0,0,1,.21.15A.25.25,0,0,1,17.73,16.93Z"/><path d="M12.18,0C8.7,0,5.85,3.55,5.85,7.93H7.43C7.43,5.1,8.72,2,12.18,1.7c3.16-.28,5.06,2.55,5,6.23h1.31C18.51,3.55,16.93,0,12.18,0Z"/><line class="cls-1" x1="17.85" y1="8.65" x2="6.51" y2="8.65"/></svg>