<svg id="Layer_1" data-name="Layer 1" xmlns="http://www.w3.org/2000/svg" viewBox="0 0 24 24"><path d="M10.61,2.12l.26,0a12.19,12.19,0,0,0-2.54.61A14.08,14.08,0,0,1,9.8,2.46c.49-.07,1-.1,1.46-.13A13.13,13.13,0,0,0,13.9,2c0,.1.16.2.33.31s.41.21.62.32a4.91,4.91,0,0,0,.88.35A2.3,2.3,0,0,1,16,3l.28.07c.19.05.36.12.55.19l-.38-.15L16.09,3l.37.11.38.15a7.71,7.71,0,0,1,3.08,2.28,9,9,0,0,1,1.77,3.65A9.76,9.76,0,0,1,22,10.76a9.29,9.29,0,0,1,0,2,9.12,9.12,0,0,1-.43,2,8.11,8.11,0,0,1-.63,1.41c-.11.19-.22.39-.34.57.11-.15.16-.23.21-.31s.1-.15.19-.31a8.92,8.92,0,0,1-1.21,2.34,1.62,1.62,0,0,0,.47-.3c-.1.11-.19.22-.3.32a2.35,2.35,0,0,1-.18.35l-.3.38-.33.37-.29.29c0-.06-.05,0-.14,0s-.23.15-.36.23l.13,0a14.64,14.64,0,0,1-1.52,1,8.68,8.68,0,0,1-1.57.68.64.64,0,0,1-.32,0l-.47.16-.48.13c0-.06-.18-.05-.33,0s-.26,0,0-.06a11.5,11.5,0,0,1-2.17.27,11,11,0,0,1-3.77-.9,11.77,11.77,0,0,1-3.34-2.21l0,.07a13.32,13.32,0,0,1-1-1,5,5,0,0,1-.86-1.31,9.93,9.93,0,0,1-.73-1.19,3.93,3.93,0,0,0-.54-.9L1,13.69c0-.17-.09-.35-.13-.54s-.07-.4-.09-.65c-.06.13-.1-.11-.13-.33S.56,11.78.51,12a10.38,10.38,0,0,0-.08,1.3l0,0a11.15,11.15,0,0,0,1,4,11.53,11.53,0,0,0,2.36,3.44,15.28,15.28,0,0,0,2.35,1.72,11,11,0,0,0,2.71,1.16,13.62,13.62,0,0,0,1.57.31c.27,0,.53.06.8.06l.4,0H12a10.9,10.9,0,0,0,2.91-.44,3.14,3.14,0,0,1,.55-.11l.53-.07a13.57,13.57,0,0,0,2.44-1.18,10.91,10.91,0,0,0,2.22-1.81l-.07.07c.34-.36.64-.66.93-1,.14-.16.28-.32.41-.5l.21-.26.18-.3s.05-.14.08-.21a1,1,0,0,0,.17-.24l.14-.25.16-.34a10.06,10.06,0,0,0,.64-1.86,11.11,11.11,0,0,0,.31-2l0-.38v-.31a2.86,2.86,0,0,1,0-.34c0-.1,0-.2,0-.3a14.36,14.36,0,0,0-.12-3,8.67,8.67,0,0,0-.86-2.69l-.18-.23-.19-.23-.19-.22-.18-.18c-.11-.29-.25-.27-.45-.58a2.63,2.63,0,0,0-.49-.92c-.14-.14-.19-.11-.07.1a14.91,14.91,0,0,0-1.61-1.51c-.26-.18-.53-.34-.81-.5a1,1,0,0,1-.42-.38c-.62-.31-.4-.27-1-.63a3,3,0,0,0-1-.35L15.68.77,15.31.69l.12,0-.29-.1L14.88.52,14.37.34A4.7,4.7,0,0,0,13.28.07,11.42,11.42,0,0,0,11.52,0,11.71,11.71,0,0,0,9.74.24,15,15,0,0,0,8.05.73c-.54.21-1.05.44-1.53.68,0,.11.41-.24.49-.12-.56.27-1.13.56-1.67.89A9.08,9.08,0,0,0,3.8,3.33c-.19.13-.42.31-.52.36-.31.28-.12.22-.34.43l-.1,0a1.49,1.49,0,0,1-.36.41,1.57,1.57,0,0,0-.35.4s-.07.17-.15.29c-.09-.05-.24.39-.31.32h0c0,.07-.08.13-.15.22l-.12.34-.18.6c-.06.22-.11.44-.15.61A2.42,2.42,0,0,0,1,7.64L1,7.71c-.08.22,0,.34,0,.22L.89,8.2v0l-.1.27c0,.05-.08.1-.11,0a1.65,1.65,0,0,1-.1.5,7.94,7.94,0,0,1,.71-1.31A1.56,1.56,0,0,1,1.17,8,2.31,2.31,0,0,0,1,8.31c0,.06-.08.12-.12.2l-.12.27c-.09.19-.17.41-.24.6s.08.17,0,.36,0,.22-.12.37a2.1,2.1,0,0,1,.08-.56c-.1,0-.15.45-.2.6s-.06.44-.06.68c-.09-.11-.08.18-.14.32s0,.26.05.2.1-.63.19-.4a1.54,1.54,0,0,0-.06.53c.05,0,0-.11.09,0s0,.38,0,.49a.32.32,0,0,1,0-.17c0,.12-.1-.2-.16-.53S.1,10.62.1,10.78a2.32,2.32,0,0,1,.13.66A3.57,3.57,0,0,0,.36,12c0-.15.1.1.12,0L.42,11.8c0-.2.12-.28.16-.21s-.11-.07-.17-.33-.12-.52-.1-.37l0-.12a1.31,1.31,0,0,1,0,.59s.07.18.09.32v.05c0,.14,0,.34.07.25,0-.42.14-.28.28-.14s.28.28.31-.11c-.13.33-.13-.11-.12-.46a1,1,0,0,0,.17-.42c0-.21,0-.13-.06-.17s.1-.34.15-.3c-.05-.17.09-.25.1-.45s0,0,0-.12A6.15,6.15,0,0,1,1.47,9c.08-.06.24-.27.28-.07-.12.37-.1-.19-.19.21.08-.07.07,0,0,.14s-.06.27,0,.32a.92.92,0,0,0,.11-.26A3,3,0,0,0,1.78,9l0,0A2,2,0,0,1,2,8.32c0,.06.09,0,.06.12a2.44,2.44,0,0,1,.1-.24s0-.07,0,0a.62.62,0,0,1,.13-.31,4,4,0,0,0,.22-.67,2.92,2.92,0,0,1,.23-.63c.09-.17.18-.17.24-.35A3.42,3.42,0,0,0,2.57,7a4.1,4.1,0,0,0-.18.52c-.05.14-.06.2,0,.14a1.78,1.78,0,0,0,.15-.37c.08-.2.17-.45.29-.69A6,6,0,0,1,3.12,6a1,1,0,0,1,.22-.31c.08-.12.18-.26.12-.27.17-.17,0,.12.17,0s0,0,0,0l.15-.09a2.48,2.48,0,0,1,.39-.51,3.1,3.1,0,0,0,.42-.5,1.84,1.84,0,0,1-.19.48l0,0s-.14.19-.1.22a2.22,2.22,0,0,0,.45-.51l.12-.06h0c.08,0,.07,0,.07,0s0,0,0,0,.25-.17.43-.36a2.23,2.23,0,0,1,.57-.51c.09-.09,0,0,.11-.14s.35-.19.52-.26l.54-.26c.09-.13.09-.15-.09-.13l.31-.14c-.2.29.63-.14.41.16a1.23,1.23,0,0,0,.44-.18s0-.13.22-.21a4.25,4.25,0,0,1,.52-.1c.07,0,0,.09,0,.12.37-.2.38,0,.74-.11s.69-.18.69-.27C10.62,2,10.63,2,10.61,2.12Z"/><path d="M4,10.94a8.85,8.85,0,0,1,3.1-.68h2c5.86.84,9.25,1.27,10.19,1.27.74,0,1.12.1,1.12.29V12q0,1.22-5.55,1.77A50.31,50.31,0,0,1,4.22,11.33.47.47,0,0,1,4,10.94Z"/></svg>