<svg id="Layer_1" data-name="Layer 1" xmlns="http://www.w3.org/2000/svg" viewBox="0 0 24 24"><defs><style>.cls-1{fill:none;}</style></defs><path class="cls-1" d="M11.91,23.65,4.3,6C7.47,4.65,16,4.64,19.77,6L12.12,23.61ZM9.4,12.26l.15.08a13,13,0,0,0,1.1-1,.92.92,0,0,1,1.46-.15,10.64,10.64,0,0,0,1.31.76,8.51,8.51,0,0,0-.65-1.88A.54.54,0,0,1,13,9.35c.49-.39.94-.82,1.41-1.23L14.28,8c-.53,0-1.06,0-1.57.13a.82.82,0,0,1-1.09-.67A15.65,15.65,0,0,0,11,6a10,10,0,0,0-.59,1.92.51.51,0,0,1-.54.46c-.65,0-1.29.13-1.94.2A16.63,16.63,0,0,0,9.54,9.72a.77.77,0,0,1,.26.62C9.71,11,9.54,11.63,9.4,12.26ZM12,18l.19.12c.1-1.47,1-1.8,2.23-1.55a4.12,4.12,0,0,0-.86-.79.61.61,0,0,1-.23-.89c.14-.33.24-.68.41-1.19a12.48,12.48,0,0,0-1.08.69.59.59,0,0,1-.91-.06c-.26-.24-.57-.43-1-.76.14.55.2.91.32,1.25a.56.56,0,0,1-.29.81c-.32.18-.61.41-.92.62.08.08.1.12.13.12.51.07,1.14,0,1.48.24S11.81,17.56,12,18Z"/><path d="M13.1,16.27l0,0Z"/><path d="M10.84,16h0Z"/><polygon points="14.77 16.16 14.77 16.16 14.79 16.17 14.77 16.16"/><path d="M13.13,17.15l.09,0a.7.7,0,0,1,.24,0,3.2,3.2,0,0,1,.65.06l1.88.35c-.1-.12-.22-.25-.32-.35L15.55,17c-.08-.1-.17-.19-.27-.3l-.51-.54c-.27-.16-.4-.44-.72-.59l0-.09a.6.6,0,0,1-.28-.19h0a.14.14,0,0,0-.07,0h0c.06,0,0,0,0,0s0-.1,0-.17a3.84,3.84,0,0,1,.14-.36l-.09.05c.27-.51.13-.56.41-1.07h0c-.05-.15.06-.37.2-.65a4.34,4.34,0,0,0,.17-.4l0-.08v0l-.05,0-.25.21c.09-.09,0-.06.06-.1a2.41,2.41,0,0,0-.68.63c-.14.08-.07,0,0-.09a1.4,1.4,0,0,1-.33.31l.07-.07-.34.24v.13c-.14.05,0-.18-.14,0l0,.13c-.2.11-.3,0-.59.12l-.11.07h0s0,0,0,0,0,0-.17-.11l-.75-.51c-.24-.17-.46-.32-.69-.5l-.36-.3a2.61,2.61,0,0,1-.2-.17.65.65,0,0,0,0,.14l-.1-.11c-.15-.19.32.64.19.48l.1.22s0,.05-.08-.06a1.31,1.31,0,0,0,.12.28l0,0c.07.45.33,1,.43,1.44-.05.41.2-.06-.36.41a8.07,8.07,0,0,0-.53.63,1.47,1.47,0,0,1-.33.33,2.18,2.18,0,0,0,.26.29.77.77,0,0,0,.31.24,3.38,3.38,0,0,0,.85,0,.18.18,0,0,0,.13,0l.1,0h0l0,0a.14.14,0,0,1,.06.07.87.87,0,0,1,.1.21c.07.16.14.4.23.58.22.4.41.44.59-.57h0a.84.84,0,0,0-.35-.71c.09-.13-.24-.27-.31-.33h0a.53.53,0,0,1-.17,0,.08.08,0,0,1,0,0s0-.05-.1,0l.06,0s-.15,0,0,0a3.11,3.11,0,0,1-.45,0h.05c-.16,0,0,0,0,0h0c-.12,0,.11-.08.09-.11H11l.07-.07-.05,0c-.16,0,.18,0,.14-.09s0-.08,0-.23,0-.23,0-.32.1.08.06-.05,0,.06.1,0,.07-.1,0-.19l.07,0c-.15-.16.05-.08-.09-.23s.22.18,0-.06l.11.11s-.15-.19-.1-.15,0,0,.13.15-.12-.25.09.06c-.08-.17,0,0,0-.16,0,.08.08.07.09.19s0,0,0,0l0,.1c.07.18,0-.07.05,0s0,0,0-.07l0,0V15l0,.06V15s0,0,0,.07a.28.28,0,0,0,.25.06c.11,0-.18-.12,0-.09a1,1,0,0,0,.46,0l.05,0a.16.16,0,0,1,0-.1V15c.06-.13,0,.16,0,.07l0,.06.07-.19c.12-.2-.08.19.08-.09,0,0,.11-.21.12-.19l-.06.1,0-.06c0,.06-.09.15-.06.12l-.1.14.16-.21c-.06.1.1-.09,0,.08,0,0-.08.12.06,0l-.23.27c.1-.12.16-.14.06,0h0c-.1.09.09,0,0,.08.08,0,0,0,.12,0s0,0,0,.06a.63.63,0,0,0,0,.23c0,.18.09.33.24.32.12.16,0,.13,0,.18h0c.07,0,.11,0,.14.08s.26,0,.27.07-.06,0,0,0a.11.11,0,0,0-.1,0l.07,0h0c.06,0,.08,0,.08,0h.05c-.08,0,.11.1-.07.06l.11.08.1.06s0,0,0,0a.54.54,0,0,1-.14-.08h0c-.1-.05,0,0,0,0s-.11,0-.12,0,0,.07-.13,0l0,0h0s0,.06,0,.06-.1-.1-.15-.09a.06.06,0,0,0-.07,0l-.17.14c.07,0,.06,0,.05,0s-.12,0-.15.05l-.05-.05c.06,0-.1.16-.1.2s.05-.1,0-.14a1.59,1.59,0,0,0-.29.29c0,.15.08,0,.09.12a1.59,1.59,0,0,1-.16.32h.07a.86.86,0,0,1-.16.42,1.31,1.31,0,0,0,.14.49l0,.07h-.16c-.53,0-.38.25-.24.4l.38.45.46-.88a.81.81,0,0,0,.06-.13C13,17.65,12.84,17.42,13.13,17.15Z"/><path d="M12.23,10.88l0,0A.06.06,0,0,0,12.23,10.88Z"/><path d="M9,8.79H9Z"/><path d="M13.9,11.51h0l0,0Z"/><path d="M11.46,11.42l.11.05.17.13a4.64,4.64,0,0,0,.61.46c.41.25.86.51,1.57.89l.38.22c-.12-.56-.27-1.14-.4-1.65a11.6,11.6,0,0,0-.51-1.24v-.17c-.07-.09-.12-.14-.12-.22h0c-.06,0,0,0-.06-.05h0v0h0a0,0,0,0,1,0-.06l.15-.15-.06,0c.37-.33.38-.51.74-.81h0a1.94,1.94,0,0,1,.45-.54L14.79,8c.05-.08-.1-.27-.17-.24s0,0,.05,0a.39.39,0,0,0-.5,0c-.17,0-.09-.06-.05-.12a1.08,1.08,0,0,1-.47.11l.1,0-.52.05,0,.11c-.22,0,0-.14-.26-.09l0,.1a1.55,1.55,0,0,1-.44,0,.77.77,0,0,1-.2-.13c-.09,0-.12,0-.23-.2S12,7.14,11.88,7l-.27-.51c-.18-.33-.34-.64-.5-1L11,5.26l-.06-.14s0,.06,0,.08l-.22.4-.05-.07c0-.13-.08.6-.14.5l0,.21s-.07.09,0,0a.87.87,0,0,0-.07.31l-.1.1a5,5,0,0,0-.23.92c0,.23,0,.27-.06.32H9.76c-.25,0-.53.07-.79.12-.54.09-1,.2-1.34.27-.78,0,0,.45.24.8a6.67,6.67,0,0,0,.7.6L9,10l.24.13H9.3a.42.42,0,0,1,.06.15s0,0,0,.19a8.61,8.61,0,0,0-.2,1.37c0,.54.13.8.81-.43l0,0a1.74,1.74,0,0,0,.14-.91c.06,0,.1-.1.08-.26s-.08-.26-.08-.33h0a3,3,0,0,0-.36-.5.56.56,0,0,0-.28-.18s0-.05.08,0c-.11,0-.17-.06-.1-.11a2.86,2.86,0,0,0-.54-.25l.06,0c-.29-.11,0,0-.06-.09l.06,0c-.1-.08.23,0,.24-.08l.08,0,.16,0H9.38c-.14-.12.23.07.26,0s.08-.07.15-.14a.54.54,0,0,1,.33-.16c.08-.11-.06.15.1,0,0,.06-.07.08,0,.11s.36-.17.41-.47h0a.8.8,0,0,1,.08-.38s.06-.07,0-.14.16.1.1-.13l.06.08s0-.19,0-.17,0,0,.05.14,0-.44.09,0c0-.19,0,0,.06-.13,0,.08,0,.13,0,.21v0l0,.09c0,.17.05,0,.07,0s0,0,0-.06l0,.06h-.05v0l.05.16,0-.08c.05.18,0,.32.24.47s-.08-.21.09,0a1.23,1.23,0,0,0,1,.44,0,0,0,0,1,0-.06l0,0v.06c.07-.09,0,.13,0,.06l0,.05a1,1,0,0,1,.08-.14c.16-.13-.1.14.13-.05,0,0,.14-.14.17-.12L13,8.49s.08-.05.08,0-.13.09-.09.08l-.13.08.23-.12c-.08.08.17,0,0,.08,0,0-.12.09.06.05-.11,0-.2.07-.33.1.13,0,.16,0,0,0h0c-.15,0,0,.12-.16.15.06,0,0,.05.06.11a1.68,1.68,0,0,0-.43.6c-.06.21,0,.4.16.45.1.23,0,.24.05.33l0,0a1.45,1.45,0,0,1,.12.25s.21.12.21.21c-.08-.07,0,0,0,0a.07.07,0,0,0-.08,0l.05,0h0c.05.07.07.09.07.07l0,0c-.07,0,.06.19-.08.06l.07.14c0,.06.06.13,0,.12a.12.12,0,0,1-.13,0c-.06-.09-.06-.14,0-.15l-.07,0c-.06-.11,0,0,0,0s-.12-.09-.16-.08-.1,0-.16-.09l0,0h0a0,0,0,0,1-.06,0c0-.07,0-.13,0-.17s-.35-.18-.55-.17c.11,0,.07,0,0,.06s-.15-.07-.24,0v-.07c0,.06-.27.11-.29.16s.14-.09.16-.13a1.09,1.09,0,0,0-.55.26c-.11.16.07,0,0,.14s-.18.26-.31.34h.08a.87.87,0,0,1-.45.39,4.28,4.28,0,0,0-.42.7v0H9.49c-.41,0-.32.19-.16.34l.1.1.46-.17a2.24,2.24,0,0,0,.32-.17,2.52,2.52,0,0,0,.82-.69C11.23,11.59,11.33,11.43,11.46,11.42Z"/><path d="M8.53,16.67l0-.14S8.5,16.57,8.53,16.67Z"/><path d="M16.84,13.6v0Z"/><polygon points="7.22 11.33 7.23 11.34 7.25 11.37 7.22 11.33"/><path d="M10,17.89c-.71-1.73-.79-2.23-1.61-4-.35-.85-.77-1.74-1.14-2.56C7,11,6.76,10.25,6.48,9.82l0-.21a1.89,1.89,0,0,1-.23-.5h0c-.15-.22-.24-.5-.31-.61H6l-.13-.28,0,0A8.68,8.68,0,0,1,5.31,7l0,.06a5.12,5.12,0,0,0-.21-.54,1,1,0,0,0-.11-.21s-.08-.1,0-.11a.47.47,0,0,1,.17,0v0s.17-.08.25-.12L5.63,6a4,4,0,0,1,.59-.1,6.21,6.21,0,0,0,1.27-.24c-.12,0,.06,0,0,.05.47-.08,1-.14,1-.27.34,0,.28,0,.33.06s.29-.1.56-.12l-.12,0L10,5.36l-.16-.1c.41,0,.11.13.5.09v-.1a11.76,11.76,0,0,1,1.45.2c2.26,0,4.76,0,6.76.64l.07.09c0,.05.22.06.25,0s.16,0,.13,0h.14s0,.06,0,0,0,.05,0,.09l-.09.06c-.37.72-.6,1.55-1,2.39A36.39,36.39,0,0,0,16.31,13c-.56,1.66-1.74,3.37-2.3,5.09a.48.48,0,0,0,0,.2l-.67,1.5a33.7,33.7,0,0,0-1.41,3.7l.19-.16c-.25.11-.29.19,0,.24h0a14.12,14.12,0,0,0,1.15-1.72v0A8.84,8.84,0,0,0,14.05,20c.16,0,.3-.67.43-.84v0c.12-.54.53-1,.65-1.52a.21.21,0,0,1,0,.16c.13-.36.32-.86.4-.85a21.49,21.49,0,0,0,1-2.61v.05a5.47,5.47,0,0,1,.28-.76l0,0a12.73,12.73,0,0,1,.5-1.26h.05l.28-.67-.12.24c-.09-.14.31-.47.43-1s.13-1,.4-1.48c0-.25,0,.24.11-.12.07,0,0,.18.07.12.11-.35.3-.51.43-.94h.06c.13-.57.51-1,.57-1.37s.33-.34.6-1.24c0-.06.11-.14.1-.19l-.14-.08c-.41-.14-.38,0-.8-.19,0,0-.11-.07-.22-.11s-.13-.06,0-.06c-.66-.24-1.38-.21-2.25-.46-.2.07-.64-.06-.79,0s-.89-.1-.38-.14c0,0,.12,0,.11,0l.07,0a6.25,6.25,0,0,0-1.43-.08c.15,0,.35,0,.21.07l-.46,0,.1,0-.7-.07.1.07a1.81,1.81,0,0,0-.84-.08c-.18,0,.32.08,0,.1s-1.13-.12-1.71-.13c.05.07-.11.07-.27.09l0-.06c-.61.1-.23-.12-.84,0l.06,0-.16.13c-.54.14-.3-.1-.91.1.25,0,.13.12-.17.11l.07-.06a1.65,1.65,0,0,1-.33.05c.1,0,.05-.09-.19-.05l.15-.09-.44.15c-.37,0-.91.13-1.07.08A3.26,3.26,0,0,0,6.06,5c.15-.09-.28,0-.17-.11a3.53,3.53,0,0,1-1,.3l0,0a2.93,2.93,0,0,0-.46.14L4,5.52l-.24.09c-.07,0-.22,0-.13.14l.22.46a9,9,0,0,1,.54,1.27c.05-.06.18.33.22.2.39.7.41,1.4.77,1.55a2.73,2.73,0,0,1,.17.6l0-.08c.29.61.37.79.56,1.25.12.22.25.21.4.63-.1-.11,0,0,0,.21,0-.1-.08-.12,0,.09l.07.1h0c.12.25.12.2.07.08s0,0,0,0c.06.29.33.74.26.8.35.77.67,1.29,1,1.91,0,.09-.11,0-.21-.22l.22.45c-.06,0-.15-.25-.22-.38.14.58.57,1.07.76,1.75l.1.11v0s.12.12.17.21-.12,0,0,.35a5.6,5.6,0,0,0,.5,1c-.07-.18,0-.14,0-.07a3.3,3.3,0,0,0,.13.38l-.06,0c0-.09.25.38.3.42s-.15-.22-.2-.25l.42.95c.19.31,0-.09.16,0a6,6,0,0,1,.42.92l0-.13a5.54,5.54,0,0,1,.52,1.28c2.29,3.95,1.05.59,1.05.59A43.68,43.68,0,0,0,10,17.89Z"/><path d="M17.62.59l.1,0S17.7.6,17.62.59Z"/><path d="M3.91,1.16h0Z"/><polygon points="20.42 2.35 20.42 2.35 20.42 2.34 20.42 2.35"/><path d="M16.29,1.22c1.3.23,1.62.42,2.95.69L19.7,2l.23.06.16,0a1.68,1.68,0,0,1,.3.16,0,0,0,0,1,0,0h0s0,.22,0,.37-.16.41-.12.41h0l-.06,0s0,.06,0,0h0s-.21,0-.3,0h0l-.23,0,0,0a4.81,4.81,0,0,1-1-.17v.07c-.62-.19-.87-.09-1.43-.27h0c-.75.07-1.14-.28-1.91-.19.09,0,0,0,0-.06-.35,0-.72,0-.74.1-.25,0-.2-.05-.23-.11s-.22.07-.42.06h-.48l.11.11c-.3,0-.07-.13-.36-.12V2.5a10.1,10.1,0,0,1-1.06-.24c-1.68-.06-3.46.31-5,.37L7.1,2.57c0-.1-.41.21-.48.12l-.17.08s-.16,0-.08,0a.71.71,0,0,0-.28.09l-.19,0c-.66.07-1.19.3-1.87.43-.25,0-.21,0-.29,0L3.68,3c-.05-.12-.09-.25-.14-.39a1.73,1.73,0,0,1-.08-.33c0-.08,0-.1,0-.15s.19-.17.41-.24a21.93,21.93,0,0,1,3.9-.67.24.24,0,0,0,.15-.05l1.17-.1S14.78.54,10.37.17l0,0A4.79,4.79,0,0,0,8.9.34c-.08-.12-.53,0-.68,0h0C7.85.49,7.41.35,7,.48c0,0,0,0,.11-.06-.28,0-.66.12-.69,0a7.7,7.7,0,0,0-2,.53l0,0c-.21.14-.3.09-.55.2h0a2.1,2.1,0,0,1-.5.19,1,1,0,0,0-.53.36h0a1,1,0,0,0-.16.73.78.78,0,0,1,0-.26c.11.1-.07.54.15.89a1.12,1.12,0,0,0,.36.53.84.84,0,0,0,.61.19c.21-.08-.19.13.13,0,0,.08-.16.07-.06.12a6.34,6.34,0,0,0,.78-.13l0,0c.38-.19.78-.08,1-.23.41-.12.31.12.72-.07l.19,0c.18,0,.12-.11.33-.11,0,0,.27,0,.15.07A9.67,9.67,0,0,1,8.66,3.4c.13-.12.45-.08.54-.17s.63,0,.29.08H9.41l0,.06c.36.08.64-.11,1-.11-.11,0-.24,0-.15,0h.32l-.06,0H11l-.06-.06c.23,0,.32.12.59,0,.12-.05-.23-.07,0-.1s.8.1,1.2.13c0-.07.08-.07.19-.08v.06c.43-.07.15.13.58.08l0,0,.12-.11c.39-.1.2.13.64,0-.17,0-.07-.14.13-.1l-.05,0a.87.87,0,0,1,.23,0c-.07,0,0,.08.13.08l-.12.06.33-.08c.24.08.64,0,.73.13a1.89,1.89,0,0,0,.66,0c-.11,0,.18.1.09.15a1.3,1.3,0,0,1,.7,0h0c.59.16,1,.07,1.56.26,0-.07.26,0,.21-.08.58,0,.93.38,1.24.17A2.69,2.69,0,0,0,20.7,4l-.09,0A.56.56,0,0,0,21,3.71c.16-.41.18-.45.28-.73a4.33,4.33,0,0,1,0-.64c0,.14,0,0,0-.16v0s0,0,0,0a.81.81,0,0,0,0-.16l-.08-.12h0c-.19-.24-.18-.17-.09-.07s0,0,0,.06c-.16-.34-.59-.47-.56-.55a1.54,1.54,0,0,0-.47-.16l-.39-.07L19,1c-.05-.05.08-.06.22,0L18.9.88c0-.06.21,0,.32,0-.4-.2-.89-.11-1.36-.29l-.11,0,0,0s-.12,0-.2,0,0-.12-.22-.16a2.59,2.59,0,0,0-.82-.08c.14,0,.09,0,0,.06s-.19-.08-.28-.07V.35c0,.07-.33,0-.38.05s.2,0,.24-.05L15.33.27c-.27,0,0,.07-.09.12a3.06,3.06,0,0,1-.73,0l.08.07a3.17,3.17,0,0,1-1-.1C11.94.47,11.77.67,12,.78a3.49,3.49,0,0,0,.86.21C14.12,1.21,14.78,1.07,16.29,1.22Z"/></svg>