<svg id="Layer_1" data-name="Layer 1" xmlns="http://www.w3.org/2000/svg" viewBox="0 0 24 24"><path d="M13.56,22.5l-.28,0A12.46,12.46,0,0,0,16,21.86a16.24,16.24,0,0,1-3.09.53c-1,.06-2,.1-2.81.18a10,10,0,0,0-2-.87,8.86,8.86,0,0,1-1.16-.4l.79.31-.79-.31A9.39,9.39,0,0,1,1.74,15a10.78,10.78,0,0,1-.31-3.81A9.65,9.65,0,0,1,2.52,7.49a6.21,6.21,0,0,1,.35-.62,5.9,5.9,0,0,0-.4.69A9.41,9.41,0,0,1,3.85,5.1a1.41,1.41,0,0,0-.45.36,3.44,3.44,0,0,1,.3-.35,5.56,5.56,0,0,1,.54-.74c.26-.25.52-.5.67-.68,0,.1.25-.12.51-.3l-.12,0A11.22,11.22,0,0,1,8.56,1.7a1,1,0,0,1,.33-.06c.34-.09.66-.22,1-.28-.07.09.86-.06.38.06a4.44,4.44,0,0,1,1.15-.17c.39-.05.77,0,1.14-.05A11.45,11.45,0,0,1,20,4.54l0-.07a7.85,7.85,0,0,1,1.88,2.42c.5.72,1,1.89,1.16,2.2.15.5.23.85.31,1.2a6.7,6.7,0,0,1,.19,1.21c.07-.27.13,1,.18.49.07-.69,0-.73,0-1.32l0,0A11.59,11.59,0,0,0,20.26,3.3a12.61,12.61,0,0,0-5-2.89A11.56,11.56,0,0,0,9.15.4c-.4.13-.73.12-1.08.22a12.16,12.16,0,0,0-4.68,3l.07-.06A12.31,12.31,0,0,0,1.75,5.58s-.06.14-.09.2A9,9,0,0,0,.51,8.47a15.7,15.7,0,0,0-.42,3v.3a11.41,11.41,0,0,0,1.09,5.69,7.55,7.55,0,0,0,.68.9c.12.29.23.29.44.59.38.89.87,1.21.59.81A13.43,13.43,0,0,0,4.5,21.29l.79.52a1.27,1.27,0,0,1,.45.35c.61.34.41.27,1.06.61a7.85,7.85,0,0,0,1.94.62l-.12,0a11.66,11.66,0,0,0,2.16.57,11.8,11.8,0,0,0,3.55-.18,13.8,13.8,0,0,0,3.22-1.17c0-.07-.42.22-.48.14a11.38,11.38,0,0,0,3.18-2.07c.19-.13.4-.33.49-.39.3-.29.14-.2.35-.42h.08c.24-.37.45-.46.69-.81,0,0,.08-.16.16-.28.07,0,.24-.39.28-.34h0l.14-.22a11.06,11.06,0,0,0,.62-1.84l0-.07c.08-.22.06-.33,0-.21l.1-.27v0l.1-.27c0-.05.07-.1.08,0a2.6,2.6,0,0,1,.1-.5,7.48,7.48,0,0,1-.63,1.35c0-.19.2-.5.26-.7a6.68,6.68,0,0,0,.43-1.09.77.77,0,0,1,0-.35c.07-.09,0-.23.09-.38a2.1,2.1,0,0,1-.08.56c.08,0,.12-.45.17-.6s.07-.45.08-.68c.06.11.05-.19.09-.33s0-.26,0-.2-.07.63-.13.41a2.52,2.52,0,0,0,0-.54s0,.11-.06,0a3.33,3.33,0,0,1,0-.49.85.85,0,0,1,0,.16c0-.24.18,1.33.17,1,0,.07-.15-1.4-.16-1.23s-.07-.11-.08,0l0,.17c0,.21-.09.29-.11.22,0-.35.2,1,.18.7l0,.12a2,2,0,0,1,0-.6s0-.17-.05-.31v-.05c0-.15,0-.35-.05-.26,0,.84-.34-.55-.4.26.09-.33.07.11.06.46a1.48,1.48,0,0,0-.11.44c0,.22,0,.13,0,.17s-.08.35-.12.31c0,.18-.07.26-.09.47s0,0,0,.12-.17.62-.23.83-.19.29-.2.1c.11-.39.06.17.15-.24-.14.15.07-.36,0-.45a2.23,2.23,0,0,0-.19.6l0,0a2.15,2.15,0,0,1-.26.76c0-.06-.07,0,0-.12l-.1.26s0,.07,0,0a1,1,0,0,1-.13.33s-.49,1.37-.52,1.31c-.1.17-.17.18-.24.37l.14-.25a3.67,3.67,0,0,0,.27-.56c.17-.41.31-.79.26-.67s-.23.6-.48,1.09a3.94,3.94,0,0,1-.6,1c-.08.11-.18.26-.14.25-.16.19,0-.1-.13,0s0,0,0,0l-.13.11c-.2.33-.63.7-.86,1a2.82,2.82,0,0,1,.25-.46l0,0s.15-.2.12-.22a3.48,3.48,0,0,0-.47.53l-.12.07a0,0,0,0,1,0,0c-.07,0-.07,0-.06,0v0c-.18,0-.64.7-1.05.9-.09.09,0,0-.11.14-.38.25-.68.35-1.09.58-.1.12-.11.14.07.08a1.59,1.59,0,0,1-.32.16c.24-.24-.64.19-.37-.07a1.63,1.63,0,0,0-.46.21s0,.1-.25.18l-.53.13c-.08,0,0-.06,0-.09-.39.2-.38.05-.77.16a3.21,3.21,0,0,0-.73.25C13.54,22.6,13.53,22.55,13.56,22.5Z"/><path d="M13,3.54a9.28,9.28,0,0,1,.71,3.2v2q-1.3,9-1.31,10.49c0,.77-.1,1.15-.3,1.15h-.2q-1.24,0-1.82-5.71A51.56,51.56,0,0,1,12.65,3.78.47.47,0,0,1,13,3.54Z"/><path d="M20.32,13a9.33,9.33,0,0,1-3.2.71H15.07Q6,12.43,4.58,12.42c-.77,0-1.15-.1-1.15-.3v-.2q0-1.24,5.71-1.82a51.56,51.56,0,0,1,10.94,2.53A.47.47,0,0,1,20.32,13Z"/></svg>