<svg id="Layer_1" data-name="Layer 1" xmlns="http://www.w3.org/2000/svg" viewBox="0 0 24 24"><defs><style>.cls-1{font-size:8.81px;font-family:BlockBE;}.cls-2{fill:none;}</style></defs><text class="cls-1" transform="translate(3.29 15.06)">SALE</text><path d="M12.15,16.74l.42.15a16.32,16.32,0,0,1,1.89.28,4.46,4.46,0,0,1-1,.16c-1.53-.1-2.18-.37-3.86-.48A10.89,10.89,0,0,0,8.42,17l.32,0c-.69.08-1.76,0-2.6.06l.28.06A18.12,18.12,0,0,0,3.27,17L2.77,17H2.55l-.22,0-.22,0a1.41,1.41,0,0,1-.22-.06,2.64,2.64,0,0,1-.81-.43,2.92,2.92,0,0,1-1-1.68,1.6,1.6,0,0,1,0-.23v-.65c0-.28,0-.58,0-.9,0-.62,0-1.28,0-1.92,0-.27,0-.55,0-.83l0-.42V9.58s0-.09,0-.13V9.32a2.77,2.77,0,0,1,.32-1,2.73,2.73,0,0,1,.7-.81A2.48,2.48,0,0,1,2,7a2.77,2.77,0,0,1,.5-.1H3c.54,0,1.06-.05,1.56-.1a6.23,6.23,0,0,1,1.52,0,29.73,29.73,0,0,1,5.28-.14,4.13,4.13,0,0,1,1.3.19c1.65-.11,3.41-.19,5.14-.2l1.67,0h1.72A3,3,0,0,1,22.28,7a3.05,3.05,0,0,1,.91.73,2.77,2.77,0,0,1,.54,1,3.11,3.11,0,0,1,.09.6v.5c0,.34,0,1,.06,1.31l-.06.44c0,.71,0,1.39.06,2.05v.76a1.83,1.83,0,0,1,0,.33,2.72,2.72,0,0,1-.47,1.18,2.43,2.43,0,0,1-1.05.83l-.22.07a.79.79,0,0,1-.2,0,1.32,1.32,0,0,1-.33,0,.77.77,0,0,1-.58-.31A2,2,0,0,0,22.27,16a2.19,2.19,0,0,0,.41-.55,2.26,2.26,0,0,0,.19-.66,3.7,3.7,0,0,0,0-.74c0-.27,0-.55-.05-.84,0-.58,0-1.2,0-1.89a11.87,11.87,0,0,0,0-1.35l0-.38a3.31,3.31,0,0,0,0-.33,2,2,0,0,0-1-1.29,1.34,1.34,0,0,0-.48-.15H21l-.14,0a28.54,28.54,0,0,0-5.22-.25c-.15,0,0,0-.24-.06-2.49.18-5.29.12-8.14.18-.72,0-1.5,0-2.33,0H3.65L3,7.76H2.68l-.14,0-.14,0-.18.05a1.37,1.37,0,0,0-.28.1,1.43,1.43,0,0,0-.56.4,1.74,1.74,0,0,0-.1.19l-.09.19A1.65,1.65,0,0,0,1,9.5v.95a16.52,16.52,0,0,1-.06,1.67c0,.53,0,1,0,1.52v.72A2.42,2.42,0,0,0,1,15a1.81,1.81,0,0,0,.58.85,1.61,1.61,0,0,0,.51.29c.09,0,.19.06.28.09l.3,0H3.9c.4,0,.76.05,1.05.09s.63,0,.94,0l.44.06c.32,0,.52-.1.84-.09a32.69,32.69,0,0,1,5.51.29C12.52,16.63,11.87,16.66,12.15,16.74Z"/><path d="M20.41,17.26c-.08,0,.22,0,.42,0a3.43,3.43,0,0,0-.63-.13l.55,0c.3-.1-.55,0-.21-.07s.55,0,.4.08a1.59,1.59,0,0,0-.37,0c0,.06.27.09.44.13h-.88Z"/><path d="M18.45,17.14h.18c.09,0-.09-.06-.27-.09.79.06,0,.12.48.19C18.85,17.22,18.37,17.18,18.45,17.14Z"/><path d="M19.48,17c.34.09.68,0,.76.12l-.89-.1Z"/><path d="M13.55,17A2.49,2.49,0,0,1,13,17h.56Z"/><path d="M.82,16.05a2.2,2.2,0,0,0,.44.48,2,2,0,0,0,.76.4,2,2,0,0,1-.85-.47A2.06,2.06,0,0,1,.82,16.05Z"/><path d="M.47,10.31s0-.17.06.09c0,.11-.1-.05-.06.35Z"/><path d="M.64,9.85.7,9.6S.66,9.69.64,9.85Z"/><path d="M10.24,17.22h0Z"/><path d="M9.39,17.17l.59.07.14,0A3.26,3.26,0,0,0,9.39,17.17Z"/><path d="M10.14,17.17l.07,0c.51-.06.73.06,1.47,0A14.27,14.27,0,0,0,10.14,17.17Z"/><path d="M10.74,17.1l.21,0c.18,0,.16,0,.16.05h.38A6.91,6.91,0,0,0,10.15,17Z"/><path d="M14.4,16.54h0Z"/><path d="M13.28,16.38l0,.11c.5,0,.59.07,1.15.06h0A8.73,8.73,0,0,0,13.28,16.38Z"/><path d="M8.69,17.05a4.16,4.16,0,0,0,1-.06L8.8,17C9.15,17,8.77,17,8.69,17.05Z"/><path d="M7.92,16.83h.44l-.2,0A.71.71,0,0,1,7.92,16.83Z"/><path d="M8.16,16.79s0,0-.21,0Z"/><path d="M9.05,16.7c-.28-.08-.26,0-.75,0C8.26,16.77,8.8,16.7,9.05,16.7Z"/><polygon points="6.99 16.66 6.83 16.6 6.79 16.68 6.99 16.66"/><path d="M3.31,17c.47-.07-.28-.07-.32-.11Z"/><path d="M6.45,16.47l.16.08.08,0a1.46,1.46,0,0,1,.42,0C7.22,16.45,6.69,16.49,6.45,16.47Z"/><line class="cls-2" x1="4.54" y1="16.66" x2="4.06" y2="16.61"/><path d="M7.59,16.2s-.69-.13.11-.1c-.31,0-.75,0-.47-.07-.5,0,0,.08-.37.12A2.93,2.93,0,0,1,7.59,16.2Z"/><path d="M6.36,16.13a3.25,3.25,0,0,0-.68,0A2.63,2.63,0,0,0,6.36,16.13Z"/><polygon points="6.14 15.94 6.49 16.01 6.27 15.92 6.14 15.94"/><line class="cls-2" x1="1.32" y1="15.96" x2="1.26" y2="16.05"/><path d="M4.7,15.93h.88l-.79,0c-.49,0-.25.07.09.1C4.79,16,4.71,16,4.7,15.93Z"/><path d="M5.64,16.07l.26,0a6.37,6.37,0,0,0-.73,0A1.92,1.92,0,0,1,5.64,16.07Z"/><path d="M5.17,16l-.29,0Z"/><path d="M.52,14c0,.13,0,.26,0,.4a2,2,0,0,0,0,.43c0-.08,0-.16,0-.23s0-.14,0-.21S.53,14.11.52,14Z"/><path d="M4.05,15.84H3.93l0,.08C4.14,15.91,4,15.86,4.05,15.84Z"/><path d="M3,15.68l-.2,0H2.45l-.11,0,.13.07.15,0,.46,0C2.71,15.75,3,15.72,3,15.68Z"/><path d="M2.26,15.48a1.28,1.28,0,0,0,.43.1.1.1,0,0,0-.07,0l-.11,0A.81.81,0,0,1,2.26,15.48Z"/><path d="M1.68,15.06s0,0-.09-.05.12.2.2.29a.67.67,0,0,1-.06-.12Z"/><path d="M7.16,16.44H6.53l.92.05A2.47,2.47,0,0,0,7.16,16.44Z"/><path d="M24,13.59c-.14-1-.16-2.74-.19-3.73V9.55a3,3,0,0,0,0-.42,2.13,2.13,0,0,0-.1-.42l-.07-.2-.1-.2a2.75,2.75,0,0,0-1.3-1.22,2.71,2.71,0,0,0-.88-.22,6.64,6.64,0,0,0-.79,0l-1.44,0v0c-1.48,0-3.41,0-5,0l.09.05c.27,0,.63,0,.42.06-.37,0-.86,0-1-.07L13.32,7c-.24,0,0-.18-.69-.13-.39.15-1.46-.11-1.48.07A4.69,4.69,0,0,0,10,7l.21.09c-.67,0-1.3-.17-1.62-.15-.83,0-2,0-2.86.06-.2-.1.94,0,.36-.1a23.58,23.58,0,0,1-2.95,0H2.43l-.26,0a2.53,2.53,0,0,0-.95.38A2.47,2.47,0,0,0,.5,8,2.51,2.51,0,0,0,.12,9c0-.07.1-.3.07-.13A1.07,1.07,0,0,0,.12,9c0,.07,0,.14,0,.21s0,.15,0,.23v.21c0,.27,0,.58,0,.91A2.25,2.25,0,0,0,.1,10l0-.4a1.34,1.34,0,0,1,0-.2,1,1,0,0,1,0-.18.41.41,0,0,1,0,.16.56.56,0,0,1,0,.17,3,3,0,0,0,0,.74c0-.06,0-.18,0-.17,0,.83-.11.33-.08,1l0-.35c0,.63,0,.2.06.91-.09-.11-.16.24-.17.42s0,.76.1.67a3.53,3.53,0,0,0-.07,1,2.74,2.74,0,0,1,0,.41.49.49,0,0,1,0,.12v.13c0,.11,0,.22,0,.35s.07.11.07-.05a1.62,1.62,0,0,1,0-.23c0-.07,0-.12,0-.11,0,.51.08.59,0,.6s-.09-.07-.06.12l.07.16.1.22.07.13a.57.57,0,0,0,.08.13,2.69,2.69,0,0,0,.2.27,2.73,2.73,0,0,0,.48.48,5.33,5.33,0,0,0,.47.31l.06,0A2.44,2.44,0,0,0,2.4,17l.2,0h.52a6.75,6.75,0,0,1,.92.1c.3-.09-.27-.09-.77-.09-.11-.05.41-.08.65-.06-.12,0-.16-.05-.31,0s.33,0,.46,0c.87,0-.33,0,0,.07s1.14,0,.8-.09c.69,0,.27.09.63.13C5,17,4.8,17.11,4.4,17c-.14,0-.09.06.09.08a10.46,10.46,0,0,0,1.65,0l.28.06.29-.07.11,0C6.55,17,6,17,5.8,16.87c0,0,.32,0,.51,0l.16.08c.49,0,.38-.14,1-.11-.42.09.75.14,1.22.21.52-.16-.06-.13.38-.27s1.28,0,1.88,0c-1.44,0,.7.12-.46.18.24,0,.44,0,.69,0s-.36.1,0,.2l.1-.09a5.41,5.41,0,0,0,1.23.2,2.06,2.06,0,0,1,.72-.07c.1.07.15.09.77.1,1.21-.17-1.21-.23-1.45-.39-1.73-.05-1.79-.46-4-.55a3.16,3.16,0,0,1-.86.1c-.45.15,1,.13,1.34.22a2.79,2.79,0,0,1-.57,0l.2.1c-1,0-.55-.15-1.45-.11l.19,0-.51,0,.12,0a4.67,4.67,0,0,1-.9,0l.4-.06c-.27,0-.34-.07-.73,0a2.38,2.38,0,0,1,.41-.08c-.57-.05-1.09-.06-1.59-.08s-.85,0-1.28,0H2.76a2.23,2.23,0,0,1-.63-.09,2.32,2.32,0,0,1-.57-.28,2.35,2.35,0,0,1-.46-.43,2.86,2.86,0,0,1-.3-.54,2,2,0,0,1-.12-.6,1.56,1.56,0,0,0,0,.2,1.62,1.62,0,0,1,0-.2.49.49,0,0,1,0-.17,1.26,1.26,0,0,1,0-.28l.05-.92c0-.67,0-1.2,0-2,.05,0,.07,0,.07.11,0-.29,0-.47-.07-.18,0-.51,0-.74,0-1.11l.08.86c0-.37-.07-.35,0-.84,0-.76-.09.34-.16.24V9.93l-.1.33a6.48,6.48,0,0,1,.08-.8l0-.14,0-.12A.93.93,0,0,1,.81,9c0,.07-.05.14-.07.22l0,.11s0,.08,0,.12.06-.1.1-.34c0,0,0-.11,0-.17l.06-.17a.76.76,0,0,1,.14-.22l0,.06c.05-.08.07-.13.1-.17a.13.13,0,0,0,0-.07s0,0,0,0-.13.11,0-.09a1.9,1.9,0,0,1,.7-.46H1.69a1.55,1.55,0,0,1,1-.27H3l.34,0,.67,0c.49,0,1.15,0,1.78,0-.12,0-.36,0-.28-.06.37,0,1.19,0,.9.08l.53-.06c.19,0,.34,0,.46,0l-.14,0,.64,0s.23.05-.09.06c.71.08,1.61-.08,2.72,0l-.33,0c.65-.06.72.07,1.43,0l-.16-.06a4.55,4.55,0,0,1,1.34.09c.07-.14.29,0,.61-.08l.31.13c.33,0,.66-.06.44-.13a3.35,3.35,0,0,0,1.24,0h0c.11,0,.62,0,.39,0,1.2,0,.64.12,1.77.12l.05-.1A20.85,20.85,0,0,0,20,7.39l.08.08c.45,0-.08-.08.62-.1.1,0,.18,0,.17.06a2.59,2.59,0,0,1,.54.05A2,2,0,0,1,22,7.7a2.15,2.15,0,0,1,.92,1,1.77,1.77,0,0,1-.13-.17A2,2,0,0,1,23,9.3a2.12,2.12,0,0,1,0,.44l0,.41c-.07.59-.12,1.31-.16,2.08,0,.39,0,.78,0,1.18,0,.2,0,.4,0,.6v.43c0,.05,0,.09,0,.13A2.45,2.45,0,0,1,22.5,16c-.2.34-.4.55-.41.69a1.3,1.3,0,0,0,.48-.15,2.29,2.29,0,0,0,.7-.55,2.46,2.46,0,0,0,.58-1.09,2.29,2.29,0,0,0,.07-.36l0-.18v-.14Z"/></svg>