<svg id="Layer_1" data-name="Layer 1" xmlns="http://www.w3.org/2000/svg" viewBox="0 0 24 24"><defs><style>.cls-1,.cls-2{stroke:#000;stroke-miterlimit:10;}.cls-1{stroke-width:0.59px;}.cls-2{stroke-width:0.2px;}</style></defs><path class="cls-1" d="M6.2,15.46H6.12l.2,0,.2,0a2.62,2.62,0,0,0,.4-.11c-.3.06-.62.09-.92.12s-.3,0-.44,0a1.2,1.2,0,0,0-.2,0l-.2,0s0-.06-.1-.1l-.2-.1-.18-.08s-.09,0-.1,0l-.08,0-.09,0-.18-.06.24.08-.24-.08a2.49,2.49,0,0,1-1-.72,2.85,2.85,0,0,1-.56-1.16,3.37,3.37,0,0,1-.08-1.13.88.88,0,0,1,0-.16l0-.16.09-.3A2.46,2.46,0,0,1,3,11a1.62,1.62,0,0,1,.1-.18.64.64,0,0,0-.06.1l-.06.1a2.87,2.87,0,0,1,.38-.74.55.55,0,0,0-.15.09l.1-.1a.81.81,0,0,1,.15-.23c.07-.08.15-.15.19-.21s0,0,.05,0l.11-.07h0a3.21,3.21,0,0,1,1-.52.12.12,0,0,1,.1,0L5,9.19l.15,0s.26,0,.12,0a.47.47,0,0,1,.17,0l.17,0c.12,0,.23,0,.34,0a3.58,3.58,0,0,1,1.19.29,3.37,3.37,0,0,1,1.06.7v0l.17.15.15.16a1.39,1.39,0,0,1,.15.19,1.24,1.24,0,0,1,.12.23l.13.18a1.74,1.74,0,0,1,.1.19c.08.13.13.24.17.29s0,.14.07.2l0,.16c0,.06,0,.11,0,.17s0,.13,0,.21,0,0,0,.1,0,.13,0,.05a3,3,0,0,0,0-.41h0A3.59,3.59,0,0,0,8.36,9.58L8,9.29l-.19-.13L7.62,9,7.52,9l-.11-.05-.21-.1L7,8.74a.81.81,0,0,0-.22-.07l-.24-.06-.25,0a4.36,4.36,0,0,0-.51,0l-.24,0-.24,0-.22.05L5,8.65l-.11,0-.17,0-.17,0a3.89,3.89,0,0,0-.38.16l-.2.1-.19.11a3.18,3.18,0,0,0-.37.27,1.22,1.22,0,0,0-.17.15L3,9.68l0,0c-.1.12-.2.21-.29.31l-.13.16-.07.08-.06.1s0,0,0,.07a2.33,2.33,0,0,0-.35.84,4.59,4.59,0,0,0-.12.95v.09a3.54,3.54,0,0,0,.31,1.8l.06.08.06.07.12.12c0,.1.07.09.14.19a.75.75,0,0,0,.08.18.35.35,0,0,0,.07.11s.06,0,0,0c.17.17.34.34.51.48l.26.16a.25.25,0,0,1,.13.11c.2.1.13.09.33.2l.1,0a1.17,1.17,0,0,0,.2.06l.2.05.12,0h0l.18.06L5,16a1.28,1.28,0,0,0,.35.09,3.85,3.85,0,0,0,1.12-.05,5.12,5.12,0,0,0,1-.37s-.13.07-.16,0a3.89,3.89,0,0,0,1-.64L8.52,15c.1-.09,0-.07.11-.13h0c.07-.12.15-.14.22-.26l0-.09s.08-.12.1-.1H9a.13.13,0,0,1,.05-.06l0-.11c0-.05,0-.13.06-.19l.05-.19c0-.06,0-.1,0-.12v0c0-.07,0-.1,0-.07l0-.08h0l0-.09s0,0,0,0a.65.65,0,0,1,0-.16,2.32,2.32,0,0,1-.22.41c0-.06.06-.15.08-.22l0-.06,0-.09.07-.19s0-.05,0-.11,0-.07,0-.12a1,1,0,0,1,0,.18s0-.14.06-.19,0-.14,0-.21,0-.06,0-.1,0-.09,0-.07,0,.2-.06.13a.81.81,0,0,0,0-.17s0,0,0,0,0-.12,0-.15,0,0,0,.05.09.42.09.32-.08-.44-.09-.39,0,0,0,0l0,.05c0,.06,0,.09-.06.07s.1.31.09.22a.08.08,0,0,1,0,0,.4.4,0,0,1,0-.19s0-.06,0-.1v0s0-.11,0-.08-.05.09-.09.05-.09-.09-.1,0c0-.1,0,0,0,.15a.26.26,0,0,0,0,.13c0,.07,0,0,0,.05s0,.11-.05.1,0,.08,0,.14,0,0,0,0-.06.19-.08.26-.07.08-.09,0,0,.06.06-.07c-.05,0,0-.11,0-.14a.52.52,0,0,0-.07.18H9a.49.49,0,0,1-.08.23s0,0,0,0l0,.08s0,0,0,0a.15.15,0,0,1,0,.1s-.13.43-.14.41-.06,0-.08.11,0,0,.05-.07a1.71,1.71,0,0,0,.07-.18l.08-.21-.06.12a1.52,1.52,0,0,1-.08.22l-.11.21a.37.37,0,0,1-.07.1s-.06.08,0,.08,0,0-.05,0,0,0,0,0l-.05,0a.48.48,0,0,1-.13.16,1.83,1.83,0,0,0-.13.16s0-.08.06-.15h0s0-.06,0-.07a.7.7,0,0,0-.14.16l0,0H8s0,0,0,0H8c-.06,0-.18.21-.31.27l0,.05-.08,0-.08,0-.17.08s0,0,0,0l-.1.05c.06-.09-.2,0-.13-.06L7,15.31s0,0-.07.07l-.16,0s0,0,0,0-.12,0-.23,0-.22.07-.22.09S6.2,15.49,6.2,15.46Z"/><path class="cls-1" d="M15.67,2.84l.05-.07-.12.16-.11.18c-.08.11-.13.24-.2.36a6.8,6.8,0,0,1,.57-.73c.11-.11.19-.23.29-.33l.12-.17a1,1,0,0,0,.11-.17s.08,0,.14,0L16.73,2l.19-.07s.09,0,.09-.05l.07,0,.08,0,.16-.08-.22.11.22-.11a2.41,2.41,0,0,1,1.2-.18A2.82,2.82,0,0,1,19.74,2a3.28,3.28,0,0,1,.85.74,1.13,1.13,0,0,1,.1.13l.09.14c.06.09.11.18.16.27a3,3,0,0,1,.17.46,1.17,1.17,0,0,1,.05.2,1,1,0,0,0,0-.12l0-.11a2.78,2.78,0,0,1,.25.79.25.25,0,0,0,0-.17s0,.09,0,.14,0,.17.06.27V5s0,0,0,0a1.3,1.3,0,0,0,0,.13l0,0a3.28,3.28,0,0,1-.32,1.06.19.19,0,0,1-.06.08L21,6.39a.61.61,0,0,1-.07.14s-.18.19-.11.06a1.19,1.19,0,0,1-.09.15l-.11.13-.22.26a3.4,3.4,0,0,1-1.05.64A3.47,3.47,0,0,1,18.09,8l0,0h-.44a1.81,1.81,0,0,1-.23,0,1.21,1.21,0,0,1-.25-.08L17,7.9l-.21-.06a1.67,1.67,0,0,0-.33-.08l-.18-.1-.15-.09L16,7.49l-.16-.13s0,0-.11,0-.1-.08-.06,0,.16.16.28.31v0a3.61,3.61,0,0,0,2.4.92,3.44,3.44,0,0,0,.45,0l.23,0,.23-.06.11,0,.12,0,.22-.07.21-.1A1.06,1.06,0,0,0,20.08,8l.21-.13.21-.15a3.92,3.92,0,0,0,.37-.34A1.37,1.37,0,0,0,21,7.23c0-.06.11-.12.15-.18l.13-.2.06-.09.05-.09a1,1,0,0,1,.1-.15l.1-.14A3.34,3.34,0,0,0,21.78,6l.07-.21.06-.22A3,3,0,0,0,22,5.12a1.64,1.64,0,0,0,0-.22V4.71c0-.16,0-.3,0-.43l0-.2L22,4l0-.11s0,0,0-.06A2.56,2.56,0,0,0,21.55,3,4.64,4.64,0,0,0,21,2.2l-.07-.07a3.43,3.43,0,0,0-1.49-1H19c-.09,0-.11,0-.22,0L18.63,1a.37.37,0,0,0-.13,0c-.06,0-.07,0,0,0a4,4,0,0,0-.7,0l-.29.06a.31.31,0,0,1-.18,0c-.21.06-.15,0-.38.09l-.11,0-.18.1-.17.11-.1.07,0,0-.17.08-.15.08a1.59,1.59,0,0,0-.3.18,3.76,3.76,0,0,0-.76.83,4.81,4.81,0,0,0-.46,1s.05-.14.09-.13a3.56,3.56,0,0,0-.26,1.17c0,.07,0,.16,0,.2s0,.07,0,.17h0c0,.14,0,.21,0,.34s0,.06,0,.1,0,.14,0,.14h0a.24.24,0,0,1,0,.09l.05.1s.06.11.09.17l.1.17.07.1v0c0,.07.07.09.06,0l0,.09h0l0,.08s0,0,0,0A.38.38,0,0,1,15,6.6a2.32,2.32,0,0,1-.13-.45s.06.15.09.21,0,0,0,.07l0,.09.08.19s.06,0,.08.08,0,0,.06.11a.42.42,0,0,1-.11-.15s.07.14.09.18.08.12.14.17,0,.06,0,.1.06.06.06,0-.12-.16-.05-.13.07.1.11.13,0,0,0,0,.09.08.1.12l0,0c.05.06-.36-.23-.29-.17s.37.26.34.22,0,0,0,0l0,0s0-.09,0-.09-.29-.15-.22-.09v0a.37.37,0,0,1,.12.13s.06,0,.09.06h0s.08.08.07,0,0-.09,0-.09.13,0,0-.1c0,.11,0,0-.13-.07a.33.33,0,0,0-.06-.13s0,0-.05,0,0-.1,0-.1,0-.08-.08-.12,0,0,0,0l-.13-.23s0-.12.05-.08-.07,0,0,.09c0-.07.06.09.1.09a.42.42,0,0,0-.08-.17v0a.61.61,0,0,1-.11-.23s0,0,0,0l0-.08s0,0,0,0a.14.14,0,0,1,0-.1s-.21-.4-.19-.39a.51.51,0,0,0,0-.13s0,0,0,.08a.83.83,0,0,0,.07.18c.06.12.11.23.1.2s0-.06-.05-.12a1.12,1.12,0,0,1-.09-.22l-.08-.22a.43.43,0,0,1,0-.12s0-.1,0-.09,0,0,0,0,0,0,0,0V5.06a.65.65,0,0,1,0-.2,1.36,1.36,0,0,0,0-.21.77.77,0,0,1,.06.15v0s0,.07,0,.07a.75.75,0,0,0,0-.21l0,0h0s0,0,0,0h0s0-.29,0-.42,0,0,0,0l0-.1L15,4c0-.06,0-.11.06-.18s0,0,0,0l0-.1c0,.11.12-.17.13,0a1,1,0,0,0,.06-.14s0,0,0-.1l.09-.14s0,0,0,0,.08-.09.14-.19a1,1,0,0,0,.09-.22C15.64,2.8,15.66,2.81,15.67,2.84Z"/><path class="cls-1" d="M17.73,16.16h.09l-.2,0-.2,0c-.14,0-.27.08-.41.12a7.64,7.64,0,0,1,.93-.12c.15,0,.3,0,.44,0l.2,0,.2,0s0,.06.1.09l.2.11a1.59,1.59,0,0,1,.18.08l.09,0h.09l.09,0,.17.06-.23-.09.23.09a2.36,2.36,0,0,1,1,.72,2.87,2.87,0,0,1,.56,1.15,3.42,3.42,0,0,1,.08,1.13l0,.17,0,.16c0,.1-.06.2-.08.3a3.2,3.2,0,0,1-.2.44,1.08,1.08,0,0,1-.11.18s.05-.07.07-.09l.06-.11a2.78,2.78,0,0,1-.38.75.72.72,0,0,0,.15-.1.94.94,0,0,1-.1.1.83.83,0,0,1-.15.24l-.19.2s0,0,0,0l-.11.07h0a3.72,3.72,0,0,1-1,.52.19.19,0,0,1-.1,0l-.15.05-.15,0s-.26,0-.12,0l-.17,0-.17,0-.34,0a3.44,3.44,0,0,1-1.2-.28,3.85,3.85,0,0,1-1-.7v0l-.16-.15-.15-.16a.9.9,0,0,1-.15-.18,2.36,2.36,0,0,1-.13-.23l-.12-.18a1.24,1.24,0,0,1-.1-.2,2,2,0,0,0-.18-.28c0-.08,0-.14-.06-.2l0-.17a.85.85,0,0,1,0-.17l0-.2s0,0,0-.11,0-.12,0,0a3.17,3.17,0,0,0,0,.42h0A3.61,3.61,0,0,0,15.58,22a3.3,3.3,0,0,0,.35.28l.19.14.2.12.1.06.1.05.22.11.21.08.23.07.24.06a2.13,2.13,0,0,0,.25,0,2.85,2.85,0,0,0,.5,0,2,2,0,0,0,.25,0,2,2,0,0,0,.24,0l.22,0L19,23l.1,0a.62.62,0,0,1,.18,0l.17,0a3.89,3.89,0,0,0,.38-.16l.19-.09.2-.12a3.09,3.09,0,0,0,.37-.26l.17-.15.16-.16,0,0,.29-.31.13-.15.07-.09.05-.09s0,0,0-.07a2.53,2.53,0,0,0,.35-.85,6.77,6.77,0,0,0,.12-.94v-.1a3.58,3.58,0,0,0-.31-1.8l-.06-.07-.06-.07-.12-.13c0-.09-.07-.09-.14-.18a.84.84,0,0,0-.08-.19.21.21,0,0,0-.08-.1s-.06,0,0,0a3.78,3.78,0,0,0-.51-.48l-.25-.16c-.08,0-.11-.07-.13-.12-.2-.1-.13-.08-.33-.19,0,0-.05,0-.11-.06l-.19-.06-.2,0-.12,0h0l-.18-.06-.16-.06a1.54,1.54,0,0,0-.34-.08,3.53,3.53,0,0,0-1.12.05,4.39,4.39,0,0,0-1,.37s.13-.07.16,0a3.43,3.43,0,0,0-1,.64,1.59,1.59,0,0,1-.16.11c-.1.09,0,.07-.11.14h0c-.07.12-.15.14-.23.25s0,.06-.05.09-.07.13-.09.11h0s0,0-.05.07l0,.11c0,.05,0,.12-.05.19l0,.19,0,.11v0c0,.07,0,.11,0,.07l0,.09h0l0,.08s0,0,0,0a.88.88,0,0,1,0,.16,1.88,1.88,0,0,1,.22-.42,2,2,0,0,1-.08.22.16.16,0,0,0,0,.07l0,.08-.08.19s0,.05,0,.11,0,.07,0,.12a.55.55,0,0,1,0-.18s0,.15-.06.19,0,.14,0,.22,0,.06,0,.1,0,.08,0,.06,0-.2.06-.12,0,.11,0,.16,0,0,0,0a.4.4,0,0,1,0,.16s0,0,0-.05-.1-.42-.09-.33.08.45.08.39,0,0,0,0l0-.05c0-.07,0-.09.05-.07s-.1-.32-.08-.22,0,0,0,0a.61.61,0,0,1,0,.19s0,.05,0,.1h0s0,.11,0,.08.05-.09.09,0,.09.09.1,0c0,.11,0,0,0-.14s0-.06.05-.13,0-.05,0-.06,0-.11,0-.09,0-.08,0-.15,0,0,0,0,.05-.19.07-.25.08-.09.09,0,0-.06-.06.06c.06,0,0,.12,0,.15a.48.48,0,0,0,.06-.18h0a.59.59,0,0,1,.09-.24s0,0,0,0l0-.07s0,0,0,0a.34.34,0,0,1,0-.1s.13-.43.15-.41.06-.06.07-.12a.48.48,0,0,0,0,.08s-.06.11-.08.17a1.66,1.66,0,0,1-.07.21.38.38,0,0,0,.05-.11,2,2,0,0,1,.09-.22l.1-.22c0-.05.07-.09.08-.09s.05-.08,0-.09,0,0,0,0,0,0,0,0l.05,0A1.33,1.33,0,0,1,15.7,17a1,1,0,0,0,.14-.16,1.58,1.58,0,0,1-.07.16h0s0,.07,0,.07a.56.56,0,0,0,.14-.16l0,0h0s0,0,0,0h0c.07,0,.19-.22.32-.27s0,0,0-.05l.09,0,.08,0,.17-.08s0-.06,0,0l.1-.05c-.06.09.2,0,.13.05A.27.27,0,0,0,17,16.3s0,0,.07-.06l.16,0s0,0,0,0,.11,0,.23,0,.22-.06.22-.09S17.74,16.13,17.73,16.16Z"/><path class="cls-2" d="M9.43,9.64h0Z"/><path class="cls-2" d="M13.77,7.11Z"/><polygon class="cls-2" points="10.48 9.92 10.48 9.92 10.48 9.93 10.48 9.92"/><path class="cls-2" d="M9.58,10.37c.24-.11.35,0,.57-.22a1.94,1.94,0,0,0,.33-.23c0-.1.15-.09.17-.18l0,0s0-.06.06,0h0s.06-.05.07-.07h0l0,0v0A.23.23,0,0,1,11,9.54l0,0c.14,0,.12-.13.26-.12h0c.05-.2.25,0,.31-.22,0,0,0,0,0,0s.1-.09.05-.19,0,0,.08.05a.08.08,0,0,1,0-.11V9l.09-.07-.07-.07c.06,0,.07.09.11,0l0-.06c.08,0,.18,0,.27,0,.3-.13.51-.48.84-.52l0,.05c.05.07,0-.15.06-.09V8.25s0,0,0,0,0,0,0-.06l0,0c.14,0,.18-.17.31-.22s.41-.23.54-.37.57-.09.72-.34c0,0,0,0,0,0l.21-.1s1-.54-.1-.71v0c-.14,0-.21.06-.24.18-.07-.09-.1,0-.14,0h0c0,.11-.18,0-.21.12s0,0,0,0-.09.1-.13,0-.27.14-.29.28V7c0,.08,0,0-.07.1l0,0c0,.09-.12.09-.15.14l0,0-.08.06h0c0,.11-.1,0-.13.08s0,.29-.09.27,0-.09,0,0,0,0,0-.08-.1,0-.13,0l0,0c0,.12-.17,0-.17.13s-.12-.1-.15,0l-.07,0s0,.08,0,.07-.06,0-.06,0-.12.18-.28.15c0,.08-.07.07-.05.13s-.12.06-.09,0h0l0,0c-.11,0-.09.1-.16.13s.05,0,.05,0L12,8V8l-.09,0,0,0s-.11-.06-.12,0,.08,0,0,.07a1.22,1.22,0,0,0-.26,0c0,.05,0,.06,0,.08l0,0c-.05.1-.09-.08-.13,0v0l0,.1c0,.12-.09-.07-.1.09,0,0,.07.08,0,.09V8.43s0,0,0,0,0-.06,0,0V8.37l0,.11c-.06,0-.1.07-.15,0s-.11,0-.1.11-.06,0-.07-.09-.05.13-.11.1h0c-.14,0-.14.17-.27.17,0,0,0,.05,0,.1s-.25,0-.17.19c0,0-.08,0-.11,0V9a.57.57,0,0,1-.16.11s0,.13,0,.14,0,0-.05,0,0,0,0,0v0h0s0,0,0,0,0,0,0,0-.09.06-.13,0a1.6,1.6,0,0,0-.21.26.06.06,0,0,1,0-.09l-.06,0s0,0,0-.06-.11.16-.24.14v.05h0a.08.08,0,0,1,0,.07s-.06-.09-.1-.06-.08.07-.11.12,0,0,0,0-.06,0-.06,0l0-.05c0,.05,0,.09,0,.11s0-.05,0-.08L9,9.88c0,.07,0,0,.05.1s-.05.1-.12.09l0,0a.14.14,0,0,1-.18.08c-.33.71.19.6.19.6C9.3,10.77,9.34,10.56,9.58,10.37Z"/><path class="cls-2" d="M9.81,14.28v0A0,0,0,0,0,9.81,14.28Z"/><path class="cls-2" d="M13.94,16.74Z"/><polygon class="cls-2" points="10.05 15.32 10.05 15.32 10.04 15.32 10.05 15.32"/><path class="cls-2" d="M9.25,14.77c.21.15.21.28.46.37a2.21,2.21,0,0,0,.34.18c.09-.05.14.08.23,0v.06s.07,0,.07,0h0c.05,0,.07,0,.09,0v0h0v0a.24.24,0,0,1,.17.07l0,0c.07.11.17,0,.22.16h0c.19-.06.13.2.32.15,0,0,0,0,0,0s.12.05.18-.05,0,.05,0,.09a.08.08,0,0,1,.11,0h0l.1,0,0-.09s-.05.1,0,.11l0-.07c.06.06,0,.18.08.27.25.18.64.19.82.46l0,.05c0,.08.13-.06.1,0l.05,0s0,.05,0,.05,0,0,.07,0v.06c.09.1.23.07.33.15s.38.24.56.28.33.44.61.45c0,0,0,0,0,0l.19.12s.91.59.56-.43h0c-.08-.1-.14-.15-.26-.12,0-.1-.08-.06-.08-.1h0c-.11,0-.09-.14-.19-.11a0,0,0,0,1,0,0c-.06,0-.13,0-.1-.09-.12,0-.25-.16-.37-.11h0c-.07,0-.05,0-.12,0v0c-.08,0-.13-.06-.18-.06l0,0-.09,0,0,0c-.07.09,0-.11-.12-.08s-.25.15-.28.06.07-.06,0-.05,0,0,0-.07,0-.1-.11-.09l0,0c-.12,0-.1-.13-.18-.08s0-.15-.1-.11v-.08s-.07.06-.08,0,0-.05,0-.08-.21,0-.25-.17c-.07.06-.09,0-.14,0s-.1-.07,0-.1v0l0,0c0-.11-.13,0-.19-.07s0,0,0,.06l-.05,0,0,0-.07-.07v.05s0-.13-.08-.09,0,.08-.05.07a1.28,1.28,0,0,0-.14-.21c0,.05,0,0-.07,0l0,0c-.1,0,0-.11-.06-.11l0,0-.07.07c-.11.05,0-.1-.12,0,0,0,0,.1-.07.06l0,0h-.05s0-.06,0-.07l.05,0-.1,0c0-.07-.11,0-.1-.12s-.07-.08-.13,0,0-.07.05-.11-.14,0-.14,0h0c-.07-.11-.21,0-.26-.15,0,.05-.06,0-.09.07s-.09-.23-.24-.06c-.05,0,0-.07,0-.1h0a.54.54,0,0,1-.17-.08s-.1.08-.13,0,0,0,0,0,0,0,0-.05,0,0,0,0h0s0,0,0,0v0c0-.06-.09-.05-.06-.11A1.18,1.18,0,0,0,10,14.5a.07.07,0,0,1,.08-.05l-.07,0s.05,0,.07,0-.18,0-.22-.13l0,0h0s-.05,0-.06,0,.05-.09,0-.11-.1,0-.15,0,0,0,0,.05,0-.06,0-.05l0-.06c0,.06-.08,0-.1,0s0,0,.07,0l-.12-.06c-.07,0,0,0-.07.08s-.11,0-.13-.05l0,.05c-.09,0-.13,0-.15-.11-.76.07-.42.46-.42.46C8.79,14.73,9,14.65,9.25,14.77Z"/></svg>