<svg id="Layer_1" data-name="Layer 1" xmlns="http://www.w3.org/2000/svg" viewBox="0 0 24 24"><path d="M20,7.63c-.68,0-1.36-.07-2,0l-1.25,0h0l-.27-.47-.14-.22c-.55-.85-1.12-1.69-1.71-2.53l-.19-.27A3,3,0,0,0,14.48,3a2.89,2.89,0,0,0-.24-.9A2.09,2.09,0,0,0,12.41,0a1.28,1.28,0,0,0-1.48,1.13c-.19.18-.26.58-.49.81A1.91,1.91,0,0,0,9.9,3.65a1,1,0,0,0,.23.52h0l0,0-.33.35-.22.25-.85,1.1c-.36.45-.65.9-.95,1.36l0,.09c0,.11-.2.21-.22.32h0a6.28,6.28,0,0,1-1.3,0,8.91,8.91,0,0,0-2.13.11s0,.06-.08.06h0l0,0H4a.1.1,0,0,0,0,0L3.9,8v.18a.65.65,0,0,1,0,.39C3.8,12,3.71,15.41,3.72,18.84A28.2,28.2,0,0,0,4,22.52,1.09,1.09,0,0,1,4,23a2.53,2.53,0,0,1,.09.55s0,0,0,0,0,0,0,.05A2.8,2.8,0,0,0,5.47,24h.89a.15.15,0,0,1,.13,0H7.6a10.82,10.82,0,0,1,1.27,0c1.55,0,3.1,0,4.65,0h.21a4,4,0,0,1,.69,0c.5,0,1,0,1.5,0,0,0,.1,0,.15,0H19l.13,0h.18l.28,0c.65-.08.7-.14.66-.79v0c0-.86,0-1.72,0-2.57a.28.28,0,0,1,0-.25c0-.23,0-.45,0-.68a.36.36,0,0,1,0-.25c0-.66-.08-1.31-.08-2l0-2c0-.49,0-1,0-1.47,0-1.5.05-3,.07-4.5a4.44,4.44,0,0,1,0-1c0-.18,0-.36,0-.53S20.21,7.63,20,7.63ZM9.7,6.27l.06-.1s0,0,0,0l0,0s0,0,0-.07c.2-.35.39-.7.58-1,.08-.14.15-.29.23-.44a.38.38,0,0,0,.3,0,.63.63,0,0,0,.46.42.6.6,0,0,0,.5-.25.49.49,0,0,0,.37.24.5.5,0,0,0,.41-.22.55.55,0,0,0,.41.22.53.53,0,0,0,.41-.27.51.51,0,0,0,.34.11l.09,0c.39,1,.86,1.92,1.2,2.88h0l-3.38.08c-.85,0-1.71,0-2.57,0L9,7.73l0,0H9A7.29,7.29,0,0,1,9.7,6.27Zm-1,1.45h0Zm-.09,0h0ZM14.12,16c-1.13.06-2.26.16-3.38.31l-3.29.45L5.64,17A.52.52,0,0,1,5.22,17a.12.12,0,0,1,0-.16.49.49,0,0,1,.15-.17,11.45,11.45,0,0,1,1.41-.88c.75-.41,1.54-.76,2.32-1.1a.48.48,0,0,0,.23-.19c.26-.38.53-.75.78-1.13a.86.86,0,0,1,.62-.4l1.43-.28,2-.42.35-.05a.32.32,0,0,1,.37.24,4.72,4.72,0,0,1,.15.65c0,.19.1.38.16.57a.16.16,0,0,0,.12.12l2,.69a11.06,11.06,0,0,1,1.44.67,1.1,1.1,0,0,1,.25.17.31.31,0,0,1,0,.44.44.44,0,0,1-.4.16,5.61,5.61,0,0,0-.71,0c-1.21,0-2.43,0-3.65.11Z"/></svg>