<svg id="Layer_1" data-name="Layer 1" xmlns="http://www.w3.org/2000/svg" viewBox="0 0 24 24"><defs><style>.cls-1{fill:none;}</style></defs><path d="M12.86,13H12.7a6.77,6.77,0,0,0,1.51-.36c-.28.06-.58.11-.87.15l-.87.07a8.2,8.2,0,0,0-1.57.2c0-.06-.1-.12-.2-.19l-.37-.18a1.85,1.85,0,0,0-.52-.21l-.17,0-.16,0-.33-.11.22.08.23.07-.23-.07-.22-.08A4.56,4.56,0,0,1,7.32,11,5.31,5.31,0,0,1,6.26,8.78a5.19,5.19,0,0,1-.15-.91,6.11,6.11,0,0,1,0-1.21,5.84,5.84,0,0,1,.26-1.18,5.41,5.41,0,0,1,.37-.84c.07-.11.13-.22.21-.33a1.36,1.36,0,0,0-.12.18,1.67,1.67,0,0,0-.12.19,5.43,5.43,0,0,1,.72-1.4,1.26,1.26,0,0,0-.28.18l.18-.19a.81.81,0,0,1,.11-.2,2,2,0,0,1,.17-.23l.2-.22L8,2.44s0,0,.09,0a1.91,1.91,0,0,0,.21-.14l-.08,0a7,7,0,0,1,.91-.58A5.64,5.64,0,0,1,10,1.32a.47.47,0,0,1,.19,0l.28-.09.29-.08s.1,0,.19,0,.16,0,0,0A6.32,6.32,0,0,1,12.31,1a6.6,6.6,0,0,1,2.24.53,7,7,0,0,1,2,1.32v0c.2.19.41.37.6.58a2.85,2.85,0,0,1,.51.78,6.08,6.08,0,0,1,.43.71,2.55,2.55,0,0,0,.32.53l.2.69c0,.11.05.21.08.32s0,.24,0,.39c0-.08.06.07.08.2s0,.23.06.09a4.41,4.41,0,0,0,.05-.78h0A6.64,6.64,0,0,0,18.32,4a6.92,6.92,0,0,0-1.4-2.05,10.48,10.48,0,0,0-1.4-1A6.74,6.74,0,0,0,13.91.23,7.42,7.42,0,0,0,13,.05a3.73,3.73,0,0,0-.47,0H12A6.55,6.55,0,0,0,10.3.26,1.51,1.51,0,0,1,10,.33l-.32,0a8.31,8.31,0,0,0-1.45.7A6.87,6.87,0,0,0,6.88,2.14l0,0c-.2.21-.38.39-.55.58L6.12,3,6,3.14l-.12.18s0,.08,0,.12a.5.5,0,0,0-.1.15,1,1,0,0,0-.09.15l-.09.2A6.62,6.62,0,0,0,5.18,5,8.39,8.39,0,0,0,5,6.21v.41a1.34,1.34,0,0,1,0,.2A1.09,1.09,0,0,0,5,7,8.14,8.14,0,0,0,5,8.78a5.18,5.18,0,0,0,.51,1.6l.11.14.11.14.11.13L6,10.9c.07.17.15.16.27.34a1.47,1.47,0,0,0,.29.55c.08.08.11.07,0-.06a9.89,9.89,0,0,0,1,.9l.48.3a.55.55,0,0,1,.25.22c.37.18.24.17.62.37a1.72,1.72,0,0,0,.56.22l.38.08a.9.9,0,0,1,.22,0H10l.17.05.16.06.3.11a2.48,2.48,0,0,0,.65.15,6,6,0,0,0,1,0,7.31,7.31,0,0,0,1.06-.14,6.54,6.54,0,0,0,1-.29,9.58,9.58,0,0,0,.91-.4c0-.07-.24.14-.3.07A9.56,9.56,0,0,0,16,13a5.14,5.14,0,0,0,.91-.68c.12-.08.26-.19.32-.22s.07-.13.2-.26l.06,0a.84.84,0,0,1,.21-.24.84.84,0,0,0,.21-.24s0-.1.09-.17.14-.23.19-.19h0l.09-.13.07-.2c0-.1.07-.23.11-.36s.07-.26.09-.36,0-.18,0-.21l0,0c.06-.13,0-.2,0-.13l.06-.16v0l.06-.16s.05,0,.06,0a1,1,0,0,1,.06-.3,5.47,5.47,0,0,1-.42.79,1.28,1.28,0,0,1,.07-.21,1.11,1.11,0,0,0,.08-.21.63.63,0,0,0,.07-.12l.08-.16c.05-.11.1-.24.14-.35s-.05-.1,0-.21,0-.14.07-.23a1,1,0,0,1-.05.34c.07,0,.09-.27.12-.36s0-.26,0-.4c.05.06,0-.11.08-.2s0-.15,0-.12S19,7.9,19,7.76a.86.86,0,0,0,0-.31s0,.06-.06,0,0-.23,0-.29a.33.33,0,0,1,0,.1c0-.07.05.12.09.31s.07.39.07.29-.05-.19-.08-.39A1.57,1.57,0,0,0,19,7.13c0,.08-.06-.06-.07,0l0,.09c0,.13-.08.17-.1.13s.06,0,.1.2.07.31.07.22l0,.07a.82.82,0,0,1,0-.35s0-.11,0-.19v0c0-.09,0-.21,0-.15,0,.25-.09.16-.17.08s-.17-.16-.18.07c.07-.2.08.06.07.27a.5.5,0,0,0-.1.25c0,.13,0,.08,0,.1s-.05.2-.09.18-.05.15-.06.27,0,0,0,.07a4,4,0,0,1-.14.48s-.14.16-.16.05.06.11.11-.13c0,0,0,0,0-.08s0-.16,0-.19a.77.77,0,0,0-.06.15,1.33,1.33,0,0,0-.05.19l0,0a1.23,1.23,0,0,1-.16.44s0,0,0-.08l-.06.15s0,0,0,0a.37.37,0,0,1-.08.19,2.16,2.16,0,0,0-.13.4,2.55,2.55,0,0,1-.13.37c-.06.1-.11.1-.15.21a2.08,2.08,0,0,0,.23-.47c0-.12.09-.23.11-.31l0-.08a.88.88,0,0,0-.09.22c-.05.11-.1.27-.17.41a3.72,3.72,0,0,1-.2.4c-.06.1-.11.18-.13.18s-.11.16-.07.16,0-.07-.1,0,0,0,0,0l-.09.05a1.55,1.55,0,0,1-.23.31,1.37,1.37,0,0,0-.25.3.89.89,0,0,1,.12-.29h0s.09-.12.06-.13a1.08,1.08,0,0,0-.26.3l-.08,0h0c-.05,0,0,0,0,0h0c-.06,0-.14.1-.25.22a1.33,1.33,0,0,1-.34.3c-.05.05,0,0-.06.08a2.38,2.38,0,0,1-.32.16l-.32.15c-.05.08-.05.1.06.08l-.19.08c.12-.17-.37.09-.24-.09a.77.77,0,0,0-.26.11s0,.07-.13.12a2.73,2.73,0,0,1-.31.06c-.05,0,0-.05,0-.07-.22.12-.23,0-.44.06S13,13,13,13.08C12.85,13.11,12.84,13.07,12.86,13Z"/><path class="cls-1" d="M15.37,12.68l7.11,10.16-.74.17c.05.1.09.19.14.28H1.77c.06-.1.11-.21.18-.31l-.6-.12L8.49,12.7"/><path d="M19.53,17.94l0,.12S19.57,18,19.53,17.94Z"/><path d="M2.56,20.44s0,0,0,0A.08.08,0,0,0,2.56,20.44Z"/><path d="M21.36,22.38h0l0,0Z"/><path d="M17.9,17.29c.9,1.35,1,1.78,2,3.12.45.66,1,1.34,1.42,2a4.4,4.4,0,0,1,.64.81l.33-.93a2,2,0,0,0-.39.14l-.17,0-.14.06-.8.3.39.56a.82.82,0,0,1,.12.25l.55-.85h0v0a5.23,5.23,0,0,1-.6,0v0H21l0,0a5.06,5.06,0,0,1-1.16,0l0,.08c-.76-.08-1,.08-1.73,0v0c-.87.21-1.38-.13-2.28.06.11,0,0,0,0-.06-.41,0-.85,0-.86.19-.3,0-.24-.05-.28-.11s-.26.09-.5.1l.11,0-.68,0,.14.12c-.36,0-.09-.15-.44-.12V23a10.56,10.56,0,0,1-1.27-.25c-2-.05-4.12.22-6,0l-.08-.08c0-.12-.51.17-.58.06l-.21,0c-.07,0-.19,0-.09-.07a1,1,0,0,0-.34,0l-.22-.07c-.78,0-1.45.08-2.28.06a4.48,4.48,0,0,0-.57-.05l.48.8c0-.09.11-.18.17-.27l.4-.68-.77-.17-.59-.11.34.86c.47-.7.94-1.49,1.27-2,.73-1.33,2.12-2.51,2.85-3.89A.32.32,0,0,0,6,17.08l.82-1.15s4-5.6.22-1.87v0a5.64,5.64,0,0,0-1,1.5c-.17,0-.38.51-.52.63v0c-.18.46-.64.74-.82,1.18a.14.14,0,0,1,0-.14c-.17.28-.41.67-.5.64A14.26,14.26,0,0,0,3,19.86v-.05c-.09.3-.21.32-.35.61l0,0a10.68,10.68,0,0,1-.63,1l-.06,0-.35.53.14-.19c.09.16-.35.33-.53.77a.57.57,0,0,0-.08.13l-.28.53.5,0a3.63,3.63,0,0,0,.65-.05l-.12-.28a1.9,1.9,0,0,1-.12.36l-.08.16H2c.21-.07-.19.13.13.07,0,.08-.15.05-.07.12.32,0,.51.09.9,0v.07c.5-.13,1,.08,1.28,0,.51-.06.34.19.88.06l.21.09c.23,0,.16-.11.42-.06,0,.05.32,0,.17.1a18.15,18.15,0,0,1,1.93,0c.16-.11.55,0,.67-.13s.77,0,.34.11c0,0-.11,0-.1,0l-.05.07c.43.12.78-.07,1.21-.05-.12,0-.29,0-.18-.06h.4l-.09.05.6,0-.08-.06c.29,0,.39.15.71.05.15-.05-.27-.09,0-.11s1,.11,1.46.13c-.05-.07.09-.07.22-.09l0,.07c.53-.09.19.15.71.07l0,.05.14-.14c.47-.13.25.14.77,0-.2,0-.1-.15.16-.12l-.07.07a1.13,1.13,0,0,1,.29,0c-.09,0,0,.09.16.08L15,23.9l.39-.12c.3.07.78,0,.91.08a2.39,2.39,0,0,0,.8-.06c-.14.06.22.09.12.16a1.7,1.7,0,0,1,.87-.05h0c.73.08,1.26-.1,1.92,0,0-.07.32,0,.23-.13.68-.1,1.25.2,1.49-.1a1.74,1.74,0,0,1,.23,0l.55.1-.2-.64c-.05-.14,0-.22-.08-.33l.05.06,0-.07-.33.69.76-.2.64-.14-.38-.56-.2-.28c-.14-.16-.28-.11-.47-.45.11.07,0-.05-.07-.17.06.07.1.08,0-.09L22,21.52h0c-.16-.19-.15-.15-.09-.05s0,0,0,.05c-.08-.24-.4-.57-.34-.65-.44-.58-.82-.95-1.19-1.42,0-.09.12,0,.23.14l-.26-.35c.06,0,.18.18.26.28-.19-.48-.69-.79-.95-1.35l-.12-.06v0s-.13-.07-.19-.14.12-.07-.05-.31a3.7,3.7,0,0,0-.61-.76c.08.14,0,.11,0,.07s-.09-.23-.18-.31l.06-.06c0,.1-.29-.27-.35-.29s.18.16.24.16l-.52-.72c-.24-.23,0,.09-.18,0a3.26,3.26,0,0,1-.52-.71v.13a3.56,3.56,0,0,1-.66-1c-2.74-2.86-1.15-.2-1.15-.2A26.84,26.84,0,0,0,17.9,17.29Z"/></svg>